<svg xmlns="http://www.w3.org/2000/svg" viewBox="0 0 1132 905" role="img" aria-label="Контур суши из скриншота карты"><path d="M0 0L1 0 M1 1L0 1 M0 1L0 0 M1 0L2 0 M2 1L1 1 M2 0L3 0 M3 1L2 1 M3 0L4 0 M4 1L3 1 M4 0L5 0 M5 1L4 1 M5 0L6 0 M6 1L5 1 M6 0L7 0 M7 1L6 1 M7 0L8 0 M8 1L7 1 M8 0L9 0 M9 1L8 1 M9 0L10 0 M10 1L9 1 M10 0L11 0 M11 1L10 1 M11 0L12 0 M12 1L11 1 M12 0L13 0 M13 1L12 1 M13 0L14 0 M14 1L13 1 M14 0L15 0 M15 1L14 1 M15 0L16 0 M16 1L15 1 M16 0L17 0 M17 1L16 1 M17 0L18 0 M18 1L17 1 M18 0L19 0 M19 1L18 1 M19 0L20 0 M20 1L19 1 M20 0L21 0 M21 1L20 1 M21 0L22 0 M22 1L21 1 M22 0L23 0 M23 1L22 1 M23 0L24 0 M24 1L23 1 M24 0L25 0 M25 1L24 1 M25 0L26 0 M26 1L25 1 M26 0L27 0 M27 1L26 1 M27 0L28 0 M28 1L27 1 M28 0L29 0 M29 1L28 1 M29 0L30 0 M30 1L29 1 M30 0L31 0 M31 1L30 1 M31 0L32 0 M32 1L31 1 M32 0L33 0 M33 1L32 1 M33 0L34 0 M34 1L33 1 M34 0L35 0 M35 1L34 1 M35 0L36 0 M36 1L35 1 M36 0L37 0 M37 1L36 1 M37 0L38 0 M38 1L37 1 M38 0L39 0 M39 1L38 1 M39 0L40 0 M40 1L39 1 M40 0L41 0 M41 1L40 1 M41 0L42 0 M42 1L41 1 M42 0L43 0 M43 1L42 1 M43 0L44 0 M44 1L43 1 M44 0L45 0 M45 1L44 1 M45 0L46 0 M46 1L45 1 M46 0L47 0 M47 1L46 1 M47 0L48 0 M48 1L47 1 M48 0L49 0 M49 1L48 1 M49 0L50 0 M50 1L49 1 M50 0L51 0 M51 1L50 1 M51 0L52 0 M52 1L51 1 M52 0L53 0 M53 1L52 1 M53 0L54 0 M54 1L53 1 M54 0L55 0 M55 1L54 1 M55 0L56 0 M56 1L55 1 M56 0L57 0 M57 1L56 1 M57 0L58 0 M58 1L57 1 M58 0L59 0 M59 1L58 1 M59 0L60 0 M60 1L59 1 M60 0L61 0 M61 1L60 1 M61 0L62 0 M62 1L61 1 M62 0L63 0 M63 1L62 1 M63 0L64 0 M64 1L63 1 M64 0L65 0 M65 1L64 1 M65 0L66 0 M66 1L65 1 M66 0L67 0 M67 1L66 1 M67 0L68 0 M68 1L67 1 M68 0L69 0 M69 1L68 1 M69 0L70 0 M70 1L69 1 M70 0L71 0 M71 1L70 1 M71 0L72 0 M72 1L71 1 M72 0L73 0 M73 1L72 1 M73 0L74 0 M74 1L73 1 M74 0L75 0 M75 1L74 1 M75 0L76 0 M76 1L75 1 M76 0L77 0 M77 1L76 1 M77 0L78 0 M78 1L77 1 M78 0L79 0 M79 1L78 1 M79 0L80 0 M80 1L79 1 M80 0L81 0 M81 1L80 1 M81 0L82 0 M82 1L81 1 M82 0L83 0 M83 1L82 1 M83 0L84 0 M84 1L83 1 M84 0L85 0 M85 1L84 1 M85 0L86 0 M86 1L85 1 M86 0L87 0 M87 1L86 1 M87 0L88 0 M88 1L87 1 M88 0L89 0 M89 1L88 1 M89 0L90 0 M90 1L89 1 M90 0L91 0 M91 1L90 1 M91 0L92 0 M92 1L91 1 M92 0L93 0 M93 1L92 1 M93 0L94 0 M94 1L93 1 M94 0L95 0 M95 1L94 1 M95 0L96 0 M96 1L95 1 M96 0L97 0 M97 1L96 1 M97 0L98 0 M98 1L97 1 M98 0L99 0 M99 1L98 1 M99 0L100 0 M100 1L99 1 M100 0L101 0 M101 1L100 1 M101 0L102 0 M102 1L101 1 M102 0L103 0 M103 1L102 1 M103 0L104 0 M104 1L103 1 M104 0L105 0 M105 1L104 1 M105 0L106 0 M106 1L105 1 M106 0L107 0 M107 1L106 1 M107 0L108 0 M108 1L107 1 M108 0L109 0 M109 1L108 1 M109 0L110 0 M110 1L109 1 M110 0L111 0 M111 1L110 1 M111 0L112 0 M112 1L111 1 M112 0L113 0 M113 1L112 1 M113 0L114 0 M114 1L113 1 M114 0L115 0 M115 1L114 1 M115 0L116 0 M116 1L115 1 M116 0L117 0 M117 1L116 1 M117 0L118 0 M118 1L117 1 M118 0L119 0 M119 1L118 1 M119 0L120 0 M120 1L119 1 M120 0L121 0 M121 1L120 1 M121 0L122 0 M122 1L121 1 M122 0L123 0 M123 1L122 1 M123 0L124 0 M124 1L123 1 M124 0L125 0 M125 1L124 1 M125 0L126 0 M126 1L125 1 M126 0L127 0 M127 1L126 1 M127 0L128 0 M128 1L127 1 M128 0L129 0 M129 1L128 1 M129 0L130 0 M130 1L129 1 M130 0L131 0 M131 1L130 1 M131 0L132 0 M132 1L131 1 M132 0L133 0 M133 1L132 1 M133 0L134 0 M134 1L133 1 M134 0L135 0 M135 1L134 1 M135 0L136 0 M136 1L135 1 M136 0L137 0 M137 1L136 1 M137 0L138 0 M138 1L137 1 M138 0L139 0 M139 1L138 1 M139 0L140 0 M140 1L139 1 M140 0L141 0 M141 1L140 1 M141 0L142 0 M142 1L141 1 M142 0L143 0 M143 1L142 1 M143 0L144 0 M144 1L143 1 M144 0L145 0 M145 1L144 1 M145 0L146 0 M146 1L145 1 M146 0L147 0 M147 1L146 1 M147 0L148 0 M148 1L147 1 M148 0L149 0 M149 1L148 1 M149 0L150 0 M150 1L149 1 M150 0L151 0 M151 1L150 1 M151 0L152 0 M152 1L151 1 M152 0L153 0 M153 1L152 1 M153 0L154 0 M154 1L153 1 M154 0L155 0 M155 1L154 1 M155 0L156 0 M156 1L155 1 M156 0L157 0 M157 1L156 1 M157 0L158 0 M158 1L157 1 M158 0L159 0 M159 1L158 1 M159 0L160 0 M160 1L159 1 M160 0L161 0 M161 1L160 1 M161 0L162 0 M162 1L161 1 M162 0L163 0 M163 1L162 1 M163 0L164 0 M164 1L163 1 M164 0L165 0 M165 1L164 1 M165 0L166 0 M166 1L165 1 M166 0L167 0 M167 1L166 1 M167 0L168 0 M168 1L167 1 M168 0L169 0 M169 1L168 1 M169 0L170 0 M170 1L169 1 M170 0L171 0 M171 1L170 1 M171 0L172 0 M172 1L171 1 M172 0L173 0 M173 1L172 1 M173 0L174 0 M174 1L173 1 M174 0L175 0 M175 1L174 1 M175 0L176 0 M176 1L175 1 M176 0L177 0 M177 1L176 1 M177 0L178 0 M178 1L177 1 M178 0L179 0 M179 1L178 1 M179 0L180 0 M180 1L179 1 M180 0L181 0 M181 1L180 1 M181 0L182 0 M182 1L181 1 M182 0L183 0 M183 1L182 1 M183 0L184 0 M184 1L183 1 M184 0L185 0 M185 1L184 1 M185 0L186 0 M186 1L185 1 M186 0L187 0 M187 1L186 1 M187 0L188 0 M188 1L187 1 M188 0L189 0 M189 1L188 1 M189 0L190 0 M190 1L189 1 M190 0L191 0 M191 1L190 1 M191 0L192 0 M192 1L191 1 M192 0L193 0 M193 1L192 1 M193 0L194 0 M194 1L193 1 M194 0L195 0 M195 1L194 1 M195 0L196 0 M196 1L195 1 M196 0L197 0 M197 1L196 1 M197 0L198 0 M198 1L197 1 M198 0L199 0 M199 1L198 1 M199 0L200 0 M200 1L199 1 M200 0L201 0 M201 1L200 1 M201 0L202 0 M202 1L201 1 M202 0L203 0 M203 1L202 1 M203 0L204 0 M204 1L203 1 M204 0L205 0 M205 1L204 1 M205 0L206 0 M206 1L205 1 M206 0L207 0 M207 1L206 1 M207 0L208 0 M208 1L207 1 M208 0L209 0 M209 1L208 1 M209 0L210 0 M210 1L209 1 M210 0L211 0 M211 1L210 1 M211 0L212 0 M212 1L211 1 M212 0L213 0 M213 1L212 1 M213 0L214 0 M214 1L213 1 M214 0L215 0 M215 1L214 1 M215 0L216 0 M216 1L215 1 M216 0L217 0 M217 1L216 1 M217 0L218 0 M218 1L217 1 M218 0L219 0 M219 1L218 1 M219 0L220 0 M220 1L219 1 M220 0L221 0 M221 1L220 1 M221 0L222 0 M222 1L221 1 M222 0L223 0 M223 1L222 1 M223 0L224 0 M224 1L223 1 M224 0L225 0 M225 1L224 1 M225 0L226 0 M226 1L225 1 M226 0L227 0 M227 1L226 1 M227 0L228 0 M228 1L227 1 M228 0L229 0 M229 1L228 1 M229 0L230 0 M230 1L229 1 M230 0L231 0 M231 1L230 1 M231 0L232 0 M232 1L231 1 M232 0L233 0 M233 1L232 1 M233 0L234 0 M234 1L233 1 M234 0L235 0 M235 1L234 1 M235 0L236 0 M236 1L235 1 M236 0L237 0 M237 1L236 1 M237 0L238 0 M238 1L237 1 M238 0L239 0 M239 1L238 1 M239 0L240 0 M240 1L239 1 M240 0L241 0 M241 1L240 1 M241 0L242 0 M242 1L241 1 M242 0L243 0 M243 1L242 1 M243 0L244 0 M244 1L243 1 M244 0L245 0 M245 1L244 1 M245 0L246 0 M246 1L245 1 M246 0L247 0 M247 1L246 1 M247 0L248 0 M248 1L247 1 M248 0L249 0 M249 1L248 1 M249 0L250 0 M250 1L249 1 M250 0L251 0 M251 1L250 1 M251 0L252 0 M252 1L251 1 M252 0L253 0 M253 1L252 1 M253 0L254 0 M254 1L253 1 M254 0L255 0 M255 1L254 1 M255 0L256 0 M256 1L255 1 M256 0L257 0 M257 1L256 1 M257 0L258 0 M258 1L257 1 M258 0L259 0 M259 1L258 1 M259 0L260 0 M260 1L259 1 M260 0L261 0 M261 1L260 1 M261 0L262 0 M262 1L261 1 M262 0L263 0 M263 1L262 1 M263 0L264 0 M264 1L263 1 M264 0L265 0 M265 1L264 1 M265 0L266 0 M266 1L265 1 M266 0L267 0 M267 1L266 1 M267 0L268 0 M268 1L267 1 M268 0L269 0 M269 1L268 1 M269 0L270 0 M270 1L269 1 M270 0L271 0 M271 1L270 1 M271 0L272 0 M272 1L271 1 M272 0L273 0 M273 1L272 1 M273 0L274 0 M274 1L273 1 M274 0L275 0 M275 1L274 1 M275 0L276 0 M276 1L275 1 M276 0L277 0 M277 1L276 1 M277 0L278 0 M278 1L277 1 M278 0L279 0 M279 1L278 1 M279 0L280 0 M280 1L279 1 M280 0L281 0 M281 1L280 1 M281 0L282 0 M282 1L281 1 M282 0L283 0 M283 1L282 1 M283 0L284 0 M284 1L283 1 M284 0L285 0 M285 1L284 1 M285 0L286 0 M286 1L285 1 M286 0L287 0 M287 1L286 1 M287 0L288 0 M288 1L287 1 M288 0L289 0 M289 1L288 1 M289 0L290 0 M290 1L289 1 M290 0L291 0 M291 1L290 1 M291 0L292 0 M292 1L291 1 M292 0L293 0 M293 1L292 1 M293 0L294 0 M294 1L293 1 M294 0L295 0 M295 1L294 1 M295 0L296 0 M296 1L295 1 M296 0L297 0 M297 1L296 1 M297 0L298 0 M298 1L297 1 M298 0L299 0 M299 1L298 1 M299 0L300 0 M300 1L299 1 M300 0L301 0 M301 1L300 1 M301 0L302 0 M302 1L301 1 M302 0L303 0 M303 1L302 1 M303 0L304 0 M304 1L303 1 M304 0L305 0 M305 1L304 1 M305 0L306 0 M306 1L305 1 M306 0L307 0 M307 1L306 1 M307 0L308 0 M308 1L307 1 M308 0L309 0 M309 1L308 1 M309 0L310 0 M310 1L309 1 M310 0L311 0 M311 1L310 1 M311 0L312 0 M312 1L311 1 M312 0L313 0 M313 1L312 1 M313 0L314 0 M314 1L313 1 M314 0L315 0 M315 1L314 1 M315 0L316 0 M316 1L315 1 M316 0L317 0 M317 1L316 1 M317 0L318 0 M318 1L317 1 M318 0L319 0 M319 1L318 1 M319 0L320 0 M320 1L319 1 M320 0L321 0 M321 1L320 1 M321 0L322 0 M322 1L321 1 M322 0L323 0 M323 1L322 1 M323 0L324 0 M324 1L323 1 M324 0L325 0 M325 1L324 1 M325 0L326 0 M326 1L325 1 M326 0L327 0 M327 1L326 1 M327 0L328 0 M328 1L327 1 M328 0L329 0 M329 1L328 1 M329 0L330 0 M330 1L329 1 M330 0L331 0 M331 1L330 1 M331 0L332 0 M332 1L331 1 M332 0L333 0 M333 1L332 1 M333 0L334 0 M334 1L333 1 M334 0L335 0 M335 1L334 1 M335 0L336 0 M336 1L335 1 M336 0L337 0 M337 1L336 1 M337 0L338 0 M338 1L337 1 M338 0L339 0 M339 1L338 1 M339 0L340 0 M340 1L339 1 M340 0L341 0 M341 1L340 1 M341 0L342 0 M342 1L341 1 M342 0L343 0 M343 1L342 1 M343 0L344 0 M344 1L343 1 M344 0L345 0 M345 1L344 1 M345 0L346 0 M346 1L345 1 M346 0L347 0 M347 1L346 1 M347 0L348 0 M348 1L347 1 M348 0L349 0 M349 1L348 1 M349 0L350 0 M350 1L349 1 M350 0L351 0 M351 1L350 1 M351 0L352 0 M352 1L351 1 M352 0L353 0 M353 1L352 1 M353 0L354 0 M354 1L353 1 M354 0L355 0 M355 1L354 1 M355 0L356 0 M356 1L355 1 M356 0L357 0 M357 1L356 1 M357 0L358 0 M358 1L357 1 M358 0L359 0 M359 1L358 1 M359 0L360 0 M360 1L359 1 M360 0L361 0 M361 1L360 1 M361 0L362 0 M362 1L361 1 M362 0L363 0 M363 1L362 1 M363 0L364 0 M364 1L363 1 M364 0L365 0 M365 1L364 1 M365 0L366 0 M366 1L365 1 M366 0L367 0 M367 1L366 1 M367 0L368 0 M368 1L367 1 M368 0L369 0 M369 1L368 1 M369 0L370 0 M370 1L369 1 M370 0L371 0 M371 1L370 1 M371 0L372 0 M372 1L371 1 M372 0L373 0 M373 1L372 1 M373 0L374 0 M374 1L373 1 M374 0L375 0 M375 1L374 1 M375 0L376 0 M376 1L375 1 M376 0L377 0 M377 1L376 1 M377 0L378 0 M378 1L377 1 M378 0L379 0 M379 1L378 1 M379 0L380 0 M380 1L379 1 M380 0L381 0 M381 1L380 1 M381 0L382 0 M382 1L381 1 M382 0L383 0 M383 1L382 1 M383 0L384 0 M384 1L383 1 M384 0L385 0 M385 1L384 1 M385 0L386 0 M386 1L385 1 M386 0L387 0 M387 1L386 1 M387 0L388 0 M388 1L387 1 M388 0L389 0 M389 1L388 1 M389 0L390 0 M390 1L389 1 M390 0L391 0 M391 1L390 1 M391 0L392 0 M392 1L391 1 M392 0L393 0 M393 1L392 1 M393 0L394 0 M394 1L393 1 M394 0L395 0 M395 1L394 1 M395 0L396 0 M396 1L395 1 M396 0L397 0 M397 1L396 1 M397 0L398 0 M398 1L397 1 M398 0L399 0 M399 1L398 1 M399 0L400 0 M400 1L399 1 M400 0L401 0 M401 1L400 1 M401 0L402 0 M402 1L401 1 M402 0L403 0 M403 1L402 1 M403 0L404 0 M404 1L403 1 M404 0L405 0 M405 1L404 1 M405 0L406 0 M406 1L405 1 M406 0L407 0 M407 1L406 1 M407 0L408 0 M408 1L407 1 M408 0L409 0 M409 1L408 1 M409 0L410 0 M410 1L409 1 M410 0L411 0 M411 1L410 1 M411 0L412 0 M412 1L411 1 M412 0L413 0 M413 1L412 1 M413 0L414 0 M414 1L413 1 M414 0L415 0 M415 1L414 1 M415 0L416 0 M416 1L415 1 M416 0L417 0 M417 1L416 1 M417 0L418 0 M418 1L417 1 M418 0L419 0 M419 1L418 1 M419 0L420 0 M420 1L419 1 M420 0L421 0 M421 1L420 1 M421 0L422 0 M422 1L421 1 M422 0L423 0 M423 1L422 1 M423 0L424 0 M424 1L423 1 M424 0L425 0 M425 1L424 1 M425 0L426 0 M426 1L425 1 M426 0L427 0 M427 1L426 1 M427 0L428 0 M428 1L427 1 M428 0L429 0 M429 1L428 1 M429 0L430 0 M430 1L429 1 M430 0L431 0 M431 1L430 1 M431 0L432 0 M432 1L431 1 M432 0L433 0 M433 1L432 1 M433 0L434 0 M434 1L433 1 M434 0L435 0 M435 1L434 1 M435 0L436 0 M436 1L435 1 M436 0L437 0 M437 1L436 1 M437 0L438 0 M438 1L437 1 M438 0L439 0 M439 1L438 1 M439 0L440 0 M440 1L439 1 M440 0L441 0 M441 1L440 1 M441 0L442 0 M442 1L441 1 M442 0L443 0 M443 1L442 1 M443 0L444 0 M444 1L443 1 M444 0L445 0 M445 1L444 1 M445 0L446 0 M446 1L445 1 M446 0L447 0 M447 1L446 1 M447 0L448 0 M448 1L447 1 M448 0L449 0 M449 1L448 1 M449 0L450 0 M450 1L449 1 M450 0L451 0 M451 1L450 1 M451 0L452 0 M452 1L451 1 M452 0L453 0 M453 1L452 1 M453 0L454 0 M454 1L453 1 M454 0L455 0 M455 1L454 1 M455 0L456 0 M456 1L455 1 M456 0L457 0 M457 1L456 1 M457 0L458 0 M458 1L457 1 M458 0L459 0 M459 1L458 1 M459 0L460 0 M460 1L459 1 M460 0L461 0 M461 1L460 1 M461 0L462 0 M462 1L461 1 M462 0L463 0 M463 1L462 1 M463 0L464 0 M464 1L463 1 M464 0L465 0 M465 1L464 1 M465 0L466 0 M466 1L465 1 M466 0L467 0 M467 1L466 1 M467 0L468 0 M468 1L467 1 M468 0L469 0 M469 1L468 1 M469 0L470 0 M470 1L469 1 M470 0L471 0 M471 1L470 1 M471 0L472 0 M472 1L471 1 M472 0L473 0 M473 1L472 1 M473 0L474 0 M474 1L473 1 M474 0L475 0 M475 1L474 1 M475 0L476 0 M476 1L475 1 M476 0L477 0 M477 1L476 1 M477 0L478 0 M478 1L477 1 M478 0L479 0 M479 1L478 1 M479 0L480 0 M480 1L479 1 M480 0L481 0 M481 1L480 1 M481 0L482 0 M482 1L481 1 M482 0L483 0 M483 1L482 1 M483 0L484 0 M484 1L483 1 M484 0L485 0 M485 1L484 1 M485 0L486 0 M486 1L485 1 M486 0L487 0 M487 1L486 1 M487 0L488 0 M488 1L487 1 M488 0L489 0 M489 1L488 1 M489 0L490 0 M490 0L491 0 M491 0L492 0 M492 1L491 1 M492 0L493 0 M493 1L492 1 M493 0L494 0 M494 1L493 1 M494 0L495 0 M495 1L494 1 M495 0L496 0 M496 1L495 1 M496 0L497 0 M497 1L496 1 M497 0L498 0 M498 1L497 1 M498 0L499 0 M499 1L498 1 M499 0L500 0 M500 1L499 1 M500 0L501 0 M501 1L500 1 M501 0L502 0 M502 1L501 1 M502 0L503 0 M503 0L504 0 M504 0L505 0 M505 0L506 0 M506 0L507 0 M507 1L506 1 M507 0L508 0 M508 1L507 1 M508 0L509 0 M509 1L508 1 M509 0L510 0 M510 1L509 1 M510 0L511 0 M511 1L510 1 M511 0L512 0 M512 1L511 1 M512 0L513 0 M513 1L512 1 M513 0L514 0 M514 1L513 1 M514 0L515 0 M515 1L514 1 M515 0L516 0 M516 1L515 1 M516 0L517 0 M517 1L516 1 M517 0L518 0 M518 1L517 1 M518 0L519 0 M519 1L518 1 M519 0L520 0 M520 1L519 1 M520 0L521 0 M521 1L520 1 M521 0L522 0 M522 1L521 1 M522 0L523 0 M523 1L522 1 M523 0L524 0 M524 1L523 1 M524 0L525 0 M525 1L524 1 M525 0L526 0 M526 1L525 1 M526 0L527 0 M527 1L526 1 M527 0L528 0 M528 1L527 1 M528 0L529 0 M529 1L528 1 M529 0L530 0 M530 1L529 1 M530 0L531 0 M531 1L530 1 M531 0L532 0 M532 1L531 1 M532 0L533 0 M533 1L532 1 M533 0L534 0 M534 1L533 1 M534 0L535 0 M535 1L534 1 M535 0L536 0 M536 1L535 1 M536 0L537 0 M537 1L536 1 M537 0L538 0 M538 1L537 1 M538 0L539 0 M539 1L538 1 M539 0L540 0 M540 1L539 1 M540 0L541 0 M541 1L540 1 M541 0L542 0 M542 1L541 1 M542 0L543 0 M543 1L542 1 M543 0L544 0 M544 1L543 1 M544 0L545 0 M545 1L544 1 M545 0L546 0 M546 1L545 1 M546 0L547 0 M547 1L546 1 M547 0L548 0 M548 1L547 1 M548 0L549 0 M549 1L548 1 M549 0L550 0 M550 1L549 1 M550 0L551 0 M551 1L550 1 M551 0L552 0 M552 1L551 1 M552 0L553 0 M553 1L552 1 M553 0L554 0 M554 1L553 1 M554 0L555 0 M555 1L554 1 M555 0L556 0 M556 1L555 1 M556 0L557 0 M557 1L556 1 M557 0L558 0 M558 1L557 1 M558 0L559 0 M559 1L558 1 M559 0L560 0 M560 1L559 1 M560 0L561 0 M561 1L560 1 M561 0L562 0 M562 1L561 1 M562 0L563 0 M563 1L562 1 M563 0L564 0 M564 1L563 1 M564 0L565 0 M565 1L564 1 M565 0L566 0 M566 1L565 1 M566 0L567 0 M567 1L566 1 M567 0L568 0 M568 1L567 1 M568 0L569 0 M569 1L568 1 M569 0L570 0 M570 1L569 1 M570 0L571 0 M571 1L570 1 M571 0L572 0 M572 1L571 1 M572 0L573 0 M573 1L572 1 M573 0L574 0 M574 1L573 1 M574 0L575 0 M575 1L574 1 M575 0L576 0 M576 1L575 1 M576 0L577 0 M577 1L576 1 M577 0L578 0 M578 1L577 1 M578 0L579 0 M579 1L578 1 M579 0L580 0 M580 1L579 1 M580 0L581 0 M581 1L580 1 M581 0L582 0 M582 1L581 1 M582 0L583 0 M583 1L582 1 M583 0L584 0 M584 1L583 1 M584 0L585 0 M585 1L584 1 M585 0L586 0 M586 1L585 1 M586 0L587 0 M587 1L586 1 M587 0L588 0 M588 1L587 1 M588 0L589 0 M589 1L588 1 M589 0L590 0 M590 1L589 1 M590 0L591 0 M591 1L590 1 M591 0L592 0 M592 1L591 1 M592 0L593 0 M593 1L592 1 M593 0L594 0 M594 1L593 1 M594 0L595 0 M595 1L594 1 M595 0L596 0 M596 1L595 1 M596 0L597 0 M597 1L596 1 M597 0L598 0 M598 1L597 1 M598 0L599 0 M599 1L598 1 M599 0L600 0 M600 1L599 1 M600 0L601 0 M601 1L600 1 M601 0L602 0 M602 1L601 1 M602 0L603 0 M603 1L602 1 M603 0L604 0 M604 1L603 1 M604 0L605 0 M605 1L604 1 M605 0L606 0 M606 1L605 1 M606 0L607 0 M607 1L606 1 M607 0L608 0 M608 1L607 1 M608 0L609 0 M609 1L608 1 M609 0L610 0 M610 1L609 1 M610 0L611 0 M611 1L610 1 M611 0L612 0 M612 1L611 1 M612 0L613 0 M613 1L612 1 M613 0L614 0 M614 1L613 1 M614 0L615 0 M615 1L614 1 M615 0L616 0 M616 1L615 1 M616 0L617 0 M617 1L616 1 M617 0L618 0 M618 1L617 1 M618 0L619 0 M619 1L618 1 M619 0L620 0 M620 1L619 1 M620 0L621 0 M621 1L620 1 M621 0L622 0 M622 1L621 1 M622 0L623 0 M623 1L622 1 M623 0L624 0 M624 1L623 1 M624 0L625 0 M625 1L624 1 M625 0L626 0 M626 1L625 1 M626 0L627 0 M627 1L626 1 M627 0L628 0 M628 1L627 1 M628 0L629 0 M629 1L628 1 M629 0L630 0 M630 1L629 1 M630 0L631 0 M631 1L630 1 M631 0L632 0 M632 1L631 1 M632 0L633 0 M633 1L632 1 M633 0L634 0 M634 1L633 1 M634 0L635 0 M635 1L634 1 M635 0L636 0 M636 1L635 1 M636 0L637 0 M637 1L636 1 M637 0L638 0 M638 1L637 1 M638 0L639 0 M639 1L638 1 M639 0L640 0 M640 1L639 1 M640 0L641 0 M641 1L640 1 M641 0L642 0 M642 1L641 1 M642 0L643 0 M643 1L642 1 M643 0L644 0 M644 1L643 1 M644 0L645 0 M645 1L644 1 M645 0L646 0 M646 1L645 1 M646 0L647 0 M647 1L646 1 M647 0L648 0 M648 1L647 1 M648 0L649 0 M649 1L648 1 M649 0L650 0 M650 1L649 1 M650 0L651 0 M651 1L650 1 M651 0L652 0 M652 1L651 1 M652 0L653 0 M653 1L652 1 M653 0L654 0 M654 1L653 1 M654 0L655 0 M655 1L654 1 M655 0L656 0 M656 1L655 1 M656 0L657 0 M657 1L656 1 M657 0L658 0 M658 1L657 1 M658 0L659 0 M659 1L658 1 M659 0L660 0 M660 1L659 1 M660 0L661 0 M661 1L660 1 M661 0L662 0 M662 1L661 1 M662 0L663 0 M663 1L662 1 M663 0L664 0 M664 1L663 1 M664 0L665 0 M665 1L664 1 M665 0L666 0 M666 1L665 1 M666 0L667 0 M667 1L666 1 M667 0L668 0 M668 1L667 1 M668 0L669 0 M669 1L668 1 M669 0L670 0 M670 1L669 1 M670 0L671 0 M671 1L670 1 M671 0L672 0 M672 1L671 1 M672 0L673 0 M673 1L672 1 M673 0L674 0 M674 1L673 1 M674 0L675 0 M675 1L674 1 M675 0L676 0 M676 1L675 1 M676 0L677 0 M677 1L676 1 M677 0L678 0 M678 1L677 1 M678 0L679 0 M679 1L678 1 M679 0L680 0 M680 1L679 1 M680 0L681 0 M681 1L680 1 M681 0L682 0 M682 1L681 1 M682 0L683 0 M683 1L682 1 M683 0L684 0 M684 1L683 1 M684 0L685 0 M685 1L684 1 M685 0L686 0 M686 1L685 1 M686 0L687 0 M687 1L686 1 M687 0L688 0 M688 1L687 1 M688 0L689 0 M689 1L688 1 M689 0L690 0 M690 1L689 1 M690 0L691 0 M691 1L690 1 M691 0L692 0 M692 1L691 1 M692 0L693 0 M693 1L692 1 M693 0L694 0 M694 1L693 1 M694 0L695 0 M695 1L694 1 M695 0L696 0 M696 1L695 1 M696 0L697 0 M697 1L696 1 M697 0L698 0 M698 1L697 1 M698 0L699 0 M699 1L698 1 M699 0L700 0 M700 1L699 1 M700 0L701 0 M701 1L700 1 M701 0L702 0 M702 1L701 1 M702 0L703 0 M703 1L702 1 M703 0L704 0 M704 1L703 1 M704 0L705 0 M705 1L704 1 M705 0L706 0 M706 1L705 1 M706 0L707 0 M707 1L706 1 M707 0L708 0 M708 1L707 1 M708 0L709 0 M709 1L708 1 M709 0L710 0 M710 1L709 1 M710 0L711 0 M711 1L710 1 M711 0L712 0 M712 1L711 1 M712 0L713 0 M713 1L712 1 M713 0L714 0 M714 1L713 1 M714 0L715 0 M715 1L714 1 M715 0L716 0 M716 1L715 1 M716 0L717 0 M717 1L716 1 M717 0L718 0 M718 1L717 1 M718 0L719 0 M719 1L718 1 M719 0L720 0 M720 1L719 1 M720 0L721 0 M721 1L720 1 M721 0L722 0 M722 1L721 1 M722 0L723 0 M723 1L722 1 M723 0L724 0 M724 1L723 1 M724 0L725 0 M725 1L724 1 M725 0L726 0 M726 1L725 1 M726 0L727 0 M727 1L726 1 M727 0L728 0 M728 1L727 1 M728 0L729 0 M729 1L728 1 M729 0L730 0 M730 1L729 1 M730 0L731 0 M731 1L730 1 M731 0L732 0 M732 1L731 1 M732 0L733 0 M733 1L732 1 M733 0L734 0 M734 1L733 1 M734 0L735 0 M735 1L734 1 M735 0L736 0 M736 1L735 1 M736 0L737 0 M737 1L736 1 M737 0L738 0 M738 1L737 1 M738 0L739 0 M739 1L738 1 M739 0L740 0 M740 1L739 1 M740 0L741 0 M741 1L740 1 M741 0L742 0 M742 1L741 1 M742 0L743 0 M743 1L742 1 M743 0L744 0 M744 1L743 1 M744 0L745 0 M745 1L744 1 M745 0L746 0 M746 1L745 1 M746 0L747 0 M747 1L746 1 M747 0L748 0 M748 1L747 1 M748 0L749 0 M749 1L748 1 M749 0L750 0 M750 1L749 1 M750 0L751 0 M751 1L750 1 M751 0L752 0 M752 1L751 1 M752 0L753 0 M753 1L752 1 M753 0L754 0 M754 1L753 1 M754 0L755 0 M755 1L754 1 M755 0L756 0 M756 1L755 1 M756 0L757 0 M757 1L756 1 M757 0L758 0 M758 1L757 1 M758 0L759 0 M759 1L758 1 M759 0L760 0 M760 1L759 1 M760 0L761 0 M761 1L760 1 M761 0L762 0 M762 1L761 1 M762 0L763 0 M763 1L762 1 M763 0L764 0 M764 1L763 1 M764 0L765 0 M765 1L764 1 M765 0L766 0 M766 1L765 1 M766 0L767 0 M767 1L766 1 M767 0L768 0 M768 1L767 1 M768 0L769 0 M769 1L768 1 M769 0L770 0 M770 1L769 1 M770 0L771 0 M771 1L770 1 M771 0L772 0 M772 1L771 1 M772 0L773 0 M773 1L772 1 M773 0L774 0 M774 1L773 1 M774 0L775 0 M775 1L774 1 M775 0L776 0 M776 1L775 1 M776 0L777 0 M777 1L776 1 M777 0L778 0 M778 1L777 1 M778 0L779 0 M779 1L778 1 M779 0L780 0 M780 0L781 0 M781 0L782 0 M782 0L783 0 M783 0L784 0 M784 0L785 0 M785 0L786 0 M786 0L787 0 M787 0L788 0 M788 0L789 0 M789 0L790 0 M790 0L791 0 M791 0L792 0 M792 0L793 0 M793 0L794 0 M794 0L795 0 M795 0L796 0 M796 0L797 0 M797 0L798 0 M798 0L799 0 M799 0L800 0 M800 0L801 0 M801 0L802 0 M802 0L803 0 M803 0L804 0 M804 0L805 0 M805 0L806 0 M806 0L807 0 M807 0L808 0 M808 0L809 0 M809 0L810 0 M810 0L811 0 M811 0L812 0 M812 0L813 0 M813 0L814 0 M814 0L815 0 M815 0L816 0 M816 0L817 0 M817 0L818 0 M818 0L819 0 M819 0L820 0 M820 0L821 0 M821 0L822 0 M822 0L823 0 M823 0L824 0 M824 0L825 0 M825 0L826 0 M826 0L827 0 M827 0L828 0 M828 0L829 0 M829 0L830 0 M830 0L831 0 M831 0L832 0 M832 0L833 0 M833 0L834 0 M834 0L835 0 M835 0L836 0 M836 0L837 0 M837 0L838 0 M838 1L837 1 M838 0L839 0 M839 1L838 1 M839 0L840 0 M840 1L839 1 M840 0L841 0 M841 1L840 1 M841 0L842 0 M842 1L841 1 M842 0L843 0 M843 1L842 1 M843 0L844 0 M844 1L843 1 M844 0L845 0 M845 1L844 1 M845 0L846 0 M846 1L845 1 M846 0L847 0 M847 1L846 1 M847 0L848 0 M848 1L847 1 M848 0L849 0 M849 1L848 1 M849 0L850 0 M850 1L849 1 M850 0L851 0 M851 1L850 1 M851 0L852 0 M852 1L851 1 M852 0L853 0 M853 1L852 1 M853 0L854 0 M854 1L853 1 M854 0L855 0 M855 1L854 1 M855 0L856 0 M856 1L855 1 M856 0L857 0 M857 1L856 1 M857 0L858 0 M858 1L857 1 M858 0L859 0 M859 1L858 1 M859 0L860 0 M860 1L859 1 M860 0L861 0 M861 1L860 1 M861 0L862 0 M862 1L861 1 M862 0L863 0 M863 1L862 1 M863 0L864 0 M864 1L863 1 M864 0L865 0 M865 1L864 1 M865 0L866 0 M866 1L865 1 M866 0L867 0 M867 1L866 1 M867 0L868 0 M868 1L867 1 M868 0L869 0 M869 1L868 1 M869 0L870 0 M870 1L869 1 M870 0L871 0 M871 1L870 1 M871 0L872 0 M872 1L871 1 M872 0L873 0 M873 1L872 1 M873 0L874 0 M874 1L873 1 M874 0L875 0 M875 1L874 1 M875 0L876 0 M876 1L875 1 M876 0L877 0 M877 1L876 1 M877 0L878 0 M878 1L877 1 M878 0L879 0 M879 1L878 1 M879 0L880 0 M880 1L879 1 M880 0L881 0 M881 1L880 1 M881 0L882 0 M882 1L881 1 M882 0L883 0 M883 1L882 1 M883 0L884 0 M884 1L883 1 M884 0L885 0 M885 1L884 1 M885 0L886 0 M886 1L885 1 M886 0L887 0 M887 1L886 1 M887 0L888 0 M888 1L887 1 M888 0L889 0 M889 1L888 1 M889 0L890 0 M890 1L889 1 M890 0L891 0 M891 1L890 1 M891 0L892 0 M892 1L891 1 M892 0L893 0 M893 1L892 1 M893 0L894 0 M894 1L893 1 M894 0L895 0 M895 1L894 1 M895 0L896 0 M896 1L895 1 M896 0L897 0 M897 1L896 1 M897 0L898 0 M898 1L897 1 M898 0L899 0 M899 1L898 1 M899 0L900 0 M900 1L899 1 M900 0L901 0 M901 1L900 1 M901 0L902 0 M902 1L901 1 M902 0L903 0 M903 1L902 1 M903 0L904 0 M904 1L903 1 M904 0L905 0 M905 1L904 1 M905 0L906 0 M906 1L905 1 M906 0L907 0 M907 1L906 1 M907 0L908 0 M908 1L907 1 M908 0L909 0 M909 1L908 1 M909 0L910 0 M910 1L909 1 M910 0L911 0 M911 1L910 1 M911 0L912 0 M912 1L911 1 M912 0L913 0 M913 1L912 1 M913 0L914 0 M914 1L913 1 M914 0L915 0 M915 1L914 1 M915 0L916 0 M916 1L915 1 M916 0L917 0 M917 1L916 1 M917 0L918 0 M918 1L917 1 M918 0L919 0 M919 1L918 1 M919 0L920 0 M920 1L919 1 M920 0L921 0 M921 1L920 1 M921 0L922 0 M922 1L921 1 M922 0L923 0 M923 1L922 1 M923 0L924 0 M924 1L923 1 M924 0L925 0 M925 1L924 1 M925 0L926 0 M926 1L925 1 M926 0L927 0 M927 1L926 1 M927 0L928 0 M928 1L927 1 M928 0L929 0 M929 1L928 1 M929 0L930 0 M930 1L929 1 M930 0L931 0 M931 1L930 1 M931 0L932 0 M932 1L931 1 M932 0L933 0 M933 1L932 1 M933 0L934 0 M934 1L933 1 M934 0L935 0 M935 1L934 1 M935 0L936 0 M936 1L935 1 M936 0L937 0 M937 1L936 1 M937 0L938 0 M938 1L937 1 M938 0L939 0 M939 1L938 1 M939 0L940 0 M940 1L939 1 M940 0L941 0 M941 1L940 1 M941 0L942 0 M942 1L941 1 M942 0L943 0 M943 1L942 1 M943 0L944 0 M944 1L943 1 M944 0L945 0 M945 1L944 1 M945 0L946 0 M946 1L945 1 M946 0L947 0 M947 1L946 1 M947 0L948 0 M948 1L947 1 M948 0L949 0 M949 1L948 1 M949 0L950 0 M950 1L949 1 M950 0L951 0 M951 1L950 1 M951 0L952 0 M952 1L951 1 M952 0L953 0 M953 1L952 1 M953 0L954 0 M954 1L953 1 M954 0L955 0 M955 1L954 1 M955 0L956 0 M956 1L955 1 M956 0L957 0 M957 1L956 1 M957 0L958 0 M958 1L957 1 M958 0L959 0 M959 1L958 1 M959 0L960 0 M960 1L959 1 M960 0L961 0 M961 1L960 1 M961 0L962 0 M962 1L961 1 M962 0L963 0 M963 1L962 1 M963 0L964 0 M964 1L963 1 M964 0L965 0 M965 1L964 1 M965 0L966 0 M966 1L965 1 M966 0L967 0 M967 1L966 1 M967 0L968 0 M968 1L967 1 M968 0L969 0 M969 1L968 1 M969 0L970 0 M970 1L969 1 M970 0L971 0 M971 1L970 1 M971 0L972 0 M972 1L971 1 M972 0L973 0 M973 1L972 1 M973 0L974 0 M974 1L973 1 M974 0L975 0 M975 1L974 1 M975 0L976 0 M976 1L975 1 M976 0L977 0 M977 1L976 1 M977 0L978 0 M978 1L977 1 M978 0L979 0 M979 1L978 1 M979 0L980 0 M980 1L979 1 M980 0L981 0 M981 1L980 1 M981 0L982 0 M982 1L981 1 M982 0L983 0 M983 1L982 1 M983 0L984 0 M984 1L983 1 M984 0L985 0 M985 1L984 1 M985 0L986 0 M986 1L985 1 M986 0L987 0 M987 1L986 1 M987 0L988 0 M988 1L987 1 M988 0L989 0 M989 1L988 1 M989 0L990 0 M990 1L989 1 M990 0L991 0 M991 1L990 1 M991 0L992 0 M992 1L991 1 M992 0L993 0 M993 1L992 1 M993 0L994 0 M994 1L993 1 M994 0L995 0 M995 1L994 1 M995 0L996 0 M996 1L995 1 M996 0L997 0 M997 1L996 1 M997 0L998 0 M998 1L997 1 M998 0L999 0 M999 1L998 1 M999 0L1000 0 M1000 1L999 1 M1000 0L1001 0 M1001 1L1000 1 M1001 0L1002 0 M1002 1L1001 1 M1002 0L1003 0 M1003 1L1002 1 M1003 0L1004 0 M1004 1L1003 1 M1004 0L1005 0 M1005 1L1004 1 M1005 0L1006 0 M1006 1L1005 1 M1006 0L1007 0 M1007 1L1006 1 M1007 0L1008 0 M1008 1L1007 1 M1008 0L1009 0 M1009 1L1008 1 M1009 0L1010 0 M1010 1L1009 1 M1010 0L1011 0 M1011 1L1010 1 M1011 0L1012 0 M1012 1L1011 1 M1012 0L1013 0 M1013 1L1012 1 M1013 0L1014 0 M1014 1L1013 1 M1014 0L1015 0 M1015 1L1014 1 M1015 0L1016 0 M1016 1L1015 1 M1016 0L1017 0 M1017 1L1016 1 M1017 0L1018 0 M1018 1L1017 1 M1018 0L1019 0 M1019 1L1018 1 M1019 0L1020 0 M1020 1L1019 1 M1020 0L1021 0 M1021 1L1020 1 M1021 0L1022 0 M1022 1L1021 1 M1022 0L1023 0 M1023 1L1022 1 M1023 0L1024 0 M1024 1L1023 1 M1024 0L1025 0 M1025 1L1024 1 M1025 0L1026 0 M1026 1L1025 1 M1026 0L1027 0 M1027 1L1026 1 M1027 0L1028 0 M1028 1L1027 1 M1028 0L1029 0 M1029 1L1028 1 M1029 0L1030 0 M1030 1L1029 1 M1030 0L1031 0 M1031 1L1030 1 M1031 0L1032 0 M1032 1L1031 1 M1032 0L1033 0 M1033 1L1032 1 M1033 0L1034 0 M1034 1L1033 1 M1034 0L1035 0 M1035 1L1034 1 M1035 0L1036 0 M1036 1L1035 1 M1036 0L1037 0 M1037 1L1036 1 M1037 0L1038 0 M1038 1L1037 1 M1038 0L1039 0 M1039 1L1038 1 M1039 0L1040 0 M1040 1L1039 1 M1040 0L1041 0 M1041 1L1040 1 M1041 0L1042 0 M1042 1L1041 1 M1042 0L1043 0 M1043 1L1042 1 M1043 0L1044 0 M1044 1L1043 1 M1044 0L1045 0 M1045 1L1044 1 M1045 0L1046 0 M1046 1L1045 1 M1046 0L1047 0 M1047 1L1046 1 M1047 0L1048 0 M1048 1L1047 1 M1048 0L1049 0 M1049 1L1048 1 M1049 0L1050 0 M1050 1L1049 1 M1050 0L1051 0 M1051 1L1050 1 M1051 0L1052 0 M1052 1L1051 1 M1052 0L1053 0 M1053 1L1052 1 M1053 0L1054 0 M1054 1L1053 1 M1054 0L1055 0 M1055 1L1054 1 M1055 0L1056 0 M1056 1L1055 1 M1056 0L1057 0 M1057 1L1056 1 M1057 0L1058 0 M1058 1L1057 1 M1058 0L1059 0 M1059 1L1058 1 M1059 0L1060 0 M1060 1L1059 1 M1060 0L1061 0 M1061 1L1060 1 M1061 0L1062 0 M1062 1L1061 1 M1062 0L1063 0 M1063 1L1062 1 M1063 0L1064 0 M1064 1L1063 1 M1064 0L1065 0 M1065 1L1064 1 M1065 0L1066 0 M1066 1L1065 1 M1066 0L1067 0 M1067 1L1066 1 M1067 0L1068 0 M1068 1L1067 1 M1068 0L1069 0 M1069 1L1068 1 M1069 0L1070 0 M1070 1L1069 1 M1070 0L1071 0 M1071 1L1070 1 M1071 0L1072 0 M1072 1L1071 1 M1072 0L1073 0 M1073 1L1072 1 M1073 0L1074 0 M1074 1L1073 1 M1074 0L1075 0 M1075 1L1074 1 M1075 0L1076 0 M1076 1L1075 1 M1076 0L1077 0 M1077 1L1076 1 M1077 0L1078 0 M1078 1L1077 1 M1078 0L1079 0 M1079 1L1078 1 M1079 0L1080 0 M1080 1L1079 1 M1080 0L1081 0 M1081 1L1080 1 M1081 0L1082 0 M1082 1L1081 1 M1082 0L1083 0 M1083 1L1082 1 M1083 0L1084 0 M1084 1L1083 1 M1084 0L1085 0 M1085 1L1084 1 M1085 0L1086 0 M1086 1L1085 1 M1086 0L1087 0 M1087 1L1086 1 M1087 0L1088 0 M1088 1L1087 1 M1088 0L1089 0 M1089 1L1088 1 M1089 0L1090 0 M1090 1L1089 1 M1090 0L1091 0 M1091 1L1090 1 M1091 0L1092 0 M1092 1L1091 1 M1092 0L1093 0 M1093 1L1092 1 M1093 0L1094 0 M1094 1L1093 1 M1094 0L1095 0 M1095 1L1094 1 M1095 0L1096 0 M1096 1L1095 1 M1096 0L1097 0 M1097 1L1096 1 M1097 0L1098 0 M1098 1L1097 1 M1098 0L1099 0 M1099 1L1098 1 M1099 0L1100 0 M1100 1L1099 1 M1100 0L1101 0 M1101 1L1100 1 M1101 0L1102 0 M1102 1L1101 1 M1102 0L1103 0 M1103 1L1102 1 M1103 0L1104 0 M1104 1L1103 1 M1104 0L1105 0 M1105 1L1104 1 M1105 0L1106 0 M1106 1L1105 1 M1106 0L1107 0 M1107 1L1106 1 M1107 0L1108 0 M1108 1L1107 1 M1108 0L1109 0 M1109 1L1108 1 M1109 0L1110 0 M1110 1L1109 1 M1110 0L1111 0 M1111 1L1110 1 M1111 0L1112 0 M1112 1L1111 1 M1112 0L1113 0 M1113 1L1112 1 M1113 0L1114 0 M1114 1L1113 1 M1114 0L1115 0 M1115 1L1114 1 M1115 0L1116 0 M1116 1L1115 1 M1116 0L1117 0 M1117 1L1116 1 M1117 0L1118 0 M1118 1L1117 1 M1118 0L1119 0 M1119 1L1118 1 M1119 0L1120 0 M1120 1L1119 1 M1120 0L1121 0 M1121 1L1120 1 M1121 0L1122 0 M1122 1L1121 1 M1122 0L1123 0 M1123 1L1122 1 M1123 0L1124 0 M1124 1L1123 1 M1124 0L1125 0 M1125 1L1124 1 M1125 0L1126 0 M1126 1L1125 1 M1126 0L1127 0 M1127 1L1126 1 M1127 0L1128 0 M1128 1L1127 1 M1128 0L1129 0 M1129 0L1130 0 M1130 1L1129 1 M1130 0L1131 0 M1131 1L1130 1 M1131 0L1132 0 M1132 0L1132 1 M1132 1L1131 1 M489 2L489 1 M491 1L491 2 M502 2L502 1 M506 1L506 2 M779 2L779 1 M837 1L837 2 M1129 1L1129 2 M1129 2L1128 2 M1128 2L1128 1 M488 2L489 2 M488 3L488 2 M491 2L491 3 M491 3L490 3 M502 3L502 2 M506 2L507 2 M507 2L507 3 M779 3L779 2 M836 3L835 3 M837 2L837 3 M837 3L836 3 M488 4L488 3 M490 3L490 4 M490 4L489 4 M501 3L502 3 M501 4L501 3 M507 3L508 3 M508 3L509 3 M509 3L509 4 M778 3L779 3 M778 4L778 3 M835 3L835 4 M487 4L488 4 M487 5L487 4 M489 4L489 5 M501 5L501 4 M509 4L510 4 M510 4L510 5 M778 5L778 4 M835 4L835 5 M835 5L834 5 M487 6L487 5 M489 5L489 6 M489 6L488 6 M501 6L501 5 M510 5L511 5 M511 5L511 6 M778 6L778 5 M834 5L834 6 M834 6L833 6 M488 6L488 7 M487 7L487 6 M500 6L501 6 M501 7L500 7 M500 7L500 6 M511 6L512 6 M512 6L512 7 M778 7L778 6 M833 6L833 7 M488 7L488 8 M488 8L487 8 M487 8L487 7 M501 8L501 7 M511 8L510 8 M512 7L512 8 M512 8L511 8 M778 8L778 7 M832 8L831 8 M833 7L833 8 M833 8L832 8 M502 9L501 9 M501 9L501 8 M509 9L508 9 M510 8L510 9 M510 9L509 9 M777 8L778 8 M777 9L777 8 M831 8L831 9 M831 9L830 9 M502 10L502 9 M508 9L508 10 M776 9L777 9 M776 10L776 9 M830 9L830 10 M499 10L500 10 M499 11L499 10 M500 10L501 10 M501 10L502 10 M508 10L509 10 M509 10L509 11 M776 11L776 10 M830 10L830 11 M830 11L829 11 M498 11L499 11 M498 12L498 11 M509 11L509 12 M776 12L776 11 M829 11L829 12 M829 12L828 12 M498 13L498 12 M509 12L510 12 M510 12L511 12 M511 12L511 13 M775 12L776 12 M775 13L775 12 M828 12L828 13 M497 13L498 13 M497 14L497 13 M511 13L511 14 M775 14L775 13 M828 13L828 14 M828 14L827 14 M497 15L497 14 M511 14L512 14 M512 14L512 15 M775 15L775 14 M827 14L827 15 M496 15L497 15 M496 16L496 15 M512 15L512 16 M774 15L775 15 M774 16L774 15 M827 15L827 16 M827 16L826 16 M496 17L496 16 M512 16L512 17 M512 17L511 17 M774 17L774 16 M826 16L826 17 M826 17L825 17 M495 17L496 17 M495 18L495 17 M511 17L511 18 M511 18L510 18 M774 18L774 17 M825 17L825 18 M495 19L495 18 M508 19L507 19 M509 19L508 19 M510 18L510 19 M510 19L509 19 M773 18L774 18 M773 19L773 18 M825 18L825 19 M825 19L824 19 M494 19L495 19 M494 20L494 19 M507 19L507 20 M507 20L506 20 M773 20L773 19 M824 19L824 20 M494 21L494 20 M506 20L506 21 M773 21L773 20 M824 20L824 21 M824 21L823 21 M493 21L494 21 M493 22L493 21 M506 21L507 21 M507 21L507 22 M772 21L773 21 M772 22L772 21 M823 21L823 22 M823 22L822 22 M493 23L493 22 M507 22L507 23 M772 23L772 22 M822 22L822 23 M822 23L821 23 M493 24L493 23 M507 23L508 23 M508 23L508 24 M772 24L772 23 M821 23L821 24 M821 24L820 24 M493 25L493 24 M508 24L509 24 M509 24L509 25 M509 25L508 25 M771 24L772 24 M771 25L771 24 M820 24L820 25 M493 26L493 25 M506 26L505 26 M507 26L506 26 M508 25L508 26 M508 26L507 26 M771 26L771 25 M820 25L820 26 M820 26L819 26 M491 26L492 26 M491 27L491 26 M492 26L493 26 M504 27L503 27 M505 26L505 27 M505 27L504 27 M771 27L771 26 M819 26L819 27 M491 28L491 27 M503 27L503 28 M503 28L502 28 M770 27L771 27 M770 28L770 27 M819 27L819 28 M819 28L818 28 M491 29L491 28 M502 28L502 29 M502 29L501 29 M770 29L770 28 M818 28L818 29 M818 29L817 29 M491 30L491 29 M501 29L501 30 M769 29L770 29 M769 30L769 29 M817 29L817 30 M817 30L816 30 M491 31L491 30 M501 30L501 31 M769 31L769 30 M816 30L816 31 M490 31L491 31 M490 32L490 31 M501 31L501 32 M768 31L769 31 M768 32L768 31 M816 31L816 32 M489 32L490 32 M489 33L489 32 M501 32L501 33 M501 33L500 33 M768 33L768 32 M816 32L816 33 M816 33L815 33 M488 33L489 33 M488 34L488 33 M500 33L500 34 M500 34L499 34 M768 34L768 33 M815 33L815 34 M815 34L814 34 M487 34L488 34 M487 35L487 34 M499 34L499 35 M768 35L768 34 M814 34L814 35 M488 36L487 36 M487 36L487 35 M499 35L499 36 M499 36L498 36 M767 35L768 35 M767 36L767 35 M814 35L814 36 M814 36L813 36 M488 37L488 36 M498 36L498 37 M767 37L767 36 M813 36L813 37 M488 38L488 37 M498 37L498 38 M766 37L767 37 M766 38L766 37 M813 37L813 38 M813 38L812 38 M489 39L488 39 M488 39L488 38 M498 38L498 39 M498 39L497 39 M766 39L766 38 M812 38L812 39 M490 40L489 40 M489 40L489 39 M497 39L497 40 M497 40L496 40 M765 39L766 39 M765 40L765 39 M812 39L812 40 M812 40L811 40 M491 41L490 41 M490 41L490 40 M492 41L491 41 M493 41L492 41 M494 41L493 41 M495 41L494 41 M496 40L496 41 M496 41L495 41 M765 41L765 40 M811 40L811 41 M765 42L765 41 M811 41L811 42 M811 42L810 42 M764 42L765 42 M764 43L764 42 M810 42L810 43 M764 44L764 43 M810 43L810 44 M810 44L809 44 M764 45L764 44 M809 44L809 45 M763 45L764 45 M763 46L763 45 M809 45L809 46 M809 46L808 46 M763 47L763 46 M808 46L808 47 M808 47L807 47 M763 48L763 47 M807 47L807 48 M762 48L763 48 M762 49L762 48 M807 48L807 49 M807 49L806 49 M762 50L762 49 M806 49L806 50 M761 50L762 50 M761 51L761 50 M806 50L806 51 M806 51L805 51 M761 52L761 51 M805 51L805 52 M760 52L761 52 M760 53L760 52 M805 52L805 53 M805 53L804 53 M760 54L760 53 M804 53L804 54 M760 55L760 54 M804 54L804 55 M759 55L760 55 M759 56L759 55 M804 55L804 56 M743 56L744 56 M744 56L744 57 M743 57L743 56 M759 57L759 56 M804 56L804 57 M742 57L743 57 M742 58L742 57 M744 57L745 57 M745 57L746 57 M746 57L747 57 M747 57L748 57 M748 57L749 57 M749 57L750 57 M750 57L751 57 M751 57L752 57 M752 57L753 57 M753 57L754 57 M754 57L755 57 M755 57L756 57 M756 57L757 57 M757 57L758 57 M758 57L759 57 M804 57L804 58 M807 57L808 57 M807 58L807 57 M808 57L809 57 M809 57L810 57 M810 57L811 57 M811 57L812 57 M812 57L813 57 M813 57L813 58 M817 57L818 57 M817 58L817 57 M818 57L819 57 M819 57L820 57 M820 57L821 57 M821 57L822 57 M822 57L822 58 M741 58L742 58 M741 59L741 58 M804 58L804 59 M806 58L807 58 M806 59L806 58 M813 58L814 58 M814 58L814 59 M816 58L817 58 M816 59L816 58 M822 58L822 59 M741 60L741 59 M804 59L805 59 M805 59L806 59 M814 59L814 60 M816 60L816 59 M822 59L823 59 M823 59L823 60 M740 60L741 60 M740 61L740 60 M814 60L815 60 M815 60L816 60 M823 60L823 61 M740 62L740 61 M823 61L823 62 M740 63L740 62 M823 62L823 63 M740 64L740 63 M823 63L823 64 M740 65L740 64 M823 64L823 65 M740 66L740 65 M823 65L824 65 M824 65L824 66 M740 67L740 66 M824 66L824 67 M739 67L740 67 M739 68L739 67 M824 67L824 68 M739 69L739 68 M824 68L824 69 M824 69L823 69 M738 69L739 69 M738 70L738 69 M815 70L814 70 M816 70L815 70 M823 69L823 70 M738 71L738 70 M806 71L805 71 M807 71L806 71 M814 70L814 71 M814 71L813 71 M817 71L816 71 M816 71L816 70 M823 70L823 71 M737 71L738 71 M737 72L737 71 M805 71L805 72 M805 72L804 72 M808 72L807 72 M807 72L807 71 M813 71L813 72 M817 72L817 71 M823 71L823 72 M823 72L822 72 M737 73L737 72 M745 73L744 73 M746 73L745 73 M747 73L746 73 M755 73L754 73 M756 73L755 73 M759 73L758 73 M800 73L799 73 M801 73L800 73 M802 73L801 73 M803 73L802 73 M804 72L804 73 M804 73L803 73 M809 73L808 73 M808 73L808 72 M810 73L809 73 M811 73L810 73 M812 73L811 73 M813 72L813 73 M813 73L812 73 M818 73L817 73 M817 73L817 72 M819 73L818 73 M820 73L819 73 M821 73L820 73 M822 72L822 73 M822 73L821 73 M738 74L737 74 M737 74L737 73 M744 73L744 74 M748 74L747 74 M747 74L747 73 M754 73L754 74 M754 74L753 74 M757 74L756 74 M756 74L756 73 M758 73L758 74 M758 74L757 74 M759 74L759 73 M799 73L799 74 M799 74L798 74 M739 75L738 75 M738 75L738 74 M743 75L742 75 M744 74L744 75 M744 75L743 75 M749 75L748 75 M748 75L748 74 M752 75L751 75 M753 74L753 75 M753 75L752 75 M759 75L759 74 M798 74L798 75 M740 76L739 76 M739 76L739 75 M741 76L740 76 M742 75L742 76 M742 76L741 76 M750 76L749 76 M749 76L749 75 M751 75L751 76 M751 76L750 76 M759 76L759 75 M798 75L798 76 M759 77L759 76 M798 76L798 77 M798 77L797 77 M759 78L759 77 M797 77L797 78 M759 79L759 78 M797 78L797 79 M759 80L759 79 M797 79L797 80 M759 81L759 80 M797 80L797 81 M759 82L759 81 M797 81L797 82 M760 83L759 83 M759 83L759 82 M797 82L797 83 M760 84L760 83 M797 83L798 83 M798 83L798 84 M760 85L760 84 M798 84L798 85 M760 86L760 85 M798 85L798 86 M760 87L760 86 M798 86L799 86 M799 86L799 87 M760 88L760 87 M799 87L799 88 M760 89L760 88 M799 88L799 89 M760 90L760 89 M799 89L799 90 M760 91L760 90 M799 90L799 91 M760 92L760 91 M799 91L799 92 M760 93L760 92 M799 92L799 93 M760 94L760 93 M799 93L799 94 M760 95L760 94 M799 94L799 95 M760 96L760 95 M799 95L799 96 M760 97L760 96 M799 96L800 96 M800 96L800 97 M760 98L760 97 M800 97L800 98 M760 99L760 98 M800 98L800 99 M760 100L760 99 M800 99L800 100 M760 101L760 100 M800 100L800 101 M761 102L760 102 M760 102L760 101 M800 101L800 102 M761 103L761 102 M800 102L801 102 M801 102L801 103 M761 104L761 103 M801 103L801 104 M761 105L761 104 M801 104L801 105 M761 106L761 105 M801 105L801 106 M761 107L761 106 M801 106L801 107 M761 108L761 107 M801 107L801 108 M761 109L761 108 M801 108L801 109 M761 110L761 109 M801 109L801 110 M761 111L761 110 M801 110L802 110 M802 110L802 111 M761 112L761 111 M802 111L802 112 M761 113L761 112 M802 112L802 113 M761 114L761 113 M802 113L802 114 M761 115L761 114 M802 114L802 115 M761 116L761 115 M802 115L802 116 M761 117L761 116 M802 116L802 117 M761 118L761 117 M802 117L802 118 M761 119L761 118 M802 118L802 119 M761 120L761 119 M802 119L802 120 M761 121L761 120 M802 120L803 120 M803 120L803 121 M761 122L761 121 M803 121L803 122 M761 123L761 122 M803 122L803 123 M761 124L761 123 M803 123L803 124 M761 125L761 124 M803 124L803 125 M761 126L761 125 M803 125L803 126 M761 127L761 126 M803 126L803 127 M761 128L761 127 M803 127L803 128 M761 129L761 128 M803 128L803 129 M761 130L761 129 M803 129L803 130 M761 131L761 130 M803 130L804 130 M804 130L804 131 M761 132L761 131 M804 131L804 132 M761 133L761 132 M804 132L804 133 M760 133L761 133 M760 134L760 133 M804 133L804 134 M760 135L760 134 M804 134L804 135 M760 136L760 135 M804 135L804 136 M760 137L760 136 M804 136L804 137 M760 138L760 137 M804 137L805 137 M805 137L805 138 M760 139L760 138 M805 138L805 139 M759 139L760 139 M760 140L759 140 M759 140L759 139 M805 139L805 140 M760 141L760 140 M805 140L805 141 M759 141L760 141 M759 142L759 141 M805 141L805 142 M759 143L759 142 M805 142L805 143 M759 144L759 143 M805 143L805 144 M759 145L759 144 M805 144L805 145 M759 146L759 145 M805 145L805 146 M759 147L759 146 M805 146L805 147 M759 148L759 147 M805 147L805 148 M759 149L759 148 M805 148L805 149 M758 149L759 149 M758 150L758 149 M805 149L805 150 M758 151L758 150 M805 150L805 151 M758 152L758 151 M805 151L805 152 M758 153L758 152 M805 152L805 153 M758 154L758 153 M805 153L805 154 M805 154L804 154 M758 155L758 154 M804 154L804 155 M758 156L758 155 M804 155L804 156 M758 157L758 156 M804 156L804 157 M758 158L758 157 M804 157L804 158 M758 159L758 158 M804 158L804 159 M758 160L758 159 M804 159L804 160 M758 161L758 160 M804 160L804 161 M757 161L758 161 M757 162L757 161 M804 161L804 162 M756 162L757 162 M756 163L756 162 M804 162L804 163 M756 164L756 163 M804 163L804 164 M756 165L756 164 M804 164L804 165 M756 166L756 165 M804 165L804 166 M756 167L756 166 M804 166L804 167 M756 168L756 167 M804 167L804 168 M756 169L756 168 M804 168L804 169 M756 170L756 169 M804 169L804 170 M756 171L756 170 M804 170L804 171 M756 172L756 171 M804 171L804 172 M756 173L756 172 M804 172L804 173 M804 173L803 173 M756 174L756 173 M803 173L803 174 M756 175L756 174 M803 174L803 175 M756 176L756 175 M803 175L803 176 M756 177L756 176 M803 176L803 177 M756 178L756 177 M803 177L803 178 M756 179L756 178 M803 178L803 179 M756 180L756 179 M803 179L803 180 M803 180L802 180 M756 181L756 180 M802 180L802 181 M756 182L756 181 M802 181L802 182 M756 183L756 182 M802 182L802 183 M756 184L756 183 M802 183L802 184 M756 185L756 184 M802 184L802 185 M755 185L756 185 M755 186L755 185 M802 185L802 186 M802 186L801 186 M755 187L755 186 M801 186L801 187 M754 187L755 187 M754 188L754 187 M801 187L801 188 M754 189L754 188 M801 188L801 189 M753 189L754 189 M753 190L753 189 M801 189L801 190 M753 191L753 190 M801 190L801 191 M752 191L753 191 M752 192L752 191 M801 191L801 192 M801 192L800 192 M750 192L751 192 M750 193L750 192 M751 192L752 192 M800 192L800 193 M750 194L750 193 M800 193L800 194 M749 194L750 194 M749 195L749 194 M800 194L800 195 M749 196L749 195 M800 195L800 196 M748 196L749 196 M748 197L748 196 M800 196L800 197 M748 198L748 197 M800 197L800 198 M747 198L748 198 M747 199L747 198 M800 198L800 199 M746 199L747 199 M746 200L746 199 M800 199L800 200 M745 200L746 200 M745 201L745 200 M800 200L800 201 M745 202L745 201 M800 201L800 202 M744 202L745 202 M744 203L744 202 M800 202L800 203 M743 203L744 203 M743 204L743 203 M800 203L800 204 M800 204L799 204 M743 205L743 204 M799 204L799 205 M743 206L743 205 M799 205L799 206 M742 206L743 206 M742 207L742 206 M799 206L799 207 M741 207L742 207 M741 208L741 207 M799 207L799 208 M740 208L741 208 M740 209L740 208 M799 208L799 209 M740 210L740 209 M799 209L799 210 M738 210L739 210 M738 211L738 210 M739 210L740 210 M799 210L799 211 M799 211L798 211 M738 212L738 211 M798 211L798 212 M737 212L738 212 M737 213L737 212 M798 212L798 213 M737 214L737 213 M798 213L798 214 M736 214L737 214 M736 215L736 214 M798 214L798 215 M735 215L736 215 M735 216L735 215 M798 215L798 216 M734 216L735 216 M734 217L734 216 M798 216L798 217 M734 218L734 217 M798 217L798 218 M733 218L734 218 M733 219L733 218 M798 218L798 219 M733 220L733 219 M798 219L798 220 M732 220L733 220 M732 221L732 220 M798 220L798 221 M798 221L797 221 M731 221L732 221 M731 222L731 221 M797 221L797 222 M731 223L731 222 M797 222L797 223 M730 223L731 223 M730 224L730 223 M797 223L797 224 M730 225L730 224 M797 224L797 225 M729 225L730 225 M729 226L729 225 M797 225L797 226 M728 226L729 226 M728 227L728 226 M797 226L797 227 M728 228L728 227 M797 227L797 228 M727 228L728 228 M727 229L727 228 M797 228L797 229 M726 229L727 229 M726 230L726 229 M797 229L797 230 M725 230L726 230 M725 231L725 230 M797 230L797 231 M725 232L725 231 M797 231L797 232 M724 232L725 232 M724 233L724 232 M797 232L797 233 M723 233L724 233 M723 234L723 233 M797 233L797 234 M797 234L796 234 M722 234L723 234 M722 235L722 234 M796 234L796 235 M722 236L722 235 M796 235L796 236 M721 236L722 236 M721 237L721 236 M796 236L796 237 M720 237L721 237 M720 238L720 237 M796 237L796 238 M720 239L720 238 M796 238L796 239 M719 239L720 239 M719 240L719 239 M796 239L796 240 M719 241L719 240 M796 240L796 241 M718 241L719 241 M718 242L718 241 M796 241L796 242 M717 242L718 242 M717 243L717 242 M796 242L796 243 M717 244L717 243 M796 243L796 244 M716 244L717 244 M716 245L716 244 M796 244L796 245 M715 245L716 245 M715 246L715 245 M796 245L796 246 M714 246L715 246 M714 247L714 246 M796 246L796 247 M713 247L714 247 M713 248L713 247 M796 247L796 248 M712 248L713 248 M712 249L712 248 M796 248L796 249 M711 249L712 249 M711 250L711 249 M796 249L796 250 M710 250L711 250 M710 251L710 250 M796 250L796 251 M709 251L710 251 M709 252L709 251 M796 251L796 252 M796 252L795 252 M708 252L709 252 M708 253L708 252 M795 252L795 253 M708 254L708 253 M795 253L795 254 M708 255L708 254 M795 254L795 255 M706 255L707 255 M706 256L706 255 M707 255L708 255 M795 255L796 255 M796 255L796 256 M705 256L706 256 M705 257L705 256 M796 256L797 256 M797 256L798 256 M798 256L798 257 M705 258L705 257 M798 257L799 257 M799 257L799 258 M703 258L704 258 M703 259L703 258 M704 258L705 258 M799 258L800 258 M800 258L801 258 M801 258L801 259 M702 259L703 259 M702 260L702 259 M801 259L802 259 M802 259L803 259 M803 259L803 260 M701 260L702 260 M701 261L701 260 M803 260L804 260 M804 260L805 260 M805 260L805 261 M700 261L701 261 M700 262L700 261 M805 261L806 261 M806 261L807 261 M807 261L807 262 M700 263L700 262 M807 262L808 262 M808 262L809 262 M809 262L810 262 M810 262L811 262 M811 262L811 263 M699 263L700 263 M699 264L699 263 M811 263L812 263 M812 263L813 263 M813 263L814 263 M814 263L815 263 M815 263L816 263 M816 263L817 263 M817 263L818 263 M818 263L819 263 M819 263L820 263 M820 263L821 263 M821 263L822 263 M822 263L823 263 M823 263L824 263 M824 263L825 263 M825 263L826 263 M826 263L827 263 M827 263L828 263 M828 263L829 263 M829 263L830 263 M830 263L831 263 M831 263L832 263 M832 263L833 263 M833 263L834 263 M834 263L834 264 M698 264L699 264 M698 265L698 264 M834 264L834 265 M697 265L698 265 M697 266L697 265 M834 265L835 265 M835 265L835 266 M696 266L697 266 M696 267L696 266 M835 266L835 267 M695 267L696 267 M695 268L695 267 M835 267L835 268 M695 269L695 268 M835 268L836 268 M836 268L836 269 M694 269L695 269 M694 270L694 269 M836 269L836 270 M693 270L694 270 M693 271L693 270 M836 270L837 270 M837 270L837 271 M692 271L693 271 M692 272L692 271 M837 271L837 272 M691 272L692 272 M691 273L691 272 M837 272L838 272 M838 272L838 273 M690 273L691 273 M690 274L690 273 M838 273L838 274 M689 274L690 274 M689 275L689 274 M838 274L839 274 M839 274L839 275 M688 275L689 275 M688 276L688 275 M839 275L840 275 M840 275L840 276 M687 276L688 276 M687 277L687 276 M840 276L841 276 M841 276L841 277 M687 278L687 277 M841 277L841 278 M686 278L687 278 M686 279L686 278 M841 278L841 279 M686 280L686 279 M841 279L842 279 M842 279L842 280 M685 280L686 280 M685 281L685 280 M842 280L842 281 M842 281L841 281 M685 282L685 281 M841 281L841 282 M841 282L840 282 M684 282L685 282 M684 283L684 282 M839 283L838 283 M840 282L840 283 M840 283L839 283 M684 284L684 283 M838 283L838 284 M838 284L837 284 M684 285L684 284 M837 284L837 285 M837 285L836 285 M683 285L684 285 M683 286L683 285 M836 285L836 286 M836 286L835 286 M683 287L683 286 M835 286L835 287 M835 287L834 287 M682 287L683 287 M682 288L682 287 M833 288L832 288 M834 287L834 288 M834 288L833 288 M681 288L682 288 M681 289L681 288 M832 288L832 289 M832 289L831 289 M680 289L681 289 M680 290L680 289 M831 289L831 290 M680 291L680 290 M830 291L829 291 M831 290L831 291 M831 291L830 291 M680 292L680 291 M827 292L826 292 M828 292L827 292 M829 291L829 292 M829 292L828 292 M680 293L680 292 M826 292L826 293 M826 293L825 293 M679 293L680 293 M679 294L679 293 M824 294L823 294 M825 293L825 294 M825 294L824 294 M678 294L679 294 M678 295L678 294 M822 295L821 295 M823 294L823 295 M823 295L822 295 M678 296L678 295 M821 295L821 296 M821 296L820 296 M678 297L678 296 M820 296L820 297 M820 297L819 297 M677 297L678 297 M677 298L677 297 M818 298L817 298 M819 297L819 298 M819 298L818 298 M677 299L677 298 M817 298L817 299 M817 299L816 299 M676 299L677 299 M676 300L676 299 M815 300L814 300 M816 299L816 300 M816 300L815 300 M676 301L676 300 M813 301L812 301 M814 300L814 301 M814 301L813 301 M675 301L676 301 M675 302L675 301 M812 301L812 302 M812 302L811 302 M675 303L675 302 M811 302L811 303 M811 303L810 303 M674 303L675 303 M674 304L674 303 M808 304L807 304 M809 304L808 304 M810 303L810 304 M810 304L809 304 M674 305L674 304 M807 304L807 305 M807 305L806 305 M673 305L674 305 M673 306L673 305 M806 305L806 306 M806 306L805 306 M673 307L673 306 M804 307L803 307 M805 306L805 307 M805 307L804 307 M672 307L673 307 M672 308L672 307 M803 307L803 308 M803 308L802 308 M672 309L672 308 M802 308L802 309 M802 309L801 309 M672 310L672 309 M800 310L799 310 M801 309L801 310 M801 310L800 310 M671 310L672 310 M671 311L671 310 M799 310L799 311 M671 312L671 311 M799 311L799 312 M799 312L798 312 M670 312L671 312 M670 313L670 312 M798 312L798 313 M670 314L670 313 M798 313L798 314 M669 314L670 314 M669 315L669 314 M798 314L798 315 M798 315L797 315 M669 316L669 315 M797 315L797 316 M668 316L669 316 M668 317L668 316 M797 316L797 317 M797 317L796 317 M668 318L668 317 M796 317L796 318 M796 318L795 318 M668 319L668 318 M795 318L795 319 M795 319L794 319 M667 319L668 319 M667 320L667 319 M794 319L794 320 M666 320L667 320 M666 321L666 320 M794 320L794 321 M794 321L793 321 M666 322L666 321 M793 321L793 322 M665 322L666 322 M665 323L665 322 M793 322L793 323 M793 323L792 323 M664 323L665 323 M664 324L664 323 M792 323L792 324 M663 324L664 324 M663 325L663 324 M792 324L792 325 M792 325L791 325 M663 326L663 325 M791 325L791 326 M662 326L663 326 M662 327L662 326 M791 326L791 327 M791 327L790 327 M661 327L662 327 M661 328L661 327 M790 327L790 328 M661 329L661 328 M790 328L790 329 M790 329L789 329 M659 329L660 329 M659 330L659 329 M660 329L661 329 M789 329L789 330 M789 330L788 330 M659 331L659 330 M788 330L788 331 M658 331L659 331 M658 332L658 331 M788 331L788 332 M788 332L787 332 M658 333L658 332 M787 332L787 333 M657 333L658 333 M657 334L657 333 M787 333L787 334 M656 334L657 334 M656 335L656 334 M787 334L787 335 M787 335L786 335 M655 335L656 335 M655 336L655 335 M786 335L786 336 M786 336L785 336 M654 336L655 336 M654 337L654 336 M785 336L785 337 M654 338L654 337 M785 337L785 338 M785 338L784 338 M653 338L654 338 M653 339L653 338 M784 338L784 339 M784 339L783 339 M652 339L653 339 M652 340L652 339 M783 339L783 340 M783 340L782 340 M652 341L652 340 M782 340L782 341 M651 341L652 341 M651 342L651 341 M782 341L782 342 M782 342L781 342 M650 342L651 342 M650 343L650 342 M781 342L781 343 M649 343L650 343 M649 344L649 343 M781 343L781 344 M649 345L649 344 M781 344L781 345 M781 345L780 345 M648 345L649 345 M648 346L648 345 M780 345L780 346 M648 347L648 346 M780 346L780 347 M780 347L779 347 M646 347L647 347 M646 348L646 347 M647 347L648 347 M779 347L779 348 M779 348L778 348 M646 349L646 348 M778 348L778 349 M645 349L646 349 M645 350L645 349 M778 349L778 350 M778 350L777 350 M644 350L645 350 M644 351L644 350 M777 350L777 351 M777 351L776 351 M643 351L644 351 M643 352L643 351 M776 351L776 352 M643 353L643 352 M776 352L776 353 M642 353L643 353 M642 354L642 353 M776 353L776 354 M776 354L775 354 M641 354L642 354 M641 355L641 354 M775 354L775 355 M640 355L641 355 M640 356L640 355 M775 355L775 356 M639 356L640 356 M639 357L639 356 M775 356L775 357 M639 358L639 357 M775 357L775 358 M638 358L639 358 M638 359L638 358 M775 358L775 359 M775 359L774 359 M637 359L638 359 M637 360L637 359 M774 359L774 360 M636 360L637 360 M636 361L636 360 M774 360L774 361 M636 362L636 361 M774 361L774 362 M635 362L636 362 M635 363L635 362 M774 362L774 363 M635 364L635 363 M774 363L774 364 M634 364L635 364 M634 365L634 364 M774 364L774 365 M774 365L773 365 M633 365L634 365 M633 366L633 365 M773 365L773 366 M773 366L772 366 M632 366L633 366 M632 367L632 366 M772 366L772 367 M631 367L632 367 M631 368L631 367 M772 367L772 368 M772 368L771 368 M631 369L631 368 M771 368L771 369 M630 369L631 369 M630 370L630 369 M771 369L771 370 M630 371L630 370 M771 370L771 371 M628 371L629 371 M628 372L628 371 M629 371L630 371 M771 371L771 372 M627 372L628 372 M627 373L627 372 M771 372L771 373 M771 373L770 373 M627 374L627 373 M770 373L770 374 M626 374L627 374 M626 375L626 374 M770 374L770 375 M625 375L626 375 M625 376L625 375 M770 375L770 376 M624 376L625 376 M624 377L624 376 M770 376L770 377 M770 377L769 377 M619 377L620 377 M619 378L619 377 M620 377L621 377 M621 377L622 377 M622 377L623 377 M623 377L624 377 M769 377L769 378 M618 378L619 378 M618 379L618 378 M769 378L769 379 M615 379L616 379 M615 380L615 379 M616 379L617 379 M617 379L618 379 M769 379L769 380 M611 380L612 380 M611 381L611 380 M612 380L613 380 M613 380L614 380 M614 380L615 380 M769 380L769 381 M605 381L606 381 M605 382L605 381 M606 381L607 381 M607 381L608 381 M608 381L609 381 M609 381L610 381 M610 381L611 381 M769 381L769 382 M603 382L604 382 M603 383L603 382 M604 382L605 382 M769 382L769 383 M769 383L768 383 M600 383L601 383 M600 384L600 383 M601 383L602 383 M602 383L603 383 M768 383L768 384 M768 384L767 384 M595 384L596 384 M595 385L595 384 M596 384L597 384 M597 384L598 384 M598 384L599 384 M599 384L600 384 M767 384L767 385 M593 385L594 385 M593 386L593 385 M594 385L595 385 M767 385L767 386 M589 386L590 386 M589 387L589 386 M590 386L591 386 M591 386L592 386 M592 386L593 386 M767 386L767 387 M587 387L588 387 M587 388L587 387 M588 387L589 387 M767 387L767 388 M767 388L766 388 M582 388L583 388 M582 389L582 388 M583 388L584 388 M584 388L585 388 M585 388L586 388 M586 388L587 388 M766 388L766 389 M577 389L578 389 M577 390L577 389 M578 389L579 389 M579 389L580 389 M580 389L581 389 M581 389L582 389 M766 389L766 390 M766 390L765 390 M576 390L577 390 M576 391L576 390 M765 390L765 391 M573 391L574 391 M573 392L573 391 M574 391L575 391 M575 391L576 391 M765 391L765 392 M566 392L567 392 M567 392L567 393 M566 393L566 392 M569 392L570 392 M569 393L569 392 M570 392L571 392 M571 392L572 392 M572 392L573 392 M765 392L765 393 M564 393L565 393 M564 394L564 393 M565 393L566 393 M567 393L568 393 M568 393L569 393 M765 393L765 394 M559 394L560 394 M559 395L559 394 M560 394L561 394 M561 394L562 394 M562 394L563 394 M563 394L564 394 M765 394L765 395 M558 395L559 395 M558 396L558 395 M765 395L765 396 M765 396L764 396 M552 396L553 396 M552 397L552 396 M553 396L554 396 M554 396L555 396 M555 396L556 396 M556 396L557 396 M557 396L558 396 M764 396L764 397 M547 397L548 397 M547 398L547 397 M548 397L549 397 M549 397L550 397 M550 397L551 397 M551 397L552 397 M764 397L764 398 M764 398L763 398 M546 398L547 398 M546 399L546 398 M763 398L763 399 M541 399L542 399 M541 400L541 399 M542 399L543 399 M543 399L544 399 M544 399L545 399 M545 399L546 399 M763 399L763 400 M538 400L539 400 M538 401L538 400 M539 400L540 400 M540 400L541 400 M763 400L763 401 M763 401L762 401 M535 401L536 401 M535 402L535 401 M536 401L537 401 M537 401L538 401 M762 401L762 402 M528 402L529 402 M528 403L528 402 M529 402L530 402 M530 402L531 402 M531 402L532 402 M532 402L533 402 M533 402L534 402 M534 402L535 402 M762 402L762 403 M524 403L525 403 M524 404L524 403 M525 403L526 403 M526 403L527 403 M527 403L528 403 M762 403L762 404 M522 404L523 404 M522 405L522 404 M523 404L524 404 M762 404L762 405 M762 405L761 405 M517 405L518 405 M517 406L517 405 M518 405L519 405 M519 405L520 405 M520 405L521 405 M521 405L522 405 M761 405L761 406 M515 406L516 406 M515 407L515 406 M516 406L517 406 M761 406L761 407 M761 407L760 407 M513 407L514 407 M513 408L513 407 M514 407L515 407 M760 407L760 408 M512 408L513 408 M512 409L512 408 M760 408L760 409 M511 409L512 409 M511 410L511 409 M760 409L760 410 M760 410L759 410 M510 410L511 410 M510 411L510 410 M759 410L759 411 M509 411L510 411 M509 412L509 411 M759 411L759 412 M508 412L509 412 M508 413L508 412 M759 412L759 413 M759 413L758 413 M506 413L507 413 M506 414L506 413 M507 413L508 413 M758 413L758 414 M758 414L757 414 M505 414L506 414 M505 415L505 414 M757 414L757 415 M757 415L756 415 M504 415L505 415 M504 416L504 415 M756 415L756 416 M502 416L503 416 M502 417L502 416 M503 416L504 416 M756 416L756 417 M502 418L502 417 M756 417L756 418 M501 418L502 418 M501 419L501 418 M756 418L756 419 M499 419L500 419 M499 420L499 419 M500 419L501 419 M756 419L756 420 M498 420L499 420 M498 421L498 420 M756 420L756 421 M756 421L755 421 M497 421L498 421 M497 422L497 421 M755 421L755 422 M496 422L497 422 M496 423L496 422 M755 422L755 423 M755 423L754 423 M495 423L496 423 M495 424L495 423 M754 423L754 424 M493 424L494 424 M493 425L493 424 M494 424L495 424 M754 424L754 425 M492 425L493 425 M492 426L492 425 M754 425L754 426 M754 426L753 426 M490 426L491 426 M490 427L490 426 M491 426L492 426 M753 426L753 427 M490 428L490 427 M753 427L753 428 M489 428L490 428 M489 429L489 428 M753 428L753 429 M487 429L488 429 M487 430L487 429 M488 429L489 429 M753 429L753 430 M753 430L752 430 M487 431L487 430 M752 430L752 431 M486 431L487 431 M486 432L486 431 M752 431L752 432 M752 432L751 432 M484 432L485 432 M484 433L484 432 M485 432L486 432 M751 432L751 433 M483 433L484 433 M483 434L483 433 M751 433L751 434 M482 434L483 434 M482 435L482 434 M751 434L751 435 M751 435L750 435 M481 435L482 435 M481 436L481 435 M750 435L750 436 M750 436L749 436 M480 436L481 436 M480 437L480 436 M749 436L749 437 M749 437L748 437 M478 437L479 437 M478 438L478 437 M479 437L480 437 M748 437L748 438 M748 438L747 438 M477 438L478 438 M477 439L477 438 M747 438L747 439 M476 439L477 439 M476 440L476 439 M746 440L745 440 M747 439L747 440 M747 440L746 440 M475 440L476 440 M475 441L475 440 M745 440L745 441 M745 441L744 441 M473 441L474 441 M473 442L473 441 M474 441L475 441 M744 441L744 442 M471 442L472 442 M471 443L471 442 M472 442L473 442 M743 443L742 443 M744 442L744 443 M744 443L743 443 M468 443L469 443 M468 444L468 443 M469 443L470 443 M470 443L471 443 M742 443L742 444 M742 444L741 444 M466 444L467 444 M466 445L466 444 M467 444L468 444 M741 444L741 445 M463 445L464 445 M463 446L463 445 M464 445L465 445 M465 445L466 445 M740 446L739 446 M741 445L741 446 M741 446L740 446 M462 446L463 446 M462 447L462 446 M739 446L739 447 M739 447L738 447 M460 447L461 447 M460 448L460 447 M461 447L462 447 M738 447L738 448 M738 448L737 448 M457 448L458 448 M457 449L457 448 M458 448L459 448 M459 448L460 448 M737 448L737 449 M737 449L736 449 M456 449L457 449 M456 450L456 449 M736 449L736 450 M736 450L735 450 M452 450L453 450 M452 451L452 450 M453 450L454 450 M454 450L455 450 M455 450L456 450 M734 451L733 451 M735 450L735 451 M735 451L734 451 M450 451L451 451 M450 452L450 451 M451 451L452 451 M733 451L733 452 M448 452L449 452 M448 453L448 452 M449 452L450 452 M733 452L733 453 M733 453L732 453 M446 453L447 453 M446 454L446 453 M447 453L448 453 M732 453L732 454 M444 454L445 454 M444 455L444 454 M445 454L446 454 M731 455L730 455 M732 454L732 455 M732 455L731 455 M442 455L443 455 M442 456L442 455 M443 455L444 455 M729 456L728 456 M730 455L730 456 M730 456L729 456 M440 456L441 456 M440 457L440 456 M441 456L442 456 M728 456L728 457 M437 457L438 457 M437 458L437 457 M438 457L439 457 M439 457L440 457 M728 457L728 458 M435 458L436 458 M435 459L435 458 M436 458L437 458 M728 458L728 459 M728 459L727 459 M433 459L434 459 M433 460L433 459 M434 459L435 459 M727 459L727 460 M727 460L726 460 M431 460L432 460 M431 461L431 460 M432 460L433 460 M726 460L726 461 M726 461L725 461 M427 461L428 461 M427 462L427 461 M428 461L429 461 M429 461L430 461 M430 461L431 461 M725 461L725 462 M426 462L427 462 M426 463L426 462 M725 462L725 463 M725 463L724 463 M425 463L426 463 M425 464L425 463 M724 463L724 464 M423 464L424 464 M423 465L423 464 M424 464L425 464 M724 464L724 465 M724 465L723 465 M420 465L421 465 M420 466L420 465 M421 465L422 465 M422 465L423 465 M723 465L723 466 M418 466L419 466 M418 467L418 466 M419 466L420 466 M723 466L723 467 M723 467L722 467 M415 467L416 467 M415 468L415 467 M416 467L417 467 M417 467L418 467 M721 468L720 468 M722 467L722 468 M722 468L721 468 M414 468L415 468 M414 469L414 468 M720 468L720 469 M409 469L410 469 M409 470L409 469 M410 469L411 469 M411 469L412 469 M412 469L413 469 M413 469L414 469 M720 469L720 470 M403 470L404 470 M403 471L403 470 M404 470L405 470 M405 470L406 470 M406 470L407 470 M407 470L408 470 M408 470L409 470 M720 470L720 471 M720 471L719 471 M396 471L397 471 M396 472L396 471 M397 471L398 471 M398 471L399 471 M399 471L400 471 M400 471L401 471 M401 471L402 471 M402 471L403 471 M719 471L719 472 M391 472L392 472 M391 473L391 472 M392 472L393 472 M393 472L394 472 M394 472L395 472 M395 472L396 472 M719 472L719 473 M719 473L718 473 M384 473L385 473 M384 474L384 473 M385 473L386 473 M386 473L387 473 M387 473L388 473 M388 473L389 473 M389 473L390 473 M390 473L391 473 M718 473L718 474 M718 474L717 474 M376 474L377 474 M376 475L376 474 M377 474L378 474 M378 474L379 474 M379 474L380 474 M380 474L381 474 M381 474L382 474 M382 474L383 474 M383 474L384 474 M717 474L717 475 M717 475L716 475 M368 475L369 475 M368 476L368 475 M369 475L370 475 M370 475L371 475 M371 475L372 475 M372 475L373 475 M373 475L374 475 M374 475L375 475 M375 475L376 475 M716 475L716 476 M366 476L367 476 M366 477L366 476 M367 476L368 476 M716 476L716 477 M716 477L715 477 M354 477L355 477 M354 478L354 477 M355 477L356 477 M356 477L357 477 M357 477L358 477 M358 477L359 477 M359 477L360 477 M360 477L361 477 M361 477L362 477 M362 477L363 477 M363 477L364 477 M364 477L365 477 M365 477L366 477 M715 477L715 478 M715 478L714 478 M343 478L344 478 M343 479L343 478 M344 478L345 478 M345 478L346 478 M346 478L347 478 M347 478L348 478 M348 478L349 478 M349 478L350 478 M350 478L351 478 M351 478L352 478 M352 478L353 478 M353 478L354 478 M714 478L714 479 M714 479L713 479 M331 479L332 479 M331 480L331 479 M332 479L333 479 M333 479L334 479 M334 479L335 479 M335 479L336 479 M336 479L337 479 M337 479L338 479 M338 479L339 479 M339 479L340 479 M340 479L341 479 M341 479L342 479 M342 479L343 479 M713 479L713 480 M324 480L325 480 M324 481L324 480 M325 480L326 480 M326 480L327 480 M327 480L328 480 M328 480L329 480 M329 480L330 480 M330 480L331 480 M713 480L713 481 M713 481L712 481 M312 481L313 481 M312 482L312 481 M313 481L314 481 M314 481L315 481 M315 481L316 481 M316 481L317 481 M317 481L318 481 M318 481L319 481 M319 481L320 481 M320 481L321 481 M321 481L322 481 M322 481L323 481 M323 481L324 481 M712 481L712 482 M712 482L711 482 M311 482L312 482 M311 483L311 482 M711 482L711 483 M310 483L311 483 M310 484L310 483 M711 483L711 484 M711 484L710 484 M309 484L310 484 M309 485L309 484 M710 484L710 485 M710 485L709 485 M307 485L308 485 M307 486L307 485 M308 485L309 485 M709 485L709 486 M709 486L708 486 M306 486L307 486 M306 487L306 486 M708 486L708 487 M304 487L305 487 M304 488L304 487 M305 487L306 487 M708 487L708 488 M303 488L304 488 M303 489L303 488 M708 488L708 489 M708 489L707 489 M302 489L303 489 M302 490L302 489 M707 489L707 490 M301 490L302 490 M301 491L301 490 M706 491L705 491 M707 490L707 491 M707 491L706 491 M299 491L300 491 M299 492L299 491 M300 491L301 491 M705 491L705 492 M705 492L704 492 M298 492L299 492 M298 493L298 492 M704 492L704 493 M296 493L297 493 M296 494L296 493 M297 493L298 493 M704 493L704 494 M704 494L703 494 M295 494L296 494 M295 495L295 494 M703 494L703 495 M294 495L295 495 M294 496L294 495 M703 495L703 496 M703 496L702 496 M292 496L293 496 M292 497L292 496 M293 496L294 496 M702 496L702 497 M702 497L701 497 M290 497L291 497 M290 498L290 497 M291 497L292 497 M701 497L701 498 M289 498L290 498 M289 499L289 498 M701 498L701 499 M701 499L700 499 M288 499L289 499 M288 500L288 499 M700 499L700 500 M700 500L699 500 M287 500L288 500 M287 501L287 500 M699 500L699 501 M699 501L698 501 M286 501L287 501 M286 502L286 501 M698 501L698 502 M285 502L286 502 M285 503L285 502 M698 502L698 503 M698 503L697 503 M283 503L284 503 M283 504L283 503 M284 503L285 503 M697 503L697 504 M697 504L696 504 M282 504L283 504 M282 505L282 504 M696 504L696 505 M280 505L281 505 M280 506L280 505 M281 505L282 505 M696 505L696 506 M696 506L695 506 M279 506L280 506 M279 507L279 506 M695 506L695 507 M278 507L279 507 M278 508L278 507 M695 507L695 508 M695 508L694 508 M276 508L277 508 M276 509L276 508 M277 508L278 508 M694 508L694 509 M275 509L276 509 M275 510L275 509 M694 509L694 510 M274 510L275 510 M274 511L274 510 M694 510L694 511 M273 511L274 511 M273 512L273 511 M694 511L694 512 M271 512L272 512 M271 513L271 512 M272 512L273 512 M694 512L694 513 M270 513L271 513 M270 514L270 513 M694 513L694 514 M269 514L270 514 M269 515L269 514 M694 514L694 515 M268 515L269 515 M268 516L268 515 M694 515L694 516 M694 516L693 516 M267 516L268 516 M267 517L267 516 M693 516L693 517 M265 517L266 517 M265 518L265 517 M266 517L267 517 M693 517L693 518 M264 518L265 518 M264 519L264 518 M693 518L693 519 M263 519L264 519 M263 520L263 519 M693 519L693 520 M262 520L263 520 M262 521L262 520 M693 520L693 521 M260 521L261 521 M260 522L260 521 M261 521L262 521 M693 521L693 522 M259 522L260 522 M259 523L259 522 M693 522L693 523 M258 523L259 523 M258 524L258 523 M693 523L693 524 M257 524L258 524 M257 525L257 524 M693 524L693 525 M256 525L257 525 M256 526L256 525 M693 525L693 526 M255 526L256 526 M255 527L255 526 M693 526L693 527 M254 527L255 527 M254 528L254 527 M693 527L693 528 M253 528L254 528 M253 529L253 528 M693 528L693 529 M252 529L253 529 M252 530L252 529 M693 529L693 530 M251 530L252 530 M251 531L251 530 M693 530L693 531 M249 531L250 531 M249 532L249 531 M250 531L251 531 M693 531L693 532 M248 532L249 532 M248 533L248 532 M693 532L693 533 M247 533L248 533 M247 534L247 533 M693 533L693 534 M246 534L247 534 M246 535L246 534 M693 534L693 535 M245 535L246 535 M245 536L245 535 M693 535L693 536 M243 536L244 536 M243 537L243 536 M244 536L245 536 M693 536L693 537 M242 537L243 537 M242 538L242 537 M693 537L693 538 M241 538L242 538 M241 539L241 538 M693 538L693 539 M240 539L241 539 M240 540L240 539 M693 539L693 540 M238 540L239 540 M238 541L238 540 M239 540L240 540 M693 540L693 541 M236 541L237 541 M236 542L236 541 M237 541L238 541 M693 541L693 542 M235 542L236 542 M235 543L235 542 M693 542L693 543 M234 543L235 543 M234 544L234 543 M693 543L693 544 M232 544L233 544 M232 545L232 544 M233 544L234 544 M693 544L693 545 M231 545L232 545 M231 546L231 545 M693 545L693 546 M693 546L692 546 M229 546L230 546 M229 547L229 546 M230 546L231 546 M692 546L692 547 M227 547L228 547 M227 548L227 547 M228 547L229 547 M692 547L692 548 M226 548L227 548 M226 549L226 548 M692 548L692 549 M692 549L691 549 M225 549L226 549 M225 550L225 549 M691 549L691 550 M223 550L224 550 M223 551L223 550 M224 550L225 550 M691 550L691 551 M222 551L223 551 M222 552L222 551 M691 551L691 552 M691 552L690 552 M221 552L222 552 M221 553L221 552 M690 552L690 553 M220 553L221 553 M220 554L220 553 M690 553L690 554 M219 554L220 554 M219 555L219 554 M690 554L690 555 M690 555L689 555 M218 555L219 555 M218 556L218 555 M689 555L689 556 M218 557L218 556 M689 556L689 557 M217 557L218 557 M217 558L217 557 M689 557L689 558 M689 558L688 558 M216 558L217 558 M216 559L216 558 M688 558L688 559 M688 559L687 559 M216 560L216 559 M687 559L687 560 M215 560L216 560 M215 561L215 560 M687 560L687 561 M214 561L215 561 M214 562L214 561 M687 561L687 562 M687 562L686 562 M214 563L214 562 M686 562L686 563 M213 563L214 563 M213 564L213 563 M686 563L686 564 M212 564L213 564 M212 565L212 564 M686 564L686 565 M686 565L685 565 M211 565L212 565 M211 566L211 565 M685 565L685 566 M211 567L211 566 M685 566L685 567 M685 567L684 567 M210 567L211 567 M210 568L210 567 M684 567L684 568 M210 569L210 568 M684 568L684 569 M209 569L210 569 M209 570L209 569 M684 569L684 570 M684 570L683 570 M208 570L209 570 M208 571L208 570 M683 570L683 571 M208 572L208 571 M683 571L683 572 M208 573L208 572 M683 572L683 573 M207 573L208 573 M207 574L207 573 M683 573L683 574 M683 574L682 574 M207 575L207 574 M682 574L682 575 M206 575L207 575 M206 576L206 575 M682 575L682 576 M682 576L681 576 M205 576L206 576 M205 577L205 576 M681 576L681 577 M681 577L680 577 M205 578L205 577 M680 577L680 578 M680 578L679 578 M204 578L205 578 M204 579L204 578 M679 578L679 579 M679 579L678 579 M203 579L204 579 M203 580L203 579 M678 579L678 580 M203 581L203 580 M678 580L678 581 M678 581L677 581 M202 581L203 581 M202 582L202 581 M677 581L677 582 M677 582L676 582 M201 582L202 582 M201 583L201 582 M676 582L676 583 M201 584L201 583 M676 583L676 584 M676 584L675 584 M200 584L201 584 M200 585L200 584 M675 584L675 585 M675 585L674 585 M200 586L200 585 M674 585L674 586 M674 586L673 586 M199 586L200 586 M199 587L199 586 M673 586L673 587 M199 588L199 587 M673 587L673 588 M673 588L672 588 M198 588L199 588 M198 589L198 588 M672 588L672 589 M672 589L671 589 M198 590L198 589 M671 589L671 590 M671 590L670 590 M197 590L198 590 M197 591L197 590 M670 590L670 591 M670 591L669 591 M197 592L197 591 M669 591L669 592 M196 592L197 592 M196 593L196 592 M669 592L669 593 M669 593L668 593 M195 593L196 593 M195 594L195 593 M668 593L668 594 M195 595L195 594 M667 595L666 595 M668 594L668 595 M668 595L667 595 M194 595L195 595 M194 596L194 595 M666 595L666 596 M666 596L665 596 M194 597L194 596 M665 596L665 597 M193 597L194 597 M193 598L193 597 M665 597L665 598 M193 599L193 598 M665 598L665 599 M665 599L664 599 M192 599L193 599 M192 600L192 599 M664 599L664 600 M664 600L663 600 M191 600L192 600 M191 601L191 600 M663 600L663 601 M191 602L191 601 M663 601L663 602 M663 602L662 602 M191 603L191 602 M662 602L662 603 M662 603L661 603 M190 603L191 603 M190 604L190 603 M660 604L659 604 M661 603L661 604 M661 604L660 604 M190 605L190 604 M659 604L659 605 M189 605L190 605 M189 606L189 605 M659 605L659 606 M188 606L189 606 M188 607L188 606 M659 606L659 607 M659 607L658 607 M188 608L188 607 M658 607L658 608 M658 608L657 608 M188 609L188 608 M657 608L657 609 M657 609L656 609 M188 610L188 609 M656 609L656 610 M187 610L188 610 M187 611L187 610 M656 610L656 611 M656 611L655 611 M187 612L187 611 M655 611L655 612 M655 612L654 612 M187 613L187 612 M654 612L654 613 M187 614L187 613 M654 613L654 614 M654 614L653 614 M186 614L187 614 M187 615L186 615 M186 615L186 614 M653 614L653 615 M653 615L652 615 M187 616L187 615 M652 615L652 616 M652 616L651 616 M186 616L187 616 M186 617L186 616 M651 616L651 617 M186 618L186 617 M651 617L651 618 M186 619L186 618 M651 618L652 618 M652 618L652 619 M655 618L656 618 M655 619L655 618 M656 618L657 618 M657 618L658 618 M658 618L659 618 M659 618L660 618 M660 618L660 619 M186 620L186 619 M652 619L653 619 M653 619L654 619 M654 619L655 619 M660 619L661 619 M661 619L662 619 M662 619L663 619 M663 619L663 620 M186 621L186 620 M663 620L663 621 M186 622L186 621 M663 621L663 622 M186 623L186 622 M663 622L664 622 M664 622L664 623 M664 623L663 623 M186 624L186 623 M663 623L663 624 M186 625L186 624 M663 624L663 625 M186 626L186 625 M379 626L378 626 M380 626L379 626 M381 626L380 626 M382 626L381 626 M383 626L382 626 M384 626L383 626 M663 625L663 626 M186 627L186 626 M373 627L372 627 M374 627L373 627 M375 627L374 627 M376 627L375 627 M377 627L376 627 M378 626L378 627 M378 627L377 627 M385 627L384 627 M384 627L384 626 M663 626L663 627 M186 628L186 627 M366 628L365 628 M367 628L366 628 M368 628L367 628 M369 628L368 628 M370 628L369 628 M371 628L370 628 M372 627L372 628 M372 628L371 628 M386 628L385 628 M385 628L385 627 M663 627L663 628 M186 629L186 628 M365 628L365 629 M365 629L364 629 M387 629L386 629 M386 629L386 628 M663 628L663 629 M186 630L186 629 M364 629L364 630 M364 630L363 630 M388 630L387 630 M387 630L387 629 M663 629L663 630 M186 631L186 630 M363 630L363 631 M388 631L388 630 M643 631L642 631 M644 631L643 631 M645 631L644 631 M646 631L645 631 M647 631L646 631 M648 631L647 631 M649 631L648 631 M650 631L649 631 M651 631L650 631 M652 631L651 631 M653 631L652 631 M654 631L653 631 M655 631L654 631 M656 631L655 631 M657 631L656 631 M658 631L657 631 M659 631L658 631 M660 631L659 631 M661 631L660 631 M662 631L661 631 M663 630L663 631 M663 631L662 631 M186 632L186 631 M363 631L363 632 M363 632L362 632 M389 632L388 632 M388 632L388 631 M390 632L389 632 M641 632L640 632 M642 631L642 632 M642 632L641 632 M186 633L186 632 M362 632L362 633 M362 633L361 633 M391 633L390 633 M390 633L390 632 M640 632L640 633 M186 634L186 633 M361 633L361 634 M391 634L391 633 M640 633L640 634 M640 634L639 634 M186 635L186 634 M361 634L361 635 M361 635L360 635 M392 635L391 635 M391 635L391 634 M639 634L639 635 M186 636L186 635 M360 635L360 636 M360 636L359 636 M392 636L392 635 M482 636L481 636 M483 636L482 636 M639 635L640 635 M640 635L640 636 M186 637L186 636 M359 636L359 637 M393 637L392 637 M392 637L392 636 M480 637L479 637 M481 636L481 637 M481 637L480 637 M484 637L483 637 M483 637L483 636 M640 636L641 636 M641 636L642 636 M642 636L643 636 M643 636L643 637 M187 638L186 638 M186 638L186 637 M359 637L359 638 M359 638L358 638 M394 638L393 638 M393 638L393 637 M479 637L479 638 M479 638L478 638 M484 638L484 637 M643 637L644 637 M644 637L644 638 M187 639L187 638 M358 638L358 639 M358 639L357 639 M395 639L394 639 M394 639L394 638 M478 638L478 639 M478 639L477 639 M484 639L484 638 M644 638L644 639 M187 640L187 639 M357 639L357 640 M357 640L356 640 M396 640L395 640 M395 640L395 639 M476 640L475 640 M477 639L477 640 M477 640L476 640 M485 640L484 640 M484 640L484 639 M644 639L644 640 M187 641L187 640 M356 640L356 641 M356 641L355 641 M397 641L396 641 M396 641L396 640 M475 640L475 641 M475 641L474 641 M485 641L485 640 M644 640L644 641 M187 642L187 641 M355 641L355 642 M397 642L397 641 M473 642L472 642 M474 641L474 642 M474 642L473 642 M486 642L485 642 M485 642L485 641 M644 641L644 642 M187 643L187 642 M355 642L355 643 M355 643L354 643 M398 643L397 643 M397 643L397 642 M472 642L472 643 M472 643L471 643 M486 643L486 642 M644 642L644 643 M187 644L187 643 M354 643L354 644 M399 644L398 644 M398 644L398 643 M400 644L399 644 M470 644L469 644 M471 643L471 644 M471 644L470 644 M486 644L486 643 M644 643L644 644 M187 645L187 644 M354 644L354 645 M354 645L353 645 M401 645L400 645 M400 645L400 644 M469 644L469 645 M486 645L486 644 M644 644L644 645 M187 646L187 645 M353 645L353 646 M353 646L352 646 M402 646L401 646 M401 646L401 645 M469 645L469 646 M469 646L468 646 M486 646L486 645 M644 645L644 646 M187 647L187 646 M352 646L352 647 M352 647L351 647 M403 647L402 647 M402 647L402 646 M467 647L466 647 M468 646L468 647 M468 647L467 647 M487 647L486 647 M486 647L486 646 M644 646L644 647 M644 647L643 647 M187 648L187 647 M351 647L351 648 M351 648L350 648 M403 648L403 647 M466 647L466 648 M466 648L465 648 M487 648L487 647 M643 647L643 648 M643 648L642 648 M187 649L187 648 M350 648L350 649 M404 649L403 649 M403 649L403 648 M465 648L465 649 M488 649L487 649 M487 649L487 648 M624 649L623 649 M625 649L624 649 M626 649L625 649 M627 649L626 649 M628 649L627 649 M629 649L628 649 M630 649L629 649 M631 649L630 649 M632 649L631 649 M633 649L632 649 M634 649L633 649 M635 649L634 649 M636 649L635 649 M637 649L636 649 M638 649L637 649 M639 649L638 649 M640 649L639 649 M641 649L640 649 M642 648L642 649 M642 649L641 649 M187 650L187 649 M350 649L350 650 M350 650L349 650 M405 650L404 650 M404 650L404 649 M406 650L405 650 M464 650L463 650 M465 649L465 650 M465 650L464 650 M488 650L488 649 M623 649L623 650 M623 650L622 650 M187 651L187 650 M349 650L349 651 M407 651L406 651 M406 651L406 650 M463 650L463 651 M463 651L462 651 M489 651L488 651 M488 651L488 650 M622 650L622 651 M622 651L621 651 M187 652L187 651 M349 651L349 652 M349 652L348 652 M408 652L407 652 M407 652L407 651 M462 651L462 652 M489 652L489 651 M620 652L619 652 M621 651L621 652 M621 652L620 652 M187 653L187 652 M348 652L348 653 M348 653L347 653 M409 653L408 653 M408 653L408 652 M462 652L462 653 M462 653L461 653 M489 653L489 652 M619 652L619 653 M619 653L618 653 M187 654L187 653 M347 653L347 654 M347 654L346 654 M409 654L409 653 M461 653L461 654 M461 654L460 654 M489 654L489 653 M618 653L618 654 M187 655L187 654 M346 654L346 655 M409 655L409 654 M460 654L460 655 M460 655L459 655 M489 655L489 654 M618 654L618 655 M618 655L617 655 M187 656L187 655 M346 655L346 656 M346 656L345 656 M409 656L409 655 M459 655L459 656 M459 656L458 656 M490 656L489 656 M489 656L489 655 M617 655L617 656 M617 656L616 656 M187 657L187 656 M345 656L345 657 M345 657L344 657 M409 657L409 656 M458 656L458 657 M458 657L457 657 M490 657L490 656 M615 657L614 657 M616 656L616 657 M616 657L615 657 M187 658L187 657 M344 657L344 658 M344 658L343 658 M409 658L409 657 M457 657L457 658 M457 658L456 658 M491 658L490 658 M490 658L490 657 M614 657L614 658 M187 659L187 658 M343 658L343 659 M410 659L409 659 M409 659L409 658 M456 658L456 659 M456 659L455 659 M491 659L491 658 M613 659L612 659 M614 658L614 659 M614 659L613 659 M187 660L187 659 M343 659L343 660 M343 660L342 660 M410 660L410 659 M455 659L455 660 M455 660L454 660 M491 660L491 659 M612 659L612 660 M612 660L611 660 M187 661L187 660 M342 660L342 661 M410 661L410 660 M454 660L454 661 M492 661L491 661 M491 661L491 660 M564 661L563 661 M565 661L564 661 M566 661L565 661 M567 661L566 661 M568 661L567 661 M569 661L568 661 M570 661L569 661 M571 661L570 661 M572 661L571 661 M611 660L611 661 M187 662L187 661 M342 661L342 662 M342 662L341 662 M410 662L410 661 M454 661L454 662 M454 662L453 662 M492 662L492 661 M562 662L561 662 M563 661L563 662 M563 662L562 662 M573 662L572 662 M572 662L572 661 M574 662L573 662 M575 662L574 662 M576 662L575 662 M577 662L576 662 M611 661L611 662 M611 662L610 662 M187 663L187 662 M341 662L341 663 M410 663L410 662 M453 662L453 663 M453 663L452 663 M493 663L492 663 M492 663L492 662 M560 663L559 663 M561 662L561 663 M561 663L560 663 M578 663L577 663 M577 663L577 662 M579 663L578 663 M580 663L579 663 M581 663L580 663 M582 663L581 663 M583 663L582 663 M610 662L610 663 M610 663L609 663 M188 664L187 664 M187 664L187 663 M341 663L341 664 M410 664L410 663 M452 663L452 664 M452 664L451 664 M493 664L493 663 M558 664L557 664 M559 663L559 664 M559 664L558 664 M584 664L583 664 M583 664L583 663 M585 664L584 664 M586 664L585 664 M587 664L586 664 M588 664L587 664 M589 664L588 664 M608 664L607 664 M609 663L609 664 M609 664L608 664 M188 665L188 664 M341 664L341 665 M341 665L340 665 M410 665L410 664 M451 664L451 665 M451 665L450 665 M494 665L493 665 M493 665L493 664 M556 665L555 665 M557 664L557 665 M557 665L556 665 M590 665L589 665 M589 665L589 664 M591 665L590 665 M592 665L591 665 M593 665L592 665 M594 665L593 665 M595 665L594 665 M596 665L595 665 M607 664L607 665 M607 665L606 665 M188 666L188 665 M340 665L340 666 M410 666L410 665 M450 665L450 666 M450 666L449 666 M494 666L494 665 M554 666L553 666 M555 665L555 666 M555 666L554 666 M597 666L596 666 M596 666L596 665 M598 666L597 666 M599 666L598 666 M600 666L599 666 M601 666L600 666 M602 666L601 666 M603 666L602 666 M604 666L603 666 M605 666L604 666 M606 665L606 666 M606 666L605 666 M188 667L188 666 M340 666L340 667 M411 667L410 667 M410 667L410 666 M449 666L449 667 M449 667L448 667 M494 667L494 666 M551 667L550 667 M552 667L551 667 M553 666L553 667 M553 667L552 667 M188 668L188 667 M340 667L340 668 M411 668L411 667 M448 667L448 668 M448 668L447 668 M494 668L494 667 M549 668L548 668 M550 667L550 668 M550 668L549 668 M188 669L188 668 M340 668L340 669 M340 669L339 669 M411 669L411 668 M447 668L447 669 M495 669L494 669 M494 669L494 668 M545 669L544 669 M546 669L545 669 M547 669L546 669 M548 668L548 669 M548 669L547 669 M188 670L188 669 M339 669L339 670 M412 670L411 670 M411 670L411 669 M447 669L447 670 M447 670L446 670 M495 670L495 669 M542 670L541 670 M543 670L542 670 M544 669L544 670 M544 670L543 670 M188 671L188 670 M339 670L339 671 M412 671L412 670 M446 670L446 671 M446 671L445 671 M496 671L495 671 M495 671L495 670 M536 671L535 671 M537 671L536 671 M538 671L537 671 M539 671L538 671 M540 671L539 671 M541 670L541 671 M541 671L540 671 M188 672L188 671 M339 671L339 672 M339 672L338 672 M413 672L412 672 M412 672L412 671 M444 672L443 672 M445 671L445 672 M445 672L444 672 M496 672L496 671 M535 671L535 672 M535 672L534 672 M188 673L188 672 M338 672L338 673 M413 673L413 672 M443 672L443 673 M497 673L496 673 M496 673L496 672 M530 673L529 673 M531 673L530 673 M532 673L531 673 M533 673L532 673 M534 672L534 673 M534 673L533 673 M188 674L188 673 M338 673L338 674 M414 674L413 674 M413 674L413 673 M443 673L443 674 M443 674L442 674 M497 674L497 673 M526 674L525 674 M527 674L526 674 M528 674L527 674 M529 673L529 674 M529 674L528 674 M188 675L188 674 M338 674L338 675 M414 675L414 674 M442 674L442 675 M442 675L441 675 M498 675L497 675 M497 675L497 674 M524 675L523 675 M525 674L525 675 M525 675L524 675 M188 676L188 675 M338 675L338 676 M338 676L337 676 M414 676L414 675 M441 675L441 676 M441 676L440 676 M498 676L498 675 M518 676L517 676 M519 676L518 676 M520 676L519 676 M521 676L520 676 M522 676L521 676 M523 675L523 676 M523 676L522 676 M188 677L188 676 M337 676L337 677 M415 677L414 677 M414 677L414 676 M440 676L440 677 M440 677L439 677 M498 677L498 676 M513 677L512 677 M514 677L513 677 M516 677L515 677 M517 676L517 677 M517 677L516 677 M188 678L188 677 M337 677L337 678 M415 678L415 677 M439 677L439 678 M439 678L438 678 M499 678L498 678 M498 678L498 677 M511 678L510 678 M512 677L512 678 M512 678L511 678 M515 677L515 678 M515 678L514 678 M514 678L514 677 M188 679L188 678 M337 678L337 679 M337 679L336 679 M416 679L415 679 M415 679L415 678 M438 678L438 679 M438 679L437 679 M500 679L499 679 M499 679L499 678 M501 679L500 679 M502 679L501 679 M503 679L502 679 M504 679L503 679 M505 679L504 679 M506 679L505 679 M507 679L506 679 M508 679L507 679 M509 679L508 679 M510 678L510 679 M510 679L509 679 M188 680L188 679 M336 679L336 680 M416 680L416 679 M436 680L435 680 M437 679L437 680 M437 680L436 680 M188 681L188 680 M336 680L336 681 M417 681L416 681 M416 681L416 680 M434 681L433 681 M435 680L435 681 M435 681L434 681 M188 682L188 681 M336 681L336 682 M417 682L417 681 M433 681L433 682 M433 682L432 682 M188 683L188 682 M336 682L336 683 M336 683L335 683 M418 683L417 683 M417 683L417 682 M431 683L430 683 M432 682L432 683 M432 683L431 683 M188 684L188 683 M335 683L335 684 M418 684L418 683 M428 684L427 684 M429 684L428 684 M430 683L430 684 M430 684L429 684 M188 685L188 684 M335 684L335 685 M419 685L418 685 M418 685L418 684 M427 684L427 685 M427 685L426 685 M188 686L188 685 M335 685L335 686 M335 686L334 686 M419 686L419 685 M425 686L424 686 M426 685L426 686 M426 686L425 686 M188 687L188 686 M334 686L334 687 M420 687L419 687 M419 687L419 686 M421 687L420 687 M422 687L421 687 M423 687L422 687 M424 686L424 687 M424 687L423 687 M188 688L188 687 M334 687L334 688 M188 689L188 688 M334 688L334 689 M188 690L188 689 M334 689L334 690 M188 691L188 690 M334 690L334 691 M334 691L333 691 M188 692L188 691 M333 691L333 692 M188 693L188 692 M333 692L333 693 M188 694L188 693 M333 693L333 694 M333 694L332 694 M188 695L188 694 M332 694L332 695 M189 696L188 696 M188 696L188 695 M332 695L332 696 M189 697L189 696 M332 696L332 697 M332 697L331 697 M189 698L189 697 M331 697L331 698 M189 699L189 698 M331 698L331 699 M189 700L189 699 M331 699L331 700 M189 701L189 700 M331 700L331 701 M189 702L189 701 M331 701L331 702 M331 702L330 702 M189 703L189 702 M330 702L330 703 M189 704L189 703 M330 703L330 704 M189 705L189 704 M330 704L330 705 M330 705L329 705 M189 706L189 705 M329 705L329 706 M189 707L189 706 M329 706L329 707 M189 708L189 707 M329 707L329 708 M189 709L189 708 M329 708L329 709 M189 710L189 709 M329 709L329 710 M189 711L189 710 M329 710L329 711 M329 711L328 711 M189 712L189 711 M328 711L328 712 M189 713L189 712 M328 712L328 713 M328 713L327 713 M189 714L189 713 M327 713L327 714 M327 714L326 714 M189 715L189 714 M326 714L326 715 M189 716L189 715 M326 715L326 716 M326 716L325 716 M189 717L189 716 M325 716L325 717 M189 718L189 717 M325 717L325 718 M190 719L189 719 M189 719L189 718 M325 718L325 719 M325 719L324 719 M190 720L190 719 M324 719L324 720 M324 720L323 720 M190 721L190 720 M323 720L323 721 M190 722L190 721 M323 721L323 722 M323 722L322 722 M190 723L190 722 M322 722L322 723 M322 723L321 723 M190 724L190 723 M321 723L321 724 M190 725L190 724 M321 724L321 725 M321 725L320 725 M190 726L190 725 M320 725L320 726 M191 727L190 727 M190 727L190 726 M320 726L320 727 M320 727L319 727 M191 728L191 727 M319 727L319 728 M190 728L191 728 M191 729L190 729 M190 729L190 728 M318 729L317 729 M319 728L319 729 M319 729L318 729 M191 730L191 729 M317 729L317 730 M191 731L191 730 M317 730L317 731 M317 731L316 731 M191 732L191 731 M316 731L316 732 M191 733L191 732 M316 732L316 733 M316 733L315 733 M191 734L191 733 M315 733L315 734 M191 735L191 734 M315 734L315 735 M191 736L191 735 M315 735L315 736 M315 736L314 736 M191 737L191 736 M314 736L314 737 M314 737L313 737 M191 738L191 737 M313 737L313 738 M313 738L312 738 M191 739L191 738 M312 738L312 739 M192 740L191 740 M191 740L191 739 M312 739L312 740 M312 740L311 740 M192 741L192 740 M311 740L311 741 M192 742L192 741 M311 741L311 742 M311 742L310 742 M193 743L192 743 M192 743L192 742 M310 742L310 743 M310 743L309 743 M193 744L193 743 M309 743L309 744 M309 744L308 744 M193 745L193 744 M308 744L308 745 M193 746L193 745 M308 745L308 746 M308 746L307 746 M193 747L193 746 M307 746L307 747 M193 748L193 747 M307 747L307 748 M307 748L306 748 M181 748L182 748 M181 749L181 748 M182 748L183 748 M183 748L184 748 M184 748L185 748 M185 748L186 748 M186 748L186 749 M190 748L191 748 M190 749L190 748 M191 748L192 748 M192 748L193 748 M306 748L306 749 M306 749L305 749 M181 750L181 749 M186 749L187 749 M187 749L188 749 M188 749L189 749 M189 749L190 749 M305 749L305 750 M181 751L181 750 M305 750L305 751 M305 751L304 751 M180 751L181 751 M180 752L180 751 M304 751L304 752 M180 753L180 752 M304 752L304 753 M304 753L303 753 M180 754L180 753 M303 753L303 754 M303 754L302 754 M180 755L180 754 M302 754L302 755 M302 755L301 755 M180 756L180 755 M301 755L301 756 M180 757L180 756 M301 756L301 757 M301 757L300 757 M180 758L180 757 M300 757L300 758 M180 759L180 758 M300 758L300 759 M300 759L299 759 M180 760L180 759 M299 759L299 760 M181 761L180 761 M180 761L180 760 M182 761L181 761 M183 761L182 761 M184 761L183 761 M185 761L184 761 M186 761L185 761 M187 761L186 761 M188 761L187 761 M189 761L188 761 M190 761L189 761 M191 761L190 761 M192 761L191 761 M193 761L192 761 M194 761L193 761 M195 761L194 761 M196 761L195 761 M299 760L299 761 M299 761L298 761 M197 762L196 762 M196 762L196 761 M298 761L298 762 M298 762L297 762 M197 763L197 762 M297 762L297 763 M197 764L197 763 M297 763L297 764 M297 764L296 764 M195 764L196 764 M195 765L195 764 M196 764L197 764 M296 764L296 765 M192 765L193 765 M192 766L192 765 M193 765L194 765 M194 765L195 765 M296 765L296 766 M191 766L192 766 M191 767L191 766 M296 766L296 767 M296 767L295 767 M190 767L191 767 M190 768L190 767 M295 767L295 768 M295 768L294 768 M189 768L190 768 M189 769L189 768 M294 768L294 769 M189 770L189 769 M294 769L294 770 M188 770L189 770 M188 771L188 770 M294 770L294 771 M188 772L188 771 M294 771L294 772 M187 772L188 772 M187 773L187 772 M294 772L294 773 M187 774L187 773 M294 773L294 774 M294 774L293 774 M187 775L187 774 M293 774L293 775 M187 776L187 775 M293 775L293 776 M187 777L187 776 M293 776L293 777 M293 777L292 777 M187 778L187 777 M292 777L292 778 M187 779L187 778 M292 778L292 779 M188 780L187 780 M187 780L187 779 M197 780L196 780 M198 780L197 780 M199 780L198 780 M200 780L199 780 M292 779L292 780 M292 780L291 780 M188 781L188 780 M195 781L194 781 M196 780L196 781 M196 781L195 781 M201 781L200 781 M200 781L200 780 M264 781L263 781 M265 781L264 781 M266 781L265 781 M267 781L266 781 M268 781L267 781 M269 781L268 781 M270 781L269 781 M291 780L291 781 M189 782L188 782 M188 782L188 781 M194 781L194 782 M194 782L193 782 M201 782L201 781 M262 782L261 782 M263 781L263 782 M263 782L262 782 M271 782L270 782 M270 782L270 781 M272 782L271 782 M291 781L291 782 M190 783L189 783 M189 783L189 782 M193 782L193 783 M193 783L192 783 M201 783L201 782 M261 782L261 783 M273 783L272 783 M272 783L272 782 M274 783L273 783 M291 782L291 783 M291 783L290 783 M191 784L190 784 M190 784L190 783 M192 783L192 784 M192 784L191 784 M202 784L201 784 M201 784L201 783 M261 783L261 784 M275 784L274 784 M274 784L274 783 M276 784L275 784 M277 784L276 784 M278 784L277 784 M279 784L278 784 M280 784L279 784 M281 784L280 784 M282 784L281 784 M283 784L282 784 M290 783L290 784 M290 784L289 784 M202 785L202 784 M261 784L262 784 M262 784L262 785 M284 785L283 785 M283 785L283 784 M285 785L284 785 M286 785L285 785 M287 785L286 785 M288 785L287 785 M289 784L289 785 M289 785L288 785 M202 786L202 785 M262 785L262 786 M203 787L202 787 M202 787L202 786 M262 786L263 786 M263 786L263 787 M203 788L203 787 M263 787L263 788 M203 789L203 788 M263 788L263 789 M203 790L203 789 M263 789L264 789 M264 789L264 790 M203 791L203 790 M264 790L264 791 M203 792L203 791 M264 791L265 791 M265 791L265 792 M204 793L203 793 M203 793L203 792 M265 792L265 793 M204 794L204 793 M265 793L266 793 M266 793L266 794 M204 795L204 794 M266 794L266 795 M204 796L204 795 M266 795L266 796 M205 797L204 797 M204 797L204 796 M266 796L267 796 M267 796L267 797 M206 798L205 798 M205 798L205 797 M267 797L267 798 M207 799L206 799 M206 799L206 798 M267 798L268 798 M268 798L268 799 M208 800L207 800 M207 800L207 799 M268 799L268 800 M268 800L267 800 M209 801L208 801 M208 801L208 800 M267 800L267 801 M209 802L209 801 M267 801L267 802 M267 802L266 802 M210 803L209 803 M209 803L209 802 M266 802L266 803 M266 803L265 803 M211 804L210 804 M210 804L210 803 M265 803L265 804 M265 804L264 804 M211 805L211 804 M264 804L264 805 M212 806L211 806 M211 806L211 805 M213 806L212 806 M264 805L264 806 M264 806L263 806 M213 807L213 806 M263 806L263 807 M214 808L213 808 M213 808L213 807 M263 807L263 808 M263 808L262 808 M215 809L214 809 M214 809L214 808 M262 808L262 809 M262 809L261 809 M216 810L215 810 M215 810L215 809 M261 809L261 810 M261 810L260 810 M216 811L216 810 M260 810L260 811 M260 811L259 811 M217 812L216 812 M216 812L216 811 M259 811L259 812 M218 813L217 813 M217 813L217 812 M219 813L218 813 M259 812L259 813 M259 813L258 813 M219 814L219 813 M258 813L258 814 M220 815L219 815 M219 815L219 814 M257 815L256 815 M258 814L258 815 M258 815L257 815 M221 816L220 816 M220 816L220 815 M256 815L256 816 M222 817L221 817 M221 817L221 816 M256 816L256 817 M256 817L255 817 M222 818L222 817 M255 817L255 818 M223 819L222 819 M222 819L222 818 M255 818L255 819 M255 819L254 819 M223 820L223 819 M254 819L254 820 M254 820L253 820 M224 821L223 821 M223 821L223 820 M225 821L224 821 M248 821L247 821 M249 821L248 821 M250 821L249 821 M251 821L250 821 M252 821L251 821 M253 820L253 821 M253 821L252 821 M226 822L225 822 M225 822L225 821 M241 822L240 822 M242 822L241 822 M243 822L242 822 M244 822L243 822 M245 822L244 822 M246 822L245 822 M247 821L247 822 M247 822L246 822 M227 823L226 823 M226 823L226 822 M231 823L230 823 M232 823L231 823 M233 823L232 823 M234 823L233 823 M235 823L234 823 M236 823L235 823 M237 823L236 823 M238 823L237 823 M239 823L238 823 M240 822L240 823 M240 823L239 823 M228 824L227 824 M227 824L227 823 M229 824L228 824 M230 823L230 824 M230 824L229 824" fill="none" stroke="#1a3c2e" stroke-width="2" stroke-linejoin="round"/></svg>
