<?xml version="1.0" encoding="UTF-8" standalone="no"?>
<!DOCTYPE svg PUBLIC "-//W3C//DTD SVG 1.1//EN" "http://www.w3.org/Graphics/SVG/1.1/DTD/svg11.dtd">
<svg width="100%" height="100%" viewBox="0 0 91 72" version="1.1" xmlns="http://www.w3.org/2000/svg" xmlns:xlink="http://www.w3.org/1999/xlink" xml:space="preserve" xmlns:serif="http://www.serif.com/" style="fill-rule:evenodd;clip-rule:evenodd;stroke-linejoin:round;stroke-miterlimit:2;">
    <g transform="matrix(1,0,0,1,0,-6.266998)">
        <path d="M9.727,50.561C10.514,50.779 12.002,52.446 12.87,53.406C15.059,55.827 16.293,57.541 18.407,59.84C19.437,60.963 20.467,62.572 21.549,62.833C22.904,63.16 24.902,62.809 26.487,62.684C31.506,62.284 36.125,62.069 40.554,61.337C45.443,66.069 50.613,70.243 56.267,74.507C57.643,75.543 60.418,78.486 62.253,78.247C63.621,78.069 65.202,74.421 66.144,73.01C69.957,67.292 73.413,61.649 76.769,55.949C80.204,50.116 83.661,44.715 87.095,38.741C87.69,37.703 90.339,33.754 90.237,32.604C90.173,31.889 88.579,30.496 87.842,29.761C83.092,25.011 79.095,21.366 74.225,17.19C73.208,16.319 69.66,12.799 68.089,12.701C66.795,12.621 64.857,14.023 63.3,14.497C57.744,16.187 52.864,17.435 48.186,19.435C42.444,15.75 38.084,10.683 33.071,6.267C32.858,6.304 32.819,6.513 32.623,6.566C28.989,7.223 25.576,8.099 22.446,9.259C17.192,16.937 13.023,25.372 8.529,33.503C6.99,36.288 5.836,39.325 4.339,42.181C2.771,45.174 0.385,47.634 0,51.31C3.636,52.037 6.236,49.605 9.727,50.561Z" style="fill:rgb(3,4,4);"/>
    </g>
    <g transform="matrix(1,0,0,1,0,-6.266998)">
        <path d="M33.071,8.362C33.782,8.948 34.431,9.597 35.017,10.307C32.974,13.253 31.935,17.202 27.834,18.089C29.588,14.853 31.38,11.659 33.071,8.362Z" style="fill:white;"/>
    </g>
    <g transform="matrix(1,0,0,1,0,-6.266998)">
        <path d="M42.2,17.041C37.196,16.966 35.752,21.252 31.725,21.831C29.897,22.092 28.013,21.141 26.039,21.531C26.284,20.529 26.934,19.932 27.235,18.987C31.47,18.482 32.839,15.112 34.868,12.402C36.699,14.013 38.382,15.771 40.704,16.891C39.67,15.081 37.275,13.337 35.466,11.804C35.424,11.562 35.608,11.546 35.615,11.355C35.837,11.181 35.993,11.181 36.214,11.355C37.947,13.513 40.044,15.306 42.2,17.041Z" style="fill:white;"/>
    </g>
    <g transform="matrix(1,0,0,1,0,-6.266998)">
        <path d="M78.565,24.524C78.025,24.82 77.694,24.068 77.368,23.776C74.492,21.195 70.879,18.316 67.939,15.694C68.038,15.195 68.405,14.962 68.538,14.497C68.712,14.473 68.804,14.53 68.837,14.646C71.562,16.883 73.973,19.238 76.62,21.68C77.389,22.391 78.738,23.149 78.565,24.524Z" style="fill:white;"/>
    </g>
    <g transform="matrix(1,0,0,1,0,-6.266998)">
        <path d="M65.844,15.246C65.316,16.277 63.896,16.507 62.852,16.891C59.731,18.042 55.845,18.974 52.975,20.633C56.905,20.222 60.777,18.461 64.498,17.341C63.84,18.937 62.121,20.366 60.606,21.979C59.13,23.554 57.491,25.912 55.369,26.17C51.989,26.581 50.412,23.898 46.839,23.776C47.254,22.642 48.192,22.035 48.635,20.931C54.979,19.643 59.811,16.844 65.844,15.246Z" style="fill:white;"/>
    </g>
    <g transform="matrix(1,0,0,1,0,-6.266998)">
        <path d="M20.801,15.694C22.637,16.452 23.119,18.564 24.841,19.435C24.594,20.286 24.125,20.913 23.793,21.68C21.95,20.681 21.52,18.267 20.202,16.742C20.509,16.5 20.58,16.021 20.801,15.694Z" style="fill:white;"/>
    </g>
    <g transform="matrix(1,0,0,1,0,-6.266998)">
        <path d="M78.714,46.821C79.033,46.333 77.845,47.492 77.667,47.72C76.76,48.867 76.161,50.385 75.272,51.76C72.913,55.408 69.886,59.497 67.49,63.134C61.569,64.788 58.742,59.582 54.771,57.895C51.865,56.661 47.538,57.907 45.043,55.8C46.621,51.342 49.272,47.958 51.329,43.978C52.039,45.307 52.388,46.385 52.077,47.868C51.865,48.88 50.946,49.557 50.879,50.413C50.738,52.239 52.252,52.855 53.424,54.005C57.16,55.545 59.671,58.71 63.3,59.84C67.561,61.167 69.361,56.594 70.483,53.406C71.339,50.975 72.893,49.693 72.578,46.671C72.292,43.914 70.406,40.994 68.538,39.639C67.567,38.934 66.039,38.651 65.844,37.095C65.534,34.61 67.992,33.146 68.239,31.407C68.452,29.917 67.481,28.839 66.593,28.714C64.731,28.453 64.541,30.494 63.151,30.659C61.591,30.844 61.237,28.97 59.709,29.761C62.19,25.259 64.789,20.874 67.341,16.443C71.057,19.561 74.749,22.702 78.115,26.17C77.499,30.437 71.284,31.373 70.783,35.447C70.707,36.067 70.749,36.816 71.083,37.543C73.175,42.106 80.12,36.686 84.102,39.639C81.38,45.08 77.967,50.553 74.674,55.949C73.16,58.43 71.933,60.902 69.735,62.384C72.066,57.133 76.463,52.651 78.714,46.821Z" style="fill:white;"/>
    </g>
    <g transform="matrix(1,0,0,1,0,-6.266998)">
        <path d="M19.604,17.64C21.216,18.771 21.512,21.218 23.495,21.979C22.868,23.486 22.146,24.596 21.399,26.019C20.818,27.129 20.358,28.847 19.304,30.06C18.514,30.971 16.713,31.55 15.713,32.305C14.85,32.958 13.968,34.199 12.87,35.148C11.6,36.246 8.419,37.746 8.978,40.386C9.328,42.038 11.355,42.146 13.318,41.732C12.744,42.605 12.362,43.67 11.672,44.427C9.538,44.206 7.112,43.313 5.087,44.277C9.644,35.117 14.706,26.46 19.604,17.64Z" style="fill:white;"/>
    </g>
    <g transform="matrix(1,0,0,1,0,-6.266998)">
        <path d="M46.241,20.782C45.625,21.912 45.031,23.065 44.146,23.926C41.151,23.293 39.453,22.478 37.262,24.075C35.473,25.377 34.643,28.3 32.473,28.564C29.207,28.962 26.906,25.673 23.045,27.217C23.745,25.424 24.777,23.961 25.589,22.278C27.359,21.567 29.179,22.637 31.425,22.429C34.988,22.098 36.449,19.305 39.356,18.389C43.159,17.19 44.082,19.274 46.241,20.782Z" style="fill:white;"/>
    </g>
    <g transform="matrix(1,0,0,1,0,-6.266998)">
        <path d="M62.402,21.231C61.166,24.434 58.681,27.685 57.015,30.959C55.481,31.87 54.09,32.922 51.479,32.755C48.879,31.176 49.614,25.138 44.744,26.768C45.224,25.952 45.67,25.1 46.241,24.374C50.385,23.88 51.252,27.318 55.369,26.919C58.749,26.59 59.952,23.218 62.402,21.231Z" style="fill:white;"/>
    </g>
    <g transform="matrix(1,0,0,1,0,-6.266998)">
        <path d="M43.846,24.673C40.637,30.741 36.455,35.839 33.071,41.732C32.66,38.638 32.328,35.835 30.677,33.802C29.59,32.464 24.233,29.464 21.249,30.959C21.397,30.398 21.677,29.352 22.147,28.864C24.724,26.188 28.037,28.842 31.276,29.312C36.386,30.055 35.635,23.343 40.854,23.926C41.922,24.045 42.852,24.853 43.846,24.673Z" style="fill:white;"/>
    </g>
    <g transform="matrix(1,0,0,1,0,-6.266998)">
        <path d="M84.55,36.196C85.442,36.713 86.441,35.639 86.047,34.849C84.991,34.741 84.844,35.543 84.55,36.196ZM79.762,24.673C82.705,27.366 85.342,30.365 88.292,33.054C87.082,35.037 85.754,36.901 84.7,39.039C83.029,37.997 80.882,37.718 78.415,37.992C77.152,38.132 76.064,38.865 75.122,38.889C73.214,38.939 71.494,37.453 71.381,36.047C71.188,33.632 74.329,32.206 75.871,30.959C77.402,29.718 78.105,28.32 79.014,26.768C81.564,28.459 83.034,31.228 85.748,32.755C84.526,29.586 81.357,27.566 79.612,25.422C79.488,24.999 79.823,25.034 79.762,24.673Z" style="fill:white;"/>
    </g>
    <g transform="matrix(1,0,0,1,0,-6.266998)">
        <path d="M45.193,27.816L46.839,27.816C48.878,29.149 48.601,33.479 51.479,34.101C52.974,34.424 54.343,33.648 55.518,32.904C55.724,33.414 54.837,34.115 54.621,34.699C53.459,34.995 52.903,35.365 51.628,35.298C47.551,35.083 46.771,30.854 45.193,27.816Z" style="fill:white;"/>
    </g>
    <g transform="matrix(1,0,0,1,0,-6.266998)">
        <path d="M57.764,54.304C58.372,54.363 58.806,54.248 58.811,53.705C58.562,52.799 57.114,53.455 57.764,54.304ZM59.111,55.052C59.882,56.376 61.075,57.277 62.253,58.194C67.412,59.206 67.31,54.857 68.538,51.61C69.23,49.779 70.824,48.454 69.885,46.073C69.434,44.93 67.899,42.872 67.191,42.033C65.907,40.51 63.372,39.99 63.45,37.693C63.508,35.973 66.463,33.184 63.75,32.604C63.062,32.458 62.486,33.046 61.655,33.054C60.255,33.067 58.904,32.051 58.063,32.755C58.666,31.661 59.228,30.883 60.308,30.809C61.296,30.741 62.097,31.73 63.001,31.707C64.755,31.663 64.986,29.591 66.742,30.21C67.566,31.523 66.006,32.328 65.545,33.204C64.873,34.481 64.279,36.707 64.946,38.292C65.666,39.997 68.135,40.374 69.585,42.332C70.628,43.739 72.037,46.043 71.531,48.617C71.371,49.432 70.264,50.641 69.885,51.61C68.537,55.053 68.423,59.67 64.049,59.242C62.691,59.109 60.62,58.035 59.26,57.296C57.559,56.374 56.471,54.601 55.22,53.855C53.864,53.046 51.621,52.589 51.628,50.712C51.632,49.621 52.85,48.909 52.975,47.42C53.134,45.518 52.313,44.324 52.077,42.78C54.918,43.776 52.935,48.724 54.023,51.31C54.578,52.632 56.079,52.403 57.315,53.106C56.888,52.037 55.261,52.167 54.621,51.31C54.295,47.745 54.954,43.196 52.825,41.433C54.389,39.056 55.71,36.436 57.315,34.101C59.196,33.073 61.653,34.227 63.75,33.802C63.488,35.715 61.681,37.056 62.852,39.488C63.465,40.763 65.133,41.342 66.293,42.632C67.416,43.879 69.269,46.221 69.286,47.57C69.299,48.527 68.324,49.709 67.939,50.712C66.916,53.384 67.528,56.528 65.246,57.446C62.228,58.66 60.64,56.196 59.111,55.052Z" style="fill:white;"/>
    </g>
    <g transform="matrix(1,0,0,1,0,-6.266998)">
        <path d="M31.725,43.829C31.972,36.151 26.304,30.464 19.304,34.4C19.67,33.569 20.126,32.828 20.501,32.007C23.25,30.864 25.505,32.138 28.283,33.054C28.596,33.157 30.187,34.461 30.378,34.699C31.407,35.989 32.158,38.548 32.324,40.685C32.403,41.724 32.517,42.991 31.725,43.829Z" style="fill:white;"/>
    </g>
    <g transform="matrix(1,0,0,1,0,-6.266998)">
        <path d="M18.107,32.007C17.024,34.564 15.291,37.77 13.917,40.535C12.464,41.099 9.855,41.856 9.577,40.087C9.33,38.52 11.804,37.151 13.168,36.047C15.019,34.549 15.61,32.953 18.107,32.007Z" style="fill:white;"/>
    </g>
    <g transform="matrix(1,0,0,1,0,-6.266998)">
        <path d="M23.644,56.249C23.403,53.065 25.747,49.728 26.188,46.522C26.585,43.64 25.214,40.189 23.045,39.787C19.598,39.147 19.303,42.868 15.563,42.332C16.538,40.363 17.36,38.244 18.257,36.196C21.372,34.804 24.937,33.069 27.834,35.298C30.324,37.215 30.376,41.108 30.977,45.025C28.475,48.71 25.701,52.121 23.644,56.249Z" style="fill:white;"/>
    </g>
    <g transform="matrix(1,0,0,1,0,-6.266998)">
        <path d="M50.281,41.285C49.382,41.755 48.418,41.186 47.438,41.135C44.49,40.978 40.767,41.714 38.758,43.08C36.975,44.293 35.796,47.024 33.071,45.773C33.6,45.025 34.605,44.953 35.316,44.427C37.94,42.486 39.016,39.858 42.799,39.639C45.314,39.492 48.422,40.248 50.281,41.285Z" style="fill:white;"/>
    </g>
    <g transform="matrix(1,0,0,1,0,-6.266998)">
        <path d="M22.147,58.344C20.903,55.145 22.209,51.997 22.896,49.216C23.257,47.754 23.907,45.954 23.793,44.876C23.622,43.251 21.756,41.937 19.454,42.482C17.839,42.863 16.767,45.491 14.365,44.427C14.842,42.889 16.278,43.466 17.658,43.08C19.537,42.555 20.542,40.671 22.297,40.685C24.401,40.704 25.699,43.808 25.589,45.923C25.443,48.731 23.451,52.059 23.045,55.201C22.889,56.413 23.378,57.677 22.147,58.344Z" style="fill:white;"/>
    </g>
    <g transform="matrix(1,0,0,1,0,-6.266998)">
        <path d="M11.373,45.176C10.996,45.946 10.521,46.618 10.175,47.42C7.95,47.137 5.321,47.619 3.142,47.868C3.941,44.723 7.885,43.995 11.373,45.176Z" style="fill:white;"/>
    </g>
    <g transform="matrix(1,0,0,1,0,-6.266998)">
        <path d="M9.427,48.318C7.106,48.939 4.31,49.087 1.945,49.664C3.122,47.898 7.026,48.858 9.427,48.318Z" style="fill:white;"/>
    </g>
    <g transform="matrix(1,0,0,1,0,-6.266998)">
        <path d="M35.017,54.602C34.434,55.515 32.238,55.551 31.874,54.304C32.676,53.524 34.861,52.86 35.017,54.602Z" style="fill:white;"/>
    </g>
    <g transform="matrix(1,0,0,1,0,-6.266998)">
        <path d="M59.709,64.48C61.671,66.736 59.961,70.709 57.614,70.764C56.938,69.669 59.448,68.837 58.512,67.024C57.116,64.978 54.242,68.241 53.274,66.425C55.306,65.664 56.642,64.207 59.709,64.48Z" style="fill:white;"/>
    </g>
    <g transform="matrix(1,0,0,1,0,-6.266998)">
        <path d="M50.431,67.024C51.164,66.596 52.394,66.953 52.675,67.472C51.889,68.107 50.907,67.54 50.431,67.024Z" style="fill:white;"/>
    </g>
    <g transform="matrix(1,0,0,1,0,-6.266998)">
        <path d="M57.914,67.323C58.061,68.618 57.189,68.894 56.865,69.718C55.949,69.187 55.27,68.421 54.621,67.622C55.465,67.2 56.89,66.689 57.914,67.323Z" style="fill:white;"/>
    </g>
    <g transform="matrix(1,0,0,1,0,-6.266998)">
        <path d="M55.818,70.166C55.698,70.545 55.201,70.548 54.919,70.764C53.961,70.076 52.617,68.978 52.227,68.222C54.061,67.649 54.511,69.717 55.818,70.166Z" style="fill:white;"/>
    </g>
    <g transform="matrix(1,0,0,1,0,-6.266998)">
        <path d="M57.015,71.064C56.88,71.745 55.977,71.959 55.518,71.513C55.939,71.221 56.52,70.857 57.015,71.064Z" style="fill:white;"/>
    </g>
    <g transform="matrix(1,0,0,1,0,-6.266998)">
        <path d="M30.079,8.512C28.786,11.609 26.929,15.437 25.29,18.687C23.535,17.898 22.871,16.018 21.249,15.096C21.884,13.337 22.985,12.042 23.495,10.158C25.65,9.57 27.839,9.015 30.079,8.512Z" style="fill:white;"/>
    </g>
    <g transform="matrix(1,0,0,1,0,-6.266998)">
        <path d="M53.873,35.597C53.252,37.122 51.807,39.117 50.73,40.685C48.369,39.568 45.582,38.721 42.649,38.889C38.43,39.133 36.546,42.634 33.97,44.277C36.539,40.467 38.766,36.214 41.302,32.156C42.058,30.948 42.844,29.139 44.594,29.014C45.926,31.29 46.594,34.389 49.233,35.597C50.321,36.097 52.363,36.307 53.873,35.597Z" style="fill:white;"/>
    </g>
    <g transform="matrix(1,0,0,1,0,-6.266998)">
        <path d="M30.977,54.154C30.496,56.685 35.466,56.623 35.615,54.453C35.694,53.317 35.03,52.803 33.82,52.807C32.589,52.811 31.174,53.111 30.977,54.154ZM32.623,46.373C35.838,47.839 37.237,45.065 38.908,43.829C41.425,41.965 46.041,41.671 49.832,42.033C47.376,46.161 45.204,50.573 42.649,54.602C40.33,53.667 39.723,50.662 37.411,49.514C35.719,48.676 33.816,48.155 31.725,47.868C33.124,49.374 35.095,49.338 36.812,50.113C39.246,51.211 39.888,54.212 42.05,55.501C41.742,56.29 41.257,56.901 40.854,57.596C36.113,58.094 31.174,58.392 26.637,59.093C31.118,59.949 36.231,58.932 40.405,58.493C39.763,59.733 37.684,59.462 36.065,59.69C32.492,60.198 27.673,60.562 23.495,60.888C26.528,56.041 29.542,51.173 32.623,46.373Z" style="fill:white;"/>
    </g>
    <g transform="matrix(1,0,0,1,0,-6.266998)">
        <path d="M19.154,43.38C19.013,43.938 18.034,44.95 16.91,45.025C17.65,44.47 18.474,43.995 19.154,43.38Z" style="fill:white;"/>
    </g>
    <g transform="matrix(1,0,0,1,0,-6.266998)">
        <path d="M19.903,57.147C17.885,54.775 16.595,51.676 13.767,50.113C15.257,52.917 17.31,55.946 19.903,57.147ZM11.821,48.917C12.528,47.877 12.952,46.555 13.767,45.624C15.154,45.222 15.764,45.744 16.91,45.624C19.679,45.333 20.787,41.688 22.896,44.876C22.738,48.307 20.261,51.212 20.352,54.752C20.4,56.654 21.444,58.237 21.549,59.989C18.023,56.582 15.024,52.648 11.821,48.917Z" style="fill:white;"/>
    </g>
    <g transform="matrix(1,0,0,1,0,-6.266998)">
        <path d="M70.034,62.983C67.829,67.112 64.783,71.698 62.253,76.002C60.299,74.963 58.662,73.607 56.865,72.411C57.383,71.551 58.206,71.93 58.811,72.411C58.891,71.882 58.685,71.639 58.362,71.513C59.864,70.401 61.673,68.988 61.355,66.425C61.262,65.673 60.622,65.164 60.756,64.18C58.573,61.749 54.233,65.823 52.525,65.677C51.269,65.57 49.598,63.323 48.635,62.534C47.223,61.376 45.988,60.533 44.594,59.69C45.985,62.191 48.98,63.885 50.431,65.827C49.765,65.943 49.533,65.628 48.934,65.677C47.016,63.754 44.995,61.933 42.949,60.139C43.281,58.777 44.1,57.899 44.444,56.548C47.157,57.249 48.183,57.662 51.329,57.895C57.741,58.371 59.691,65.202 66.892,64.03C65.201,67.277 62.992,70.008 61.505,73.459C62.811,73.501 63.067,72.042 63.6,71.214C65.154,68.793 67.207,66.274 68.688,63.581C69.161,63.406 69.711,63.308 70.034,62.983Z" style="fill:white;"/>
    </g>
</svg>
