<?xml version="1.0" encoding="UTF-8" standalone="no"?>
<!DOCTYPE svg PUBLIC "-//W3C//DTD SVG 1.1//EN" "http://www.w3.org/Graphics/SVG/1.1/DTD/svg11.dtd">
<svg width="100%" height="100%" viewBox="0 0 78 64" version="1.1" xmlns="http://www.w3.org/2000/svg" xmlns:xlink="http://www.w3.org/1999/xlink" xml:space="preserve" xmlns:serif="http://www.serif.com/" style="fill-rule:evenodd;clip-rule:evenodd;stroke-linejoin:round;stroke-miterlimit:2;">
    <g transform="matrix(1,0,0,1,-6.273437,-330.404209)">
        <path d="M8.485,350.694C6.341,351.172 7.326,353.966 7.683,356.148C9.252,365.73 12.231,375.756 15.382,382.774C17.471,383.81 21.221,383.015 23.883,383.094C23.748,384.057 23.873,384.283 23.883,385.34C22.968,385.28 22.464,385.632 21.959,385.982C21.746,387.98 21.743,391.631 22.601,393.521C26.996,393.63 33.375,394.174 37.837,393.199C38.932,391.049 37.686,387.289 38.159,385.34C37.936,384.815 36.885,385.117 36.715,384.539C36.691,383.387 36.74,382.02 36.876,381.491C40.687,380.918 45.418,381.265 49.708,381.17C50.084,381.918 51.127,381.996 51.792,382.453C51.495,382.959 51.45,383.715 51.472,384.539C50.941,384.275 50.247,384.377 49.868,384.699C49.185,386.849 49.792,390.289 49.386,392.719C52.124,394.248 56.46,393.676 60.455,394.002C62.294,394.152 64.536,394.348 66.389,394.002C67.265,391.96 67.118,388.142 67.351,385.982C66.691,385.627 65.66,385.641 65.106,385.18C65.171,384.497 65.18,383.757 65.426,383.256C69.055,383.301 71.988,383.037 75.05,383.094C76.323,379.381 77.278,375.289 78.097,371.064C78.915,366.849 79.934,362.411 80.183,357.912C80.251,356.686 79.947,355.451 80.022,354.223C80.234,350.82 81.848,347.367 81.787,343.957C83.009,342.764 84.187,339.815 83.712,337.863C83.21,335.801 79.023,334.49 76.494,333.852C70.385,332.314 59.019,330.754 54.52,334.494C54.1,336.808 53.903,340.333 55.001,342.033C54.551,344.31 54.323,346.808 54.359,349.572C52.638,350.524 53.263,353.822 52.435,355.667C51.502,355.584 50.222,355.848 49.547,355.506C49.553,354.443 49.956,353.777 50.669,353.422C52.986,347.184 41.526,349.875 38.32,350.053C37.613,352.119 38.941,353.531 39.282,355.025C38.897,355.029 37.155,355.164 36.555,354.865C36.511,353.519 36.725,351.914 36.234,351.015C35.752,350.592 34.459,350.857 33.668,350.374C33.984,347.547 34.178,343.886 33.828,340.91C35.171,339.357 33.982,335.19 34.63,333.371C34.233,333.18 34.002,332.822 33.828,332.408C26.187,329.496 14.164,329.939 6.56,332.57C5.991,334.974 6.248,338.572 7.523,340.75C7.621,344.287 7.943,347.6 8.485,350.694Z" style="fill:rgb(3,4,4);"/>
    </g>
    <g transform="matrix(1,0,0,1,-6.273437,-330.404209)">
        <path d="M18.43,332.408L20.836,332.408C20.887,334.282 20.7,336.394 20.996,338.023L18.912,338.023C18.5,336.402 18.43,334.441 18.43,332.408Z" style="fill:white;"/>
    </g>
    <g transform="matrix(1,0,0,1,-6.273437,-330.404209)">
        <path d="M17.627,332.57C17.133,334.23 17.839,336.527 17.468,338.023C15.783,337.463 16.662,334.337 16.024,332.729C16.567,332.685 16.944,332.474 17.627,332.57Z" style="fill:white;"/>
    </g>
    <g transform="matrix(1,0,0,1,-6.273437,-330.404209)">
        <path d="M21.798,332.57L22.761,332.57C22.654,334.388 22.973,336.633 22.601,338.183C21.512,337.133 22.047,334.459 21.798,332.57Z" style="fill:white;"/>
    </g>
    <g transform="matrix(1,0,0,1,-6.273437,-330.404209)">
        <path d="M23.723,332.729C24.554,332.754 25.317,332.847 25.968,333.051C25.793,334.693 25.783,336.5 25.808,338.344C25.005,338.452 24.566,338.195 23.883,338.183C23.994,336.201 23.723,334.6 23.723,332.729Z" style="fill:white;"/>
    </g>
    <g transform="matrix(1,0,0,1,-6.273437,-330.404209)">
        <path d="M15.222,332.89C15.208,334.723 15.466,336.282 15.703,337.863C15.281,338.029 14.719,338.055 14.099,338.023C14.09,336.215 13.838,334.648 13.617,333.051C14.318,333.163 14.522,332.778 15.222,332.89Z" style="fill:white;"/>
    </g>
    <g transform="matrix(1,0,0,1,-6.273437,-330.404209)">
        <path d="M12.495,333.211C13.025,334.34 12.928,336.947 12.816,338.183C11.814,337.353 11.993,334.533 11.854,333.371C12.107,333.358 12.465,333.449 12.495,333.211Z" style="fill:white;"/>
    </g>
    <g transform="matrix(1,0,0,1,-6.273437,-330.404209)">
        <path d="M27.091,333.211L28.053,333.211C27.74,334.822 27.875,336.883 27.572,338.504C26.714,338.379 27.107,336.801 27.091,335.937C27.071,334.85 26.951,334.12 27.091,333.691L27.091,333.211Z" style="fill:white;"/>
    </g>
    <g transform="matrix(1,0,0,1,-6.273437,-330.404209)">
        <path d="M10.249,333.531L10.731,333.531C10.795,335.005 11.545,337.367 11.051,338.344C10.196,337.422 10.09,334.94 10.249,333.531Z" style="fill:white;"/>
    </g>
    <g transform="matrix(1,0,0,1,-6.273437,-330.404209)">
        <path d="M29.176,333.531C29.942,333.408 30.209,333.783 30.941,333.691C30.856,335.478 30.632,337.127 30.62,338.985C30.221,338.85 29.76,338.775 29.176,338.824L29.176,333.531Z" style="fill:white;"/>
    </g>
    <g transform="matrix(1,0,0,1,-6.273437,-330.404209)">
        <path d="M9.126,333.852C9.095,335.506 9.743,337.277 9.607,338.504L8.485,338.504C8.591,337.207 6.869,333.822 9.126,333.852Z" style="fill:white;"/>
    </g>
    <g transform="matrix(1,0,0,1,-6.273437,-330.404209)">
        <path d="M31.742,333.852C31.933,334.037 32.31,334.034 32.705,334.014C32.5,335.68 32.85,337.9 32.224,339.146C31.15,338.644 32.028,335.739 31.742,334.334L31.742,333.852Z" style="fill:white;"/>
    </g>
    <g transform="matrix(1,0,0,1,-6.273437,-330.404209)">
        <path d="M63.662,334.334C63.679,336.349 63.949,338.11 64.143,339.947L62.219,339.947C62.29,337.844 61.902,336.201 61.737,334.334C62.458,334.435 63.106,333.896 63.662,334.334Z" style="fill:white;"/>
    </g>
    <g transform="matrix(1,0,0,1,-6.273437,-330.404209)">
        <path d="M60.775,334.334C61.068,336.072 61.051,338.121 61.256,339.947C60.671,339.997 60.212,339.922 59.812,339.787C59.466,338.209 59.47,336.281 59.171,334.655C59.594,334.435 60.264,334.465 60.775,334.334Z" style="fill:white;"/>
    </g>
    <g transform="matrix(1,0,0,1,-6.273437,-330.404209)">
        <path d="M64.464,334.334L65.748,334.334C65.641,336.152 65.96,338.396 65.587,339.947C64.676,339.655 65.061,338.275 64.945,337.381C64.824,336.445 64.502,335.564 64.464,334.814L64.464,334.334Z" style="fill:white;"/>
    </g>
    <g transform="matrix(1,0,0,1,-6.273437,-330.404209)">
        <path d="M66.71,334.334C67.846,334.267 68.79,334.392 69.757,334.494C69.812,336.418 70.007,338.201 69.918,340.268C68.751,340.366 67.902,340.145 66.87,340.107C67.208,338.348 66.841,336.136 66.71,334.334Z" style="fill:white;"/>
    </g>
    <g transform="matrix(1,0,0,1,-6.273437,-330.404209)">
        <path d="M70.559,334.655C71.148,334.762 71.779,334.825 72.324,334.975C72.052,336.736 72.033,338.748 71.842,340.59C71.7,340.465 71.481,340.417 71.2,340.429C70.367,339.125 70.845,336.507 70.559,334.655Z" style="fill:white;"/>
    </g>
    <g transform="matrix(1,0,0,1,-6.273437,-330.404209)">
        <path d="M58.209,334.814C58.529,336.365 58.529,338.237 58.851,339.787C57.864,339.709 57.317,340.072 56.284,339.947C56.257,338.371 55.922,337.101 55.963,335.457C56.779,335.31 57.326,334.894 58.209,334.814Z" style="fill:white;"/>
    </g>
    <g transform="matrix(1,0,0,1,-6.273437,-330.404209)">
        <path d="M73.286,335.136C73.953,335.377 74.77,335.47 75.532,335.617C75.421,337.432 75.141,339.076 75.05,340.91C74.291,340.974 73.946,340.624 73.126,340.75C73.003,338.702 73.332,337.106 73.286,335.136Z" style="fill:white;"/>
    </g>
    <g transform="matrix(1,0,0,1,-6.273437,-330.404209)">
        <path d="M76.334,335.937C76.787,335.805 76.749,336.164 77.135,336.098C76.776,337.664 76.729,339.541 76.334,341.07C75.837,340.125 76.231,337.348 76.334,335.937Z" style="fill:white;"/>
    </g>
    <g transform="matrix(1,0,0,1,-6.273437,-330.404209)">
        <path d="M77.937,336.419C78.576,336.369 78.744,336.789 79.38,336.74C79.054,338.283 78.506,339.607 78.578,341.551C78.389,341.367 78.012,341.37 77.617,341.391C77.481,340.111 77.981,338.136 77.937,336.419Z" style="fill:white;"/>
    </g>
    <g transform="matrix(1,0,0,1,-6.273437,-330.404209)">
        <path d="M80.344,337.221C80.848,337.412 81.192,337.763 81.787,337.863C81.561,339.346 80.971,340.469 80.824,342.033C80.308,341.962 79.956,341.725 79.38,341.712C79.84,340.353 79.961,338.656 80.344,337.221Z" style="fill:white;"/>
    </g>
    <g transform="matrix(1,0,0,1,-6.273437,-330.404209)">
        <path d="M23.563,340.107C19.768,340.912 14.897,340.148 10.731,340.268C14.537,339.563 19.438,340.11 23.563,340.107Z" style="fill:white;"/>
    </g>
    <g transform="matrix(1,0,0,1,-6.273437,-330.404209)">
        <path d="M31.583,341.551C31.618,344.688 31.202,347.373 31.261,350.533C23.779,350.254 18.718,350.062 10.409,350.855C9.95,347.946 9.678,344.849 9.287,341.873C16.585,341.621 24.278,341.31 31.583,341.551Z" style="fill:white;"/>
    </g>
    <g transform="matrix(1,0,0,1,-6.273437,-330.404209)">
        <path d="M60.455,342.193C67.516,341.654 74.073,343.01 80.664,343.476C79.551,344.675 77.586,343.818 76.013,343.637C71.097,343.07 65.473,342.612 60.455,342.193Z" style="fill:white;"/>
    </g>
    <g transform="matrix(1,0,0,1,-6.273437,-330.404209)">
        <path d="M79.862,345.08C79.522,347.526 78.714,350.878 78.097,353.582C71.361,352.031 64.021,351.084 56.604,350.214C56.315,349.919 56.793,349.105 56.926,348.288C57.128,347.024 56.919,345.353 57.246,344.278L57.246,343.798C65.257,343.752 72.044,344.932 79.862,345.08Z" style="fill:white;"/>
    </g>
    <g transform="matrix(1,0,0,1,-6.273437,-330.404209)">
        <path d="M49.065,351.176C48.866,351.672 48.816,352.316 48.745,352.939C46.385,352.519 43.499,352.625 40.725,352.619C40.64,352.17 40.49,351.785 40.404,351.336C43.213,351.162 46.337,350.959 49.065,351.176Z" style="fill:white;"/>
    </g>
    <g transform="matrix(1,0,0,1,-6.273437,-330.404209)">
        <path d="M55.161,352.139C57.85,352.551 60.566,352.935 63.181,353.422C60.625,353.73 57.651,353.07 55.001,352.939C55.135,352.754 55.212,352.51 55.161,352.139Z" style="fill:white;"/>
    </g>
    <g transform="matrix(1,0,0,1,-6.273437,-330.404209)">
        <path d="M8.966,353.582C9.008,352.746 10.089,352.83 10.57,352.779C13.949,352.43 18.013,352.922 21.157,352.779C21.801,352.75 22.847,352.779 24.205,352.779C24.256,352.779 26.542,353.08 26.771,352.939C25.974,353.425 24.109,353.033 23.081,353.099C18.628,353.392 13.298,354.243 8.966,353.582Z" style="fill:white;"/>
    </g>
    <g transform="matrix(1,0,0,1,-6.273437,-330.404209)">
        <path d="M17.307,374.433C16.172,368.029 13.432,363.23 12.014,357.11L11.533,357.11C11.921,363.787 14.716,369.428 17.307,374.433ZM34.31,355.025C32.388,355.243 30.129,355.123 28.535,355.667C26.984,359.588 30.91,360.341 34.63,359.677C35.014,362.292 35.382,365.762 35.272,368.339C33.163,368.368 30.819,368.163 29.337,368.82C28.503,373.074 31.369,373.631 34.951,373.471C34.894,375.719 35.23,377.576 35.272,379.726C29.673,380.652 23.24,380.741 16.826,380.849C14.143,372.732 11.641,364.433 9.607,355.667C16.719,355.04 26.871,354.154 33.507,353.422C34.339,353.329 34.201,353.95 34.31,355.025Z" style="fill:white;"/>
    </g>
    <g transform="matrix(1,0,0,1,-6.273437,-330.404209)">
        <path d="M48.264,354.062C48.129,354.463 48.054,354.922 48.104,355.506C45.634,355.355 42.853,355.517 40.725,355.025L40.725,354.544C42.656,353.803 46.016,354.488 48.264,354.062Z" style="fill:white;"/>
    </g>
    <g transform="matrix(1,0,0,1,-6.273437,-330.404209)">
        <path d="M74.409,367.537C75.8,365.529 76.936,360.316 75.852,357.432C74.714,360.142 74.83,364.107 74.409,367.537ZM77.295,355.827C76.752,364.961 75.408,373.293 73.607,381.17C66.366,380.971 59.069,380 51.953,380.208C52.255,378.265 52.5,376.264 52.435,373.952C54.516,374.055 56.252,373.814 58.209,373.791C59.098,373.174 58.959,370.984 58.529,369.941C57.155,369.178 54.999,369.196 53.075,368.98C53.335,366.031 53.844,363.332 53.877,360.158C55.652,360.148 57.274,360.14 58.529,359.998C59.306,359.469 59.418,357.496 59.171,356.469C58.494,355.328 55.989,356.015 54.359,355.827C54.292,355.492 54.469,355.402 54.52,355.185C54.505,354.958 54.493,354.731 54.68,354.704C62.231,355.066 69.423,355.787 77.295,355.827Z" style="fill:white;"/>
    </g>
    <g transform="matrix(1,0,0,1,-6.273437,-330.404209)">
        <path d="M57.406,357.912C56.967,358.818 55.707,358.39 55.001,358.393C46.613,358.438 37.866,358.29 29.979,357.592L29.979,357.271C29.952,357.084 30.014,356.985 30.139,356.95C39.279,357.22 48.84,357.068 57.406,357.912Z" style="fill:white;"/>
    </g>
    <g transform="matrix(1,0,0,1,-6.273437,-330.404209)">
        <path d="M36.876,359.677L37.678,359.677C37.724,361.978 37.644,365.517 37.678,368.339C36.921,365.94 37.02,362.687 36.876,359.677Z" style="fill:white;"/>
    </g>
    <g transform="matrix(1,0,0,1,-6.273437,-330.404209)">
        <path d="M50.349,359.998C50.936,360.106 51.515,360.222 52.274,360.158C51.244,362.496 51.806,366.427 50.991,368.98C49.647,369.158 50.328,367.695 50.349,366.895C50.404,364.75 50.355,361.617 50.349,359.998Z" style="fill:white;"/>
    </g>
    <g transform="matrix(1,0,0,1,-6.273437,-330.404209)">
        <path d="M41.367,360.959C41.013,363.431 40.752,365.965 41.207,368.498L39.442,368.498C39.527,366.017 39.258,363.182 39.603,360.959L41.367,360.959Z" style="fill:white;"/>
    </g>
    <g transform="matrix(1,0,0,1,-6.273437,-330.404209)">
        <path d="M44.896,360.959C44.917,363.601 44.618,365.921 44.735,368.658C43.83,368.708 43.309,368.375 42.329,368.498C42.688,366.291 42.395,363.431 42.49,360.959L44.896,360.959Z" style="fill:white;"/>
    </g>
    <g transform="matrix(1,0,0,1,-6.273437,-330.404209)">
        <path d="M48.585,361.12C48.615,363.824 48.481,366.363 48.264,368.82C47.347,368.935 46.831,368.648 46.018,368.658C46.686,366.295 46.511,363.742 46.5,360.959C47.239,360.969 48.067,360.89 48.585,361.12Z" style="fill:white;"/>
    </g>
    <g transform="matrix(1,0,0,1,-6.273437,-330.404209)">
        <path d="M56.765,372.187C49.377,372.29 39.694,371.836 31.903,371.225C31.753,371.09 31.561,370.203 31.903,370.102C38.383,369.787 44.297,370.945 49.868,371.385C52.257,371.574 54.619,371.367 56.765,372.187Z" style="fill:white;"/>
    </g>
    <g transform="matrix(1,0,0,1,-6.273437,-330.404209)">
        <path d="M37.036,373.631L39.442,373.631C39.427,375.25 39.441,376.84 39.923,377.962C41.594,378.56 44.731,378.289 46.66,378.123C47.564,377.316 47.433,375.474 47.461,373.791C48.529,373.848 49.849,373.65 50.669,373.952C50.443,375.704 50.493,377.731 50.349,379.566C45.874,378.939 42.079,378.923 37.357,379.245C37.448,377.176 37.244,375.4 37.036,373.631Z" style="fill:white;"/>
    </g>
    <g transform="matrix(1,0,0,1,-6.273437,-330.404209)">
        <path d="M41.527,373.631C43.085,373.57 44.472,373.681 45.857,373.791L45.857,376.84C44.175,376.928 42.87,376.49 41.367,376.84C41.209,376.152 41.496,374.65 41.527,373.631Z" style="fill:white;"/>
    </g>
    <g transform="matrix(1,0,0,1,-6.273437,-330.404209)">
        <path d="M34.791,381.973C35.506,382.325 34.922,383.979 35.111,384.859C31.899,384.909 28.923,385.195 25.648,385.18C25.401,384.517 25.239,383.77 25.166,382.934C28.673,382.912 31.739,382.449 34.791,381.973Z" style="fill:white;"/>
    </g>
    <g transform="matrix(1,0,0,1,-6.273437,-330.404209)">
        <path d="M53.075,382.453C56.53,382.635 59.918,382.883 63.502,382.934C63.85,383.571 63.067,384.264 63.181,385.18C59.916,385.077 56.845,384.78 53.396,384.859C53.174,384.172 53.042,383.396 53.075,382.453Z" style="fill:white;"/>
    </g>
    <g transform="matrix(1,0,0,1,-6.273437,-330.404209)">
        <path d="M36.394,386.463C36.022,388.353 36.288,389.89 36.234,392.077L35.111,392.077C35.886,390.553 34.084,386.451 36.394,386.463Z" style="fill:white;"/>
    </g>
    <g transform="matrix(1,0,0,1,-6.273437,-330.404209)">
        <path d="M33.507,386.623L33.828,386.623C34.406,387.703 34.294,390.817 33.828,391.917C33.167,390.8 33.245,388.133 33.507,386.623Z" style="fill:white;"/>
    </g>
    <g transform="matrix(1,0,0,1,-6.273437,-330.404209)">
        <path d="M54.038,386.784C53.99,388.34 53.785,389.738 53.877,391.435L51.792,391.435L51.792,386.784C52.246,386.529 53.584,386.529 54.038,386.784Z" style="fill:white;"/>
    </g>
    <g transform="matrix(1,0,0,1,-6.273437,-330.404209)">
        <path d="M31.742,386.784L32.384,386.784C31.834,388.356 32.867,391.082 31.903,391.917C31.775,390.865 31.678,387.989 31.742,386.784Z" style="fill:white;"/>
    </g>
    <g transform="matrix(1,0,0,1,-6.273437,-330.404209)">
        <path d="M55.161,386.784L56.123,386.784C56.029,388.454 56.267,390.457 55.643,391.596C54.572,391.061 55.443,388.587 55.161,387.265L55.161,386.784Z" style="fill:white;"/>
    </g>
    <g transform="matrix(1,0,0,1,-6.273437,-330.404209)">
        <path d="M28.053,386.945C28.248,388.567 28.445,390.189 28.695,391.756L27.412,391.756C27.323,390.082 26.86,388.78 26.771,387.104C27.375,387.228 27.538,386.909 28.053,386.945Z" style="fill:white;"/>
    </g>
    <g transform="matrix(1,0,0,1,-6.273437,-330.404209)">
        <path d="M29.016,386.945L30.78,386.945C30.353,388.564 30.993,390.449 30.62,391.917C29.406,391.152 29.63,388.95 29.176,387.426C28.988,387.399 29.041,387.133 29.016,386.945Z" style="fill:white;"/>
    </g>
    <g transform="matrix(1,0,0,1,-6.273437,-330.404209)">
        <path d="M57.086,386.945L58.529,386.945C58.314,388.439 58.123,389.96 58.209,391.756C57.657,391.826 57.309,391.693 56.926,391.596C57.285,390.351 56.99,388.451 57.086,386.945Z" style="fill:white;"/>
    </g>
    <g transform="matrix(1,0,0,1,-6.273437,-330.404209)">
        <path d="M25.808,387.104C25.357,388.586 25.874,390.305 25.968,391.756L24.364,391.756C24.165,390.245 24.012,388.687 23.723,387.265C24.43,387.224 24.963,387.008 25.808,387.104Z" style="fill:white;"/>
    </g>
    <g transform="matrix(1,0,0,1,-6.273437,-330.404209)">
        <path d="M59.972,387.104C60.431,387.961 59.932,390.576 59.812,391.917C58.982,391.474 59.08,387.483 59.972,387.104Z" style="fill:white;"/>
    </g>
    <g transform="matrix(1,0,0,1,-6.273437,-330.404209)">
        <path d="M60.935,387.104L62.059,387.104C61.38,388.405 62.306,391.308 61.096,392.077C60.734,390.728 61.033,388.718 60.935,387.104Z" style="fill:white;"/>
    </g>
    <g transform="matrix(1,0,0,1,-6.273437,-330.404209)">
        <path d="M63.662,387.104C63.4,388.767 63.555,390.848 63.021,392.237C61.7,391.627 62.795,388.558 62.7,387.104L63.662,387.104Z" style="fill:white;"/>
    </g>
    <g transform="matrix(1,0,0,1,-6.273437,-330.404209)">
        <path d="M65.748,387.104C65.199,388.588 65.367,390.788 64.945,392.398C63.747,392.213 64.753,388.084 64.945,387.104L65.748,387.104Z" style="fill:white;"/>
    </g>
</svg>
