<?xml version="1.0" encoding="UTF-8" standalone="no"?>
<!DOCTYPE svg PUBLIC "-//W3C//DTD SVG 1.1//EN" "http://www.w3.org/Graphics/SVG/1.1/DTD/svg11.dtd">
<svg width="100%" height="100%" viewBox="0 0 76 84" version="1.1" xmlns="http://www.w3.org/2000/svg" xmlns:xlink="http://www.w3.org/1999/xlink" xml:space="preserve" xmlns:serif="http://www.serif.com/" style="fill-rule:evenodd;clip-rule:evenodd;stroke-linejoin:round;stroke-miterlimit:2;">
    <g transform="matrix(1,0,0,1,-220.43695,-0.68252)">
        <path d="M242.193,81.623C247.843,83.084 256.613,84.228 264.027,83.723C266.136,83.578 269.204,83.172 271.025,82.603C271.755,82.375 272.284,81.777 272.985,81.623C273.789,81.446 274.544,81.637 275.224,81.483C276.416,81.214 277.136,80.598 278.163,80.085C279.164,81.619 280.992,82.48 283.623,82.182C286.393,81.87 288.566,80.126 290.759,77.983C293.131,75.669 295.495,72.2 295.938,69.446C296.591,65.395 294.547,62.22 291.039,62.448C287.713,62.666 287.908,67.344 283.903,66.228C285.089,64.08 285.783,61.951 286.702,59.089C288.457,53.621 289.57,44.002 287.26,38.796C288.39,36.15 288.708,32.722 289.082,28.578C289.355,25.531 289.716,22.136 289.5,19.341C289.367,17.609 288.713,15.429 288.381,14.162C288.201,13.481 288.262,12.794 288.101,12.343C287.313,10.147 283.471,6.543 281.523,5.485C280.724,5.05 277.963,3.821 276.764,4.084C275.77,4.304 274.587,6.307 274.104,7.584C273.618,8.87 273.572,10.06 273.264,11.363C271.365,10.228 269.395,9.168 266.126,9.403C266.159,5.091 264.899,2.278 261.788,1.146C259.446,0.292 255.153,0.672 253.39,1.845C251.134,3.349 250.583,6.403 251.01,9.682C248.113,10.051 245.782,11.732 244.012,12.763C243.708,9.918 242.17,5.99 240.233,5.345C237.505,4.436 234.048,5.547 232.255,6.464C230.158,7.538 229.024,9.72 227.357,10.523C225.023,19.539 224.755,32.273 227.637,40.895C226.116,46.74 227.948,53.225 228.897,58.67C227.081,61.644 222.096,62.814 220.779,66.228C219.75,68.898 221.258,71.394 222.459,73.085C225.68,77.625 234.5,84.845 242.193,81.623Z" style="fill:rgb(3,4,4);"/>
    </g>
    <g transform="matrix(1,0,0,1,-220.43695,-0.68252)">
        <path d="M263.327,4.084C260.342,3.641 255.874,3.589 252.831,4.505C252.659,2.751 258.629,1.446 261.368,2.545C262.317,2.927 262.661,3.78 263.327,4.084Z" style="fill:white;"/>
    </g>
    <g transform="matrix(1,0,0,1,-220.43695,-0.68252)">
        <path d="M261.508,5.624C262.058,6.66 261.663,8.253 261.508,9.403C259.176,9.31 257.156,9.53 254.93,9.543C254.677,8.396 254.238,7.436 254.369,5.904C256.351,5.357 259.355,5.189 261.508,5.624Z" style="fill:white;"/>
    </g>
    <g transform="matrix(1,0,0,1,-220.43695,-0.68252)">
        <path d="M285.861,11.923C283.566,14.979 282.203,20.397 281.102,24.939C280.804,26.174 280.704,27.754 279.562,28.438C280.811,22.64 281.649,16.433 284.041,11.782C281.935,12.106 281.607,14.565 280.963,16.261C280.277,18.064 279.49,19.999 279.143,21.86C278.4,19.324 277.442,16.386 276.064,14.302C275.692,13.741 274.769,13.038 274.665,12.482C274.311,10.608 276.388,7.919 276.624,6.184C280.392,5.417 284.112,9.303 285.861,11.923Z" style="fill:white;"/>
    </g>
    <g transform="matrix(1,0,0,1,-220.43695,-0.68252)">
        <path d="M252.97,6.045C252.98,7.34 253.188,8.438 253.39,9.543C253.072,9.82 252.608,9.394 251.99,9.543L251.99,6.184C252.432,6.252 252.485,5.932 252.97,6.045Z" style="fill:white;"/>
    </g>
    <g transform="matrix(1,0,0,1,-220.43695,-0.68252)">
        <path d="M263.327,6.045L264.027,6.045C264.448,6.883 264.378,8.213 264.447,9.403L263.188,9.403C263.498,8.546 263.247,7.13 263.327,6.045Z" style="fill:white;"/>
    </g>
    <g transform="matrix(1,0,0,1,-220.43695,-0.68252)">
        <path d="M237.435,23.119C236.179,19.906 234.324,16.847 232.255,14.162C231.689,13.427 230.958,12.069 229.736,12.343C229.353,12.955 230.279,13.369 230.577,13.742C232.521,16.181 234.211,19.503 235.475,22.84C235.979,24.171 236.91,25.557 236.595,27.037C234.671,22.197 232.59,17.512 229.736,13.602C229.388,13.345 228.861,13.264 228.476,13.042C228.188,11.892 229.364,11.25 230.017,10.663C230.751,10.002 231.568,9.37 232.396,8.844C234.387,7.575 236.583,7.318 238.694,6.604C239.499,6.331 240.813,9.125 241.214,9.964C241.464,10.489 241.603,11.001 242.053,11.923C242.232,12.289 243.171,13.649 243.172,13.602C243.155,14.019 242.101,14.512 241.773,14.862C239.844,16.912 238.401,20.133 237.435,23.119Z" style="fill:white;"/>
    </g>
    <g transform="matrix(1,0,0,1,-220.43695,-0.68252)">
        <path d="M245.552,18.5C245.595,15.67 248.305,13.01 250.452,12.202C252.834,11.304 259.609,11.837 262.907,11.643C265.423,11.494 268.702,11.389 270.885,12.622C272.048,13.279 274.634,15.831 274.665,16.82C274.716,18.536 272.315,19.466 270.185,19.341C268.31,19.229 266.252,18.473 264.167,18.081C262.092,17.691 260.12,17.095 257.868,17.101C255.465,17.109 253.178,17.685 251.291,18.361C249.449,19.02 247.278,20.335 245.552,18.5Z" style="fill:white;"/>
    </g>
    <g transform="matrix(1,0,0,1,-220.43695,-0.68252)">
        <path d="M286.42,13.463C286.584,13.439 286.67,13.493 286.702,13.602C288.214,20.588 287.74,29.738 286.281,36.416C284.869,35.378 286.05,33.394 286.42,31.797C287.572,26.832 287.855,19.362 286.42,13.882L286.42,13.463Z" style="fill:white;"/>
    </g>
    <g transform="matrix(1,0,0,1,-220.43695,-0.68252)">
        <path d="M227.917,15.002C228.081,14.979 228.167,15.032 228.198,15.142C226.958,20.655 227.631,26.971 228.337,32.217C228.61,34.238 229.257,36.226 228.618,37.955C226.93,31.258 226.778,22.349 227.917,15.002Z" style="fill:white;"/>
    </g>
    <g transform="matrix(1,0,0,1,-220.43695,-0.68252)">
        <path d="M285.582,15.561C286.799,21.423 286.009,28.808 284.323,33.477C283.835,33.761 283.394,32.643 282.921,32.077C282.396,31.446 281.696,30.842 281.382,30.258C282.973,25.55 283.968,20.246 285.582,15.561Z" style="fill:white;"/>
    </g>
    <g transform="matrix(1,0,0,1,-220.43695,-0.68252)">
        <path d="M229.318,15.842C231.756,19.375 233.073,24.029 235.055,28.018C232.635,29.144 231.367,31.421 230.296,33.896C229.19,28.679 228.964,22.08 229.318,15.842Z" style="fill:white;"/>
    </g>
    <g transform="matrix(1,0,0,1,-220.43695,-0.68252)">
        <path d="M242.333,17.52C242.433,19.801 243.403,21.211 244.993,22C244.741,22.634 244.893,23.673 244.852,24.519C244.11,23.274 242.319,23.837 242.613,25.779C242.804,27.039 244.668,27.776 245.273,28.158C245.359,29.704 245.095,31.602 245.412,32.917C243.571,33.286 243.746,36.108 245.412,36.555C246.238,39.43 246.232,42.826 247.092,45.794C247.424,46.941 248.257,48.151 248.212,49.992C248.184,51.067 247.502,52.392 248.912,52.931C246.663,53.841 244.635,54.406 243.034,55.871C238.601,59.922 238.436,68.547 239.814,75.885C237.972,72.595 236.174,69.261 235.895,64.409C240.102,59.879 242.96,54.109 242.613,46.213C242.424,41.884 241.35,37.598 239.955,34.176C239.49,33.039 238.698,31.701 238.555,30.678C238.224,28.336 239.09,25.693 239.674,23.539C240.372,20.962 241.072,19.265 242.333,17.52Z" style="fill:white;"/>
    </g>
    <g transform="matrix(1,0,0,1,-220.43695,-0.68252)">
        <path d="M276.484,20.04C277.145,21.607 278.091,26.35 277.183,28.997C276.776,30.187 275.452,31.119 274.803,32.496C274.229,33.719 273.725,35.394 273.684,37.115C273.413,48.856 271.087,63.173 282.083,65.807C280.37,70.859 279.346,76.602 274.803,78.825C278.966,70.919 275.621,59.412 270.885,54.61C269.897,54.387 269.331,53.739 268.367,53.491C268.549,51.994 269.071,50.836 269.066,49.153C269.688,49.042 269.906,49.339 270.465,49.292C272.134,48.534 271.691,45.16 269.486,45.794C270.112,43.387 270.381,40.623 270.746,37.955C272.385,37.722 273.377,35.438 271.445,34.456C271.646,31.531 272.15,28.908 272.145,25.779C272.865,25.217 273.433,24.243 272.845,23.119C274.998,23.033 275.825,21.62 276.484,20.04Z" style="fill:white;"/>
    </g>
    <g transform="matrix(1,0,0,1,-220.43695,-0.68252)">
        <path d="M269.906,22.979C265.243,25.176 260.015,26.806 255.769,29.417C252.395,27.986 248.859,26.719 245.833,24.939C245.781,24.049 246.081,23.508 245.973,22.559C249.249,23.624 251.214,22.075 253.95,21.3C255.638,20.823 257.564,20.848 259.127,20.46C259.957,20.255 261.452,20.776 262.627,20.88C265.545,21.139 267.427,22.188 269.906,22.979Z" style="fill:white;"/>
    </g>
    <g transform="matrix(1,0,0,1,-220.43695,-0.68252)">
        <path d="M271.025,23.68C271.15,23.741 271.276,23.803 271.305,23.959C270.525,25.032 269.028,25.243 267.805,25.779C265.51,26.784 263.139,27.933 260.668,28.997C259.531,29.488 258.249,30.352 257.03,29.977C261.673,27.857 266.643,26.061 271.025,23.68Z" style="fill:white;"/>
    </g>
    <g transform="matrix(1,0,0,1,-220.43695,-0.68252)">
        <path d="M270.045,34.875C266.313,33.569 262.174,32.67 259.127,30.678C263.349,29.487 267.002,27.727 270.465,25.779C271.211,28.583 269.845,31.685 270.045,34.875Z" style="fill:white;"/>
    </g>
    <g transform="matrix(1,0,0,1,-220.43695,-0.68252)">
        <path d="M246.251,28.718C247.834,29.656 249.892,30.116 251.291,31.237C249.698,31.836 248.142,32.474 246.672,33.197C246.39,31.845 246.247,30.356 246.251,28.718Z" style="fill:white;"/>
    </g>
    <g transform="matrix(1,0,0,1,-220.43695,-0.68252)">
        <path d="M236.456,30.117C236.574,30.092 236.587,30.172 236.595,30.258C236.611,30.66 236.518,31.174 236.735,31.377C239.296,35.719 240.529,41.394 240.933,47.892C239.963,42.005 237.666,37.445 232.116,36.136C232.848,33.416 234.471,31.585 236.456,30.117Z" style="fill:white;"/>
    </g>
    <g transform="matrix(1,0,0,1,-220.43695,-0.68252)">
        <path d="M284.181,37.255C281.185,38.318 279.296,40.487 277.464,42.714C277.238,39.689 277.955,36.393 278.863,34.037C277.683,34.926 277.236,36.83 276.764,38.934C276.22,41.364 276.559,44.248 275.365,45.794C275.456,40.1 274.797,32.442 279.282,30.678C281.167,32.618 282.819,34.793 284.181,37.255Z" style="fill:white;"/>
    </g>
    <g transform="matrix(1,0,0,1,-220.43695,-0.68252)">
        <path d="M265.007,36.416C263.233,37.626 261.196,38.544 258.989,39.634C258.396,39.928 257.466,40.597 257.03,40.614C256.238,40.647 255.003,39.697 254.09,39.216C251.852,38.033 249.882,36.946 247.932,35.576C250.184,34.47 252.774,33.701 254.93,32.496C258.187,33.904 261.521,35.238 265.007,36.416Z" style="fill:white;"/>
    </g>
    <g transform="matrix(1,0,0,1,-220.43695,-0.68252)">
        <path d="M267.386,37.115C266.057,38.052 264.43,38.742 262.907,39.494C261.424,40.229 260.017,41.326 258.428,41.455C259.729,40.467 261.282,39.725 262.769,38.934C264.176,38.185 265.619,36.953 267.386,37.115Z" style="fill:white;"/>
    </g>
    <g transform="matrix(1,0,0,1,-220.43695,-0.68252)">
        <path d="M269.206,37.536C269.662,39.769 268.679,42.977 268.367,45.372C265.451,44.601 262.638,43.729 260.528,42.156C263.641,40.832 266.302,39.063 269.206,37.536Z" style="fill:white;"/>
    </g>
    <g transform="matrix(1,0,0,1,-220.43695,-0.68252)">
        <path d="M247.092,38.234C249.02,39.713 251.425,40.713 253.25,42.294C251.484,42.907 250.021,43.825 248.352,44.534C248.057,42.309 247.354,40.492 247.092,38.234Z" style="fill:white;"/>
    </g>
    <g transform="matrix(1,0,0,1,-220.43695,-0.68252)">
        <path d="M285.301,39.216C280.768,41.167 277.386,44.269 275.224,48.592C275.655,45.511 277.548,43.986 279.703,41.873C281.35,40.259 282.462,39.221 284.602,38.234C285.15,38.247 284.967,38.99 285.301,39.216Z" style="fill:white;"/>
    </g>
    <g transform="matrix(1,0,0,1,-220.43695,-0.68252)">
        <path d="M234.355,59.789C234.404,58.045 233.246,56.676 232.676,55.172C231.509,52.09 231.416,48.664 230.856,44.953C230.677,44.947 230.664,44.774 230.436,44.813C229.885,50.713 231.131,56.783 234.355,59.789ZM231.278,42.994C231.569,42.631 231.433,41.802 230.856,41.873C230.348,42.169 230.312,43.152 231.278,42.994ZM232.956,63.708C231.276,56.927 228.21,48.061 230.856,40.335C234.424,41.464 236.822,44.782 238.134,48.733C238.829,50.823 239.519,54.121 239.114,55.871C238.801,57.219 237.568,59.057 236.595,60.489C235.603,61.949 234.266,63.449 232.956,63.708Z" style="fill:white;"/>
    </g>
    <g transform="matrix(1,0,0,1,-220.43695,-0.68252)">
        <path d="M280.403,60.349C280.274,61.012 281.319,62.12 282.362,61.329C282.244,60.39 280.646,59.105 280.403,60.349ZM276.344,48.872C276.955,52.601 276.813,57.08 279.003,59.23C278.825,55.979 277.601,52.04 277.603,48.733C277.605,45.56 279.871,44.414 281.523,42.575C281.867,42.696 281.835,43.193 282.362,43.134C282.991,43.065 282.559,42.354 282.781,42.156C283.785,41.804 284.593,41.259 285.441,40.754C285.56,40.728 285.574,40.809 285.582,40.895C286.928,45.256 286.425,51.484 285.301,56.01C284.814,57.972 284.48,60.122 284.041,61.049C283.765,61.634 282.618,62.927 282.083,63.009C281.246,63.134 278.728,61.774 278.163,61.329C276.282,59.843 274.843,54.219 275.224,51.532C275.371,50.501 276.195,49.818 276.344,48.872Z" style="fill:white;"/>
    </g>
    <g transform="matrix(1,0,0,1,-220.43695,-0.68252)">
        <path d="M255.349,43.275C253.426,44.246 250.973,45.425 248.912,45.794C250.64,44.769 252.586,43.963 254.23,42.855C254.775,42.822 254.956,43.155 255.349,43.275Z" style="fill:white;"/>
    </g>
    <g transform="matrix(1,0,0,1,-220.43695,-0.68252)">
        <path d="M262.907,46.913C258.902,48.506 254.461,49.664 250.032,50.831C249.554,49.955 249.527,48.629 249.332,47.472C251.918,46.513 254.098,45.148 256.467,43.974C258.682,44.887 260.713,45.981 262.907,46.913Z" style="fill:white;"/>
    </g>
    <g transform="matrix(1,0,0,1,-220.43695,-0.68252)">
        <path d="M267.805,48.733C267.521,50.126 267.019,51.305 266.827,52.792C264.04,51.987 260.847,51.584 257.168,51.672C259.95,50.441 263.237,49.715 265.707,48.172C266.468,48.297 266.93,48.722 267.805,48.733Z" style="fill:white;"/>
    </g>
    <g transform="matrix(1,0,0,1,-220.43695,-0.68252)">
        <path d="M271.725,76.025C271.403,72.189 271.608,69.074 270.325,66.368C269.427,64.471 267.953,62.176 266.827,61.049C263.463,57.686 251.958,57.484 247.932,60.629C244.162,63.573 243.421,68.727 242.613,74.205C241.416,64.367 244.237,55.921 254.09,56.151C255.067,56.173 256.346,56.56 257.588,56.709C260.821,57.101 265.182,57.564 267.386,59.089C269.015,60.218 270.875,64.618 271.445,66.927C272.082,69.502 271.876,72.976 271.725,76.025Z" style="fill:white;"/>
    </g>
    <g transform="matrix(1,0,0,1,-220.43695,-0.68252)">
        <path d="M269.906,80.643C261.838,82.106 252.737,80.718 244.712,80.085C243.665,73.027 245.054,64.605 249.471,61.749C251.194,60.634 254.167,60.189 257.03,60.349C261.743,60.611 264.45,61.001 266.686,63.989C267.603,65.212 268.658,66.361 269.206,67.627C270.77,71.241 270.179,76.324 269.906,80.643Z" style="fill:white;"/>
    </g>
    <g transform="matrix(1,0,0,1,-220.43695,-0.68252)">
        <path d="M229.176,60.489C229.584,60.688 229.561,61.318 229.736,61.749C228.346,62.544 227.096,64.679 225.119,63.989C226.499,62.848 228.035,61.866 229.176,60.489Z" style="fill:white;"/>
    </g>
    <g transform="matrix(1,0,0,1,-220.43695,-0.68252)">
        <path d="M230.017,62.728C230.305,62.767 230.149,63.249 230.436,63.288C230.094,64.253 229.319,64.783 228.057,64.828C228.72,64.139 229.568,63.632 230.017,62.728Z" style="fill:white;"/>
    </g>
    <g transform="matrix(1,0,0,1,-220.43695,-0.68252)">
        <path d="M294.259,66.228C294.438,70.693 292.577,73.087 290.201,75.465C288.827,76.839 287.442,78.334 286.141,78.964C284.277,79.866 280.449,80.409 279.003,78.683C280.643,75.472 282.094,72.072 283.203,68.326C286.767,69.363 288.299,66.22 290.339,64.828C292.308,64.633 293.606,65.108 294.259,66.228Z" style="fill:white;"/>
    </g>
    <g transform="matrix(1,0,0,1,-220.43695,-0.68252)">
        <path d="M233.515,66.368C235.2,71.307 237.083,76.795 240.094,79.944C235.074,80.482 230.829,78.358 227.498,75.325C225.5,73.505 222.566,70.743 222.178,68.746C221.853,67.064 222.813,65.785 223.718,65.667C224.655,65.544 225.529,66.541 226.657,66.647C228.587,66.827 229.784,66.146 230.997,65.108C231.439,65.833 232.548,66.633 233.515,66.368Z" style="fill:white;"/>
    </g>
    <g transform="matrix(1,0,0,1,-220.43695,-0.68252)">
        <path d="M247.372,12.902C246.401,14.36 244.02,15.9 244.433,18.5C244.626,19.72 245.876,20.488 247.092,20.6C249.968,20.868 252.587,18.813 255.91,18.361C260.975,17.673 265.833,20.121 269.625,20.6C270.921,20.763 272.839,20.537 273.125,20.46C273.96,20.234 274.897,19.1 275.224,19.341C273.48,23.017 269.692,21.446 266.126,20.32C263.507,19.493 260.815,18.78 257.308,18.921C254.911,19.016 252.599,20.382 250.311,20.74C247.033,21.253 244.69,20.818 243.873,18.081L243.873,15.982C244.475,14.391 245.913,13.636 247.372,12.902Z" style="fill:white;"/>
    </g>
    <g transform="matrix(1,0,0,1,-220.43695,-0.68252)">
        <path d="M270.885,36.555C269.074,36.708 267.256,36.172 265.567,35.576C262.28,34.416 259.109,32.951 255.91,31.516C252.026,29.777 247.939,28.639 244.712,26.199C244.367,26.216 244.475,26.027 244.712,26.058C252.914,29.989 261.945,33.833 270.885,36.555Z" style="fill:white;"/>
    </g>
    <g transform="matrix(1,0,0,1,-220.43695,-0.68252)">
        <path d="M253.39,31.937C252.449,32.536 251.087,32.714 250.032,33.197C250.592,32.868 252.362,31.371 253.39,31.937Z" style="fill:white;"/>
    </g>
    <g transform="matrix(1,0,0,1,-220.43695,-0.68252)">
        <path d="M231.135,39.076C231.209,38.402 231.456,37.901 231.697,37.395C236.092,38.687 238.993,43.387 239.393,48.034C237.894,43.794 235.364,40.585 231.135,39.076Z" style="fill:white;"/>
    </g>
    <g transform="matrix(1,0,0,1,-220.43695,-0.68252)">
        <path d="M254.09,41.174C258.603,43.239 263.969,45.665 269.486,47.192C269.503,47.537 269.505,47.867 269.346,48.034C268.969,48.135 268.263,47.888 267.386,47.612C262.703,46.146 258.174,43.399 254.09,41.174Z" style="fill:white;"/>
    </g>
    <g transform="matrix(1,0,0,1,-220.43695,-0.68252)">
        <path d="M264.726,47.752C261.833,48.964 258.693,49.93 255.49,50.831C256.669,50.302 258.385,49.676 259.967,49.153C261.594,48.614 263.228,47.792 264.726,47.752Z" style="fill:white;"/>
    </g>
    <g transform="matrix(1,0,0,1,-220.43695,-0.68252)">
        <path d="M251.01,51.951C250.636,52.137 250.315,52.375 249.891,52.512C249.871,51.931 250.586,52.086 251.01,51.951Z" style="fill:white;"/>
    </g>
    <g transform="matrix(1,0,0,1,-220.43695,-0.68252)">
        <path d="M241.353,65.388C241.2,56.481 248.868,53.239 258.428,53.211C263.67,53.196 268.162,54.996 270.885,57.27C274.112,61.927 277.001,71.633 273.125,77.705C273.142,78.05 272.953,77.943 272.985,77.705C274.041,72.973 273.553,67.02 272.005,63.148C271.457,61.777 270.253,59.401 269.066,58.53C265.364,55.815 255.24,53.7 249.471,55.31C246.337,56.186 243.077,59.297 241.914,62.448C241.573,63.37 241.542,64.43 241.353,65.388Z" style="fill:white;"/>
    </g>
</svg>
