<?xml version="1.0" encoding="UTF-8" standalone="no"?>
<!DOCTYPE svg PUBLIC "-//W3C//DTD SVG 1.1//EN" "http://www.w3.org/Graphics/SVG/1.1/DTD/svg11.dtd">
<svg width="100%" height="100%" viewBox="0 0 85 71" version="1.1" xmlns="http://www.w3.org/2000/svg" xmlns:xlink="http://www.w3.org/1999/xlink" xml:space="preserve" xmlns:serif="http://www.serif.com/" style="fill-rule:evenodd;clip-rule:evenodd;stroke-linejoin:round;stroke-miterlimit:2;">
    <g transform="matrix(1,0,0,1,-121.480841,-325.604848)">
        <path d="M122.286,393.867C123.502,394.58 125.49,394.785 126.861,394.172C127.358,393.948 127.429,393.219 128.08,392.951C128.957,392.594 129.42,392.955 130.369,392.798C130.835,393.213 130.961,393.76 131.741,394.017C132.999,394.436 138.327,393.777 138.604,392.951C139.572,393 140.766,392.822 141.502,393.103C141.754,393.461 141.834,393.991 142.265,394.172C144.644,394.019 147.164,394.398 148.974,394.324C149.578,393.504 149.511,392.014 150.042,391.121C154.369,391.674 159.058,391.866 163.92,391.884C164.38,393.051 164.726,394.332 165.293,395.391C167.093,395.547 169.183,396.428 171.088,396.001C171.849,395.831 172.279,394.91 172.918,394.933C174.012,394.974 173.694,396.136 174.595,396.307C176.202,396.375 178.91,396.258 181,396.307C181.624,396.166 181.813,395.594 182.374,395.391C184.174,395.318 185.947,395.273 186.796,396.154C189.239,396.258 191.089,395.771 193.354,395.696C193.753,394.215 195.507,394.088 197.166,393.867C197.704,393.989 197.685,394.669 198.386,394.629C201.415,394.455 204.132,393.97 205.401,392.035C205.914,388.064 203.969,386.754 203.876,383.953C203.84,382.853 204.26,382.219 204.334,381.36C204.754,376.441 201.995,373.442 199.301,371.295C196.827,369.324 192.356,368.315 188.779,367.178C187.16,366.663 185.411,366.042 183.44,365.195C181.809,364.494 177.79,363.039 179.17,361.23C178.755,360.41 177.308,359.742 176.273,360.467C176.523,360.098 176.662,359.726 176.426,359.247C175.234,358.492 174.02,358.305 173.528,356.807C173.258,355.986 173.808,355.276 173.223,354.672C172.652,354.083 171.995,354.525 171.393,354.062C171.461,353.619 171.731,352.142 171.088,351.623C170.544,351.201 169.432,351.738 169.258,351.623C169.497,351.272 169.497,350.142 169.258,349.792C167.813,349.549 168.463,347.631 166.97,347.199C166.705,345.277 166.418,343.379 165.14,342.472C164.122,333.502 163.049,323.084 152.634,326.153C151.047,326.621 150.041,328.293 148.67,328.746C147.12,329.259 144.453,329.121 142.569,329.203C136.154,329.485 128.461,328.72 124.269,330.576C122.147,332.543 121.212,334.98 121.676,338.353C121.91,340.059 123.125,341.613 123.354,343.082C123.592,344.615 123.431,346.568 123.354,348.266C123.242,350.712 123.153,353.204 123.049,355.587C122.688,363.796 120.191,371.834 123.201,377.548C121.275,381.819 120.961,388.713 122.286,393.867Z" style="fill:rgb(3,4,4);"/>
    </g>
    <g transform="matrix(1,0,0,1,-121.480841,-325.604848)">
        <path d="M163.005,343.691C162.109,338.758 162.735,333.052 159.955,329.967C158.486,328.335 155.806,328.373 152.787,328.441C153.576,327.865 155.034,327.777 156.142,327.679C156.7,327.629 157.517,327.573 157.972,327.679C160.293,328.214 162.57,333.108 163.005,336.523C163.173,337.847 163.208,339.292 163.462,340.641C163.672,341.748 164.397,343.359 163.005,343.691Z" style="fill:white;"/>
    </g>
    <g transform="matrix(1,0,0,1,-121.480841,-325.604848)">
        <path d="M126.251,340.794C126.092,339.276 125.442,338.248 125.641,336.371C123.479,336.674 124.676,340.611 126.251,340.794ZM158.277,337.286C158.742,337.293 158.87,336.965 159.192,336.828C159.236,335.921 159.086,335.206 158.125,335.304C157.859,335.758 157.866,337.024 158.277,337.286ZM151.873,331.339C145.602,331.631 139.472,331.184 133.571,331.644C129.828,331.935 125.767,332.011 124.574,334.693C126.498,333.598 128.968,333.017 132.046,332.863C136.044,332.664 141.261,332.762 146.077,332.558C151.064,332.349 155.298,332.094 158.277,333.168C157.248,330.974 154.403,331.221 151.873,331.339ZM160.259,338.811C152.091,340.739 142.264,341.718 132.046,342.166C129.697,342.269 127.138,342.635 125.794,342.014C123.121,340.78 123.137,333.898 125.031,331.797C129.845,330.369 138.546,331.447 145.009,331.033C148.912,330.783 154.932,329.038 158.277,331.186C160.489,332.606 160.417,335.796 160.259,338.811Z" style="fill:white;"/>
    </g>
    <g transform="matrix(1,0,0,1,-121.480841,-325.604848)">
        <path d="M160.87,341.099C161.305,341.853 161.769,343.965 161.328,344.606C160.782,343.83 161.18,342.111 160.87,341.099Z" style="fill:white;"/>
    </g>
    <g transform="matrix(1,0,0,1,-121.480841,-325.604848)">
        <path d="M159.65,341.709C159.568,342.707 159.744,343.445 159.802,344.302C159.156,343.932 158.521,343.551 157.819,343.234L157.819,341.709C158.431,341.731 159.147,341.317 159.65,341.709Z" style="fill:white;"/>
    </g>
    <g transform="matrix(1,0,0,1,-121.480841,-325.604848)">
        <path d="M155.532,342.014C155.129,346.36 156.64,349.961 158.277,353.604C160.457,358.452 163.624,361.723 167.581,365.043C170.857,367.791 174.517,370.8 179.781,368.092C179.951,368.804 178.039,370.481 177.493,371.6C175.74,375.193 175.765,380.721 175.815,385.631C165.671,384.744 157.429,381.954 149.127,379.225C148.99,367.235 142.534,359.862 135.554,354.367C132.391,351.877 129.862,349.62 125.183,349.029C125.277,347.14 125.625,345.774 125.336,343.844C135.849,345.267 145.27,342.292 155.532,342.014Z" style="fill:white;"/>
    </g>
    <g transform="matrix(1,0,0,1,-121.480841,-325.604848)">
        <path d="M157.819,344.606C158.598,344.846 159.408,345.053 159.802,345.674C159.031,345.429 158.072,345.371 157.819,344.606Z" style="fill:white;"/>
    </g>
    <g transform="matrix(1,0,0,1,-121.480841,-325.604848)">
        <path d="M157.057,345.674C157.731,345.812 158.057,346.301 158.734,346.436C158.446,346.808 158.109,347.133 157.362,347.047C157.349,346.5 157.125,346.166 157.057,345.674Z" style="fill:white;"/>
    </g>
    <g transform="matrix(1,0,0,1,-121.480841,-325.604848)">
        <path d="M165.445,346.742C165.355,347.771 163.257,346.791 162.7,347.351C162.748,346.42 164.248,346.424 165.445,346.742Z" style="fill:white;"/>
    </g>
    <g transform="matrix(1,0,0,1,-121.480841,-325.604848)">
        <path d="M161.175,347.962C162.382,348.455 163.576,348.397 165.14,348.266C163.948,349.006 162.447,349.437 161.022,349.944C161.185,349.062 160.603,348.385 161.175,347.962Z" style="fill:white;"/>
    </g>
    <g transform="matrix(1,0,0,1,-121.480841,-325.604848)">
        <path d="M166.818,348.877C164.705,350.072 162.253,351.729 159.65,351.927C161.42,350.444 164.487,350.258 166.208,348.724C166.481,348.705 166.529,348.911 166.818,348.877Z" style="fill:white;"/>
    </g>
    <g transform="matrix(1,0,0,1,-121.480841,-325.604848)">
        <path d="M159.498,349.182C159.726,349.513 159.758,350.04 159.802,350.555C159.622,350.73 159.263,350.726 158.888,350.707C158.766,350.422 158.632,350.148 158.582,349.792C159.035,349.736 159.334,349.527 159.498,349.182Z" style="fill:white;"/>
    </g>
    <g transform="matrix(1,0,0,1,-121.480841,-325.604848)">
        <path d="M145.619,373.889C145.963,372.995 145.507,371.691 144.705,371.448L144.399,371.448C144.137,372.355 144.488,373.874 145.619,373.889ZM143.026,367.788C143.28,369.008 143.555,370.208 144.552,370.685C145.213,369.735 144.385,367.196 143.026,367.788ZM143.179,366.415C142.99,365.131 142.642,364.004 141.349,363.822C141.203,364.858 141.74,366.463 143.179,366.415ZM125.946,361.535C125.552,363.297 126.157,365.446 125.946,367.33C125.659,369.895 123.721,372.553 125.489,374.65C126.167,370.445 128.668,365.496 126.556,361.23C126.361,361.221 126.345,361.035 126.098,361.078C126.09,361.271 125.903,361.289 125.946,361.535ZM141.044,363.213C141.083,361.75 140.261,361.148 139.062,360.924C139.281,362.129 139.976,362.856 141.044,363.213ZM135.859,358.027C136.21,359.049 137.198,360.072 138.299,359.857C138.131,358.683 136.863,357.864 135.859,358.027ZM132.351,355.434C132.44,356.212 133.642,357.192 134.944,357.265C134.83,355.987 133.321,355.353 132.351,355.434ZM131.284,354.672C131.147,353.385 129.99,353.119 128.69,352.994C128.889,354.171 130.251,354.82 131.284,354.672ZM147.297,378.615C146.943,378.664 146.711,378.591 146.534,378.463C146.448,378.287 147.039,375.797 145.924,375.413C145.169,375.637 145.375,377.696 145.772,378.158C140.29,376.978 132.323,376.156 125.031,376.785C122.263,370.39 125.539,360.094 125.183,352.08C125.979,352.14 126.791,352.855 127.624,352.385C127.525,351.11 125.822,351.44 125.183,350.707C125.127,350.447 125.302,350.42 125.489,350.402C128.83,350.702 131.204,353.189 133.724,354.824C141.092,359.609 146.591,367.447 147.297,378.615Z" style="fill:white;"/>
    </g>
    <g transform="matrix(1,0,0,1,-121.480841,-325.604848)">
        <path d="M169.715,352.537C170.067,352.49 169.885,352.978 170.173,352.994C169.486,353.477 168.717,353.878 167.581,353.91C167.836,352.996 169.021,353.012 169.715,352.537Z" style="fill:white;"/>
    </g>
    <g transform="matrix(1,0,0,1,-121.480841,-325.604848)">
        <path d="M162.7,356.045C162.532,356.486 162.511,357.076 161.938,357.112C161.357,355.81 160.667,354.621 159.955,353.452C161.37,352.781 161.699,355.339 162.7,356.045Z" style="fill:white;"/>
    </g>
    <g transform="matrix(1,0,0,1,-121.480841,-325.604848)">
        <path d="M170.63,355.13C169.801,356.842 168.686,358.269 168.038,360.162C166.899,359.42 166.432,358.007 165.14,357.418C165.412,356.723 165.988,356.334 166.208,355.587C167.764,355.57 169.603,353.793 170.63,355.13Z" style="fill:white;"/>
    </g>
    <g transform="matrix(1,0,0,1,-121.480841,-325.604848)">
        <path d="M172.613,358.332C172.946,358.305 173.098,358.457 173.07,358.79C172.797,358.77 172.749,358.976 172.46,358.941C172.441,358.668 172.647,358.621 172.613,358.332Z" style="fill:white;"/>
    </g>
    <g transform="matrix(1,0,0,1,-121.480841,-325.604848)">
        <path d="M175.51,361.383C174.879,362.58 174.294,363.826 173.833,365.195C172.501,364.443 171.235,363.624 170.326,362.449C171.625,361.825 174.02,360.349 175.51,361.383Z" style="fill:white;"/>
    </g>
    <g transform="matrix(1,0,0,1,-121.480841,-325.604848)">
        <path d="M177.341,361.535C177.6,361.478 177.628,361.654 177.646,361.84C176.179,363.068 176.021,365.602 174.9,367.178C175.227,364.808 176.085,362.973 177.341,361.535Z" style="fill:white;"/>
    </g>
    <g transform="matrix(1,0,0,1,-121.480841,-325.604848)">
        <path d="M177.646,363.517C177.983,364.043 178.614,364.277 178.866,364.89C178.339,365.329 177.58,365.535 176.73,365.652C177.022,364.928 177.396,364.284 177.646,363.517Z" style="fill:white;"/>
    </g>
    <g transform="matrix(1,0,0,1,-121.480841,-325.604848)">
        <path d="M168.343,364.127C170.748,363.508 171.308,366.677 173.68,366.109C173.535,366.574 173.074,366.724 173.223,367.482C171.353,366.607 169.85,365.365 168.343,364.127Z" style="fill:white;"/>
    </g>
    <g transform="matrix(1,0,0,1,-121.480841,-325.604848)">
        <path d="M181.306,366.262C180.223,367.239 177.721,367.523 176.12,367.482C177.403,366.528 179.564,366.453 180.848,365.5C180.899,365.855 181.005,366.157 181.306,366.262Z" style="fill:white;"/>
    </g>
    <g transform="matrix(1,0,0,1,-121.480841,-325.604848)">
        <path d="M179.17,383.344C180.257,383.227 179.441,382.142 179.628,381.208C179.261,381.269 179.297,380.93 178.866,381.057C178.882,381.903 178.744,382.904 179.17,383.344ZM178.713,379.836C178.999,379.957 179.271,380.09 179.628,380.14C179.868,379.75 179.868,378.547 179.628,378.158C178.78,378.174 178.717,378.975 178.713,379.836ZM179.323,377.243C180.46,377.109 180.343,375.721 180.695,374.803C179.309,374.058 178.842,376.104 179.323,377.243ZM199.606,379.683C199.876,380.546 199.528,381.758 200.674,382.275C201.989,378.023 197.994,374.49 194.574,373.582L194.269,373.582C196.152,375.498 198.761,376.983 199.606,379.683ZM180.695,373.735C181.594,373.537 182.196,372.324 181.916,371.448C180.818,371.445 180.312,372.754 180.695,373.735ZM182.525,370.532C183.53,370.265 184.288,369.753 184.661,368.855C183.862,367.717 181.87,369.285 182.525,370.532ZM201.588,383.801C195.693,385.479 188.239,385.6 180.848,385.783C180.018,385.598 180.246,384.351 179.323,384.258C178.372,384.486 179.809,385.756 179.018,385.783C176.818,379.174 178.39,369.357 183.746,367.635C188.292,369.652 194.759,369.87 198.386,373.431C200.75,375.75 203.321,379.326 201.588,383.801Z" style="fill:white;"/>
    </g>
    <g transform="matrix(1,0,0,1,-121.480841,-325.604848)">
        <path d="M197.014,386.546C185.406,389.752 171.864,388.635 161.632,385.631C156.478,384.117 151.24,382.623 145.772,381.36C138.994,379.797 131.077,378.64 123.963,379.531C124.081,377.998 125.404,378.407 126.708,378.31C133.509,377.805 139.81,378.318 145.162,379.836C155.42,382.745 164.576,387.094 177.798,387.461C184,387.634 190.589,387.374 197.014,386.546Z" style="fill:white;"/>
    </g>
    <g transform="matrix(1,0,0,1,-121.480841,-325.604848)">
        <path d="M165.598,389.596C166.075,390.044 167.973,390.685 168.19,389.596C167.681,389.297 165.919,388.672 165.598,389.596ZM124.726,386.392C124.786,385.183 125.47,384.595 125.641,383.496C124.222,382.773 123.205,385.957 124.726,386.392ZM134.486,382.733C135.814,382.916 138.321,383.423 139.519,382.733C138.281,382.158 135.493,381.45 134.486,382.733ZM202.351,387.308C203.277,389.539 200.821,389.39 199.759,389.596C192.751,390.951 184.151,391.815 175.968,391.426C172.486,391.26 168.711,391.84 166.055,391.121C165.211,390.892 165.034,390.259 164.225,390.055C163.353,389.832 162.072,390.103 160.87,390.055C157.603,389.916 153.705,388.678 150.652,388.833C149.848,388.875 149.022,389.252 148.212,389.291C144.149,389.484 139.829,388.562 135.554,388.681C131.316,388.799 127.29,389.05 123.354,389.291C123.329,386.892 122.709,383.482 123.963,382.123C124.418,381.631 126.456,380.889 127.318,380.75C130.112,380.302 133.53,380.953 136.469,381.208C144.907,381.941 152.5,384.398 159.802,386.546C164.776,388.009 170.343,389.125 175.663,389.748C181.464,390.428 187.486,389.732 193.659,389.291C196.915,389.058 198.937,387.961 202.351,387.308Z" style="fill:white;"/>
    </g>
    <g transform="matrix(1,0,0,1,-121.480841,-325.604848)">
        <path d="M147.754,390.511C147.57,390.986 147.384,391.463 147.145,391.884C146.035,391.791 145.228,392.001 144.246,392.035C143.553,391.749 143.728,391.085 142.874,390.816C141.155,390.273 138.05,391.323 136.316,390.664C135.598,391.623 134.157,391.859 132.657,392.035C132.091,391.838 132.227,390.941 131.588,390.816C129.899,391.107 127.885,390.547 126.251,391.273C125.189,391.745 125.307,392.84 123.812,392.342C123.736,391.744 123.492,390.714 123.658,390.357C131.638,390.149 140.071,389.756 147.754,390.511Z" style="fill:white;"/>
    </g>
    <g transform="matrix(1,0,0,1,-121.480841,-325.604848)">
        <path d="M202.504,390.357C202.76,391.474 202.063,391.764 201.284,392.035C200.797,392.207 199.494,392.539 198.997,392.494C198.474,392.446 198.183,392.053 197.776,392.035C194.278,391.893 191.544,394.64 187.711,394.324C187.077,394.246 187.151,393.46 186.49,393.408C182.007,393.207 179.732,394.625 175.815,394.324C175.188,393.101 171.096,392.099 170.326,393.867C168.981,393.533 166.873,393.963 166.665,392.494C178.861,392.672 192.239,393.115 202.504,390.357Z" style="fill:white;"/>
    </g>
    <g transform="matrix(1,0,0,1,-121.480841,-325.604848)">
        <path d="M164.072,344.606C162.723,345.348 160.11,347.451 158.125,348.572C158.498,347.377 159.875,346.873 160.87,346.284C161.911,345.668 163.004,345.116 164.072,344.606Z" style="fill:white;"/>
    </g>
    <g transform="matrix(1,0,0,1,-121.480841,-325.604848)">
        <path d="M166.36,350.555C165.754,351.728 164.214,353.288 163.462,354.824C163.044,354.022 162.374,353.473 162.395,352.232C163.89,351.846 165.113,351.187 166.36,350.555Z" style="fill:white;"/>
    </g>
    <g transform="matrix(1,0,0,1,-121.480841,-325.604848)">
        <path d="M167.885,351.012C167.104,352.551 165.531,354.226 164.53,356.197C164.25,356.748 164.091,357.764 163.311,357.875C164.279,355.032 166.113,353.053 167.885,351.012Z" style="fill:white;"/>
    </g>
    <g transform="matrix(1,0,0,1,-121.480841,-325.604848)">
        <path d="M172.003,356.349C171.76,357.277 171.289,359.295 170.021,359.705C170.115,358.629 171.176,357.201 172.003,356.349Z" style="fill:white;"/>
    </g>
    <g transform="matrix(1,0,0,1,-121.480841,-325.604848)">
        <path d="M163.768,359.095C164.337,359.258 164.202,358.717 164.682,358.79C165.229,359.819 166.165,360.459 167.123,361.078C166.956,361.327 166.558,362.126 166.97,362.449C166.013,361.83 164.483,360.465 163.768,359.095Z" style="fill:white;"/>
    </g>
    <g transform="matrix(1,0,0,1,-121.480841,-325.604848)">
        <path d="M168.038,362.297C168.39,360.971 170.09,360.994 171.24,360.467C170.155,360.974 168.939,362.111 168.038,362.297Z" style="fill:white;"/>
    </g>
</svg>
