<?xml version="1.0" encoding="UTF-8" standalone="no"?>
<!DOCTYPE svg PUBLIC "-//W3C//DTD SVG 1.1//EN" "http://www.w3.org/Graphics/SVG/1.1/DTD/svg11.dtd">
<svg width="100%" height="100%" viewBox="0 0 117 78" version="1.1" xmlns="http://www.w3.org/2000/svg" xmlns:xlink="http://www.w3.org/1999/xlink" xml:space="preserve" xmlns:serif="http://www.serif.com/" style="fill-rule:evenodd;clip-rule:evenodd;stroke-linejoin:round;stroke-miterlimit:2;">
    <g transform="matrix(1,0,0,1,-190.866105,-217.697191)">
        <path d="M304.663,268.707C300.003,262.471 296.19,255.388 293.508,247.173C293.112,246.949 292.415,247.025 292.113,246.709C285.557,240.25 279.262,233.532 273.212,226.568C266.707,226.029 260.198,223.789 253.538,222.385C248.505,221.324 243.458,220.434 238.51,219.441C236.81,219.1 234.93,218.946 233.398,218.514C232.618,218.292 231.54,217.125 230.92,218.047C229.271,220.265 227.833,222.743 226.117,225.018C221.865,230.651 217.542,236.267 213.102,241.441C212.141,242.56 211.514,243.716 210.624,244.849C208.959,246.966 206.345,248.408 204.736,250.582C203.554,252.178 202.592,254.31 201.639,256.158C198.571,262.096 196.3,267.908 192.342,272.89C191.725,272.841 191.198,272.882 190.948,273.201C190.608,275.024 191.316,277.039 193.272,277.074C193.491,275.931 193.453,274.786 192.962,273.974C198.569,267.756 201.103,258.465 205.821,251.355C207.177,252.168 209.228,252.287 210.624,253.061C210.642,256.638 210.931,259.555 211.088,263.13C211.25,266.79 210.607,270.61 211.863,272.581C213.909,272.797 216.105,274.091 217.905,275.059C215.62,277.886 212.885,280.265 210.16,282.651C209.676,282.649 209.148,282.284 208.764,282.651C207.994,283.678 207.868,286.982 210.004,286.523C210.751,286.049 210.559,285.251 210.468,284.2C213.669,281.564 216.423,278.484 219.455,275.68C223.805,277.576 228.099,279.532 232.313,281.566C229.762,284.593 227.029,287.437 224.102,290.088C221.069,290.117 222.769,294.965 224.412,295.354C224.824,294.041 225.178,292.177 224.721,290.862C228.051,288.355 230.288,284.758 233.398,282.031C237.826,284.217 242.479,286.693 247.805,288.072C249.721,288.569 251.672,289.456 253.383,289.312C254.817,289.19 256.643,288.436 258.185,287.918C269,284.288 281.311,280.439 289.48,275.368C290.383,275.395 290.693,276.015 291.803,275.834C292.438,275.022 292.636,273.775 292.889,272.581C295.05,272.211 293.743,269.432 291.803,270.256C291.625,271.428 291.717,273.095 290.719,273.82C289.926,273.026 290.329,271.619 290.409,270.566C290.93,263.802 291.259,256.268 291.029,249.652C291.699,249.651 292.012,249.292 292.733,249.343C295.85,257.174 299.381,264.59 304.506,270.411C304.432,271.57 304.259,272.304 304.971,272.89C308.656,272.889 306.243,268.733 306.056,266.538C304.906,266.576 305.446,268.304 304.663,268.707Z" style="fill:rgb(3,4,4);"/>
    </g>
    <g transform="matrix(1,0,0,1,-190.866105,-217.697191)">
        <path d="M214.497,248.722C218.46,250.46 223.569,252.287 228.75,253.525C235.01,255.02 242.193,256.554 248.734,256.313C247.595,255.31 245.891,255.407 244.552,255.228C233.849,253.811 223.913,250.499 214.186,248.257C214.178,248.523 214.306,248.654 214.497,248.722ZM254.777,250.582C256.801,249.891 258.207,247.713 259.734,245.934C261.673,243.674 263.991,241.258 264.227,238.342C260.836,242.182 257.983,246.558 254.777,250.582ZM266.242,234.47C267.051,234.122 268.134,232.468 267.327,231.526C266.765,232.228 265.995,233.469 266.242,234.47ZM232.778,219.598C232.903,219.626 232.933,219.752 233.087,219.752C233.355,220.887 232.277,221.895 231.693,222.849C231.05,223.902 230.59,225.088 229.99,226.102C227.893,229.644 224.466,232.661 222.552,236.173C227.246,232.139 231.401,226.224 234.637,220.216C246.733,223.097 258.538,226.267 271.818,227.963C268.553,234.191 265.995,240.397 262.058,245.778C258.178,251.081 253.65,255.691 249.51,260.651C233.723,258.931 222.49,252.658 207.68,249.962C206.948,249.892 208.036,249.401 208.145,249.186C218.639,241.606 224.93,229.823 232.778,219.598Z" style="fill:white;"/>
    </g>
    <g transform="matrix(1,0,0,1,-190.866105,-217.697191)">
        <path d="M272.904,229.047C273.035,229.019 273.05,229.108 273.058,229.201C275.752,232.497 278.584,235.657 281.578,238.652C284.524,241.598 287.033,245.156 290.875,247.173C289.427,248.411 287.301,246.024 286.071,245.004C282.696,242.206 280.196,239.647 277.241,236.018C275.471,233.846 273.426,231.712 272.904,229.047Z" style="fill:white;"/>
    </g>
    <g transform="matrix(1,0,0,1,-190.866105,-217.697191)">
        <path d="M271.818,232.455C273.315,245.883 273.045,261.077 273.987,275.059C270.101,276.336 266.986,278.386 262.833,279.397C262.464,269.386 264.181,258.224 262.213,249.031C265.899,243.989 268.912,238.276 271.818,232.455Z" style="fill:white;"/>
    </g>
    <g transform="matrix(1,0,0,1,-190.866105,-217.697191)">
        <path d="M273.832,234.78C277.133,238.966 280.78,242.807 284.832,246.243C283.669,254.375 283.481,263.482 282.973,272.27C280.144,272.694 277.93,273.735 275.381,274.44C274.848,261.236 275.201,247.146 273.832,234.78Z" style="fill:white;"/>
    </g>
    <g transform="matrix(1,0,0,1,-190.866105,-217.697191)">
        <path d="M255.551,285.129C256.712,285.908 259.467,285.116 259.269,284.045C257.855,284.232 256.443,284.421 255.551,285.129ZM286.071,247.173C287.266,247.94 288.424,248.744 289.635,249.496C289.344,257.63 288.034,266.375 288.55,274.284C277.781,279.473 265.171,282.819 254.157,287.764C254.244,279.91 254.888,269.772 255.242,261.736C255.293,260.539 254.943,259.043 255.242,257.862C255.67,256.17 258.738,254.047 259.423,252.749C259.426,256.541 259.456,259.404 259.889,262.82C261.359,259.441 259.079,252.765 261.129,250.27C261.673,259.223 260.836,269.224 261.284,278.468C261.319,279.196 261.792,280.105 261.129,280.637C263.155,281.353 265.75,280.12 268.1,279.397C273.445,277.754 279.055,274.967 284.523,273.51C285.307,264.999 285.331,255.727 286.071,247.173Z" style="fill:white;"/>
    </g>
    <g transform="matrix(1,0,0,1,-190.866105,-217.697191)">
        <path d="M215.117,270.101C215.784,271.139 217.015,271.611 218.68,271.65C218.033,270.682 216.332,269.991 215.117,270.101ZM212.328,253.525C218.565,254.981 224.381,256.861 230.144,258.793C226.831,264.103 223.643,269.539 219.144,273.665C216.962,272.903 214.967,271.955 212.792,271.187C212.965,265.534 212.973,259.127 212.328,253.525Z" style="fill:white;"/>
    </g>
    <g transform="matrix(1,0,0,1,-190.866105,-217.697191)">
        <path d="M248.115,262.665C244.55,268.706 239.581,273.341 235.256,278.623C231.159,276.936 227.368,274.944 223.017,273.51C225.78,275.86 230.651,277.444 234.482,279.242C233.679,280.307 232.167,279.189 231.229,278.777C228.047,277.381 224.142,275.605 220.694,274.44C224.565,269.637 227.69,264.085 231.54,259.258C236.696,260.762 242.54,261.581 248.115,262.665Z" style="fill:white;"/>
    </g>
    <g transform="matrix(1,0,0,1,-190.866105,-217.697191)">
        <path d="M248.734,284.974C245.573,283.748 242.375,281.729 238.975,281.256C241.85,282.771 245.086,284.748 248.734,284.974ZM250.903,283.426C251.31,279.67 251.819,274.23 251.369,269.947L251.058,269.947C250.799,273.967 249.446,279.693 250.903,283.426ZM253.383,259.566C252.576,267.659 251.657,277.753 252.298,287.299C245.635,285.802 240.178,283.1 234.792,280.327C235.451,278.983 236.77,280.583 237.89,280.637C238.069,279.898 236.773,279.409 236.032,279.087C240.378,273.624 245.42,268.852 249.355,262.975C251.46,262.601 252.058,260.721 253.383,259.566Z" style="fill:white;"/>
    </g>
</svg>
