<?xml version="1.0" encoding="UTF-8" standalone="no"?>
<!DOCTYPE svg PUBLIC "-//W3C//DTD SVG 1.1//EN" "http://www.w3.org/Graphics/SVG/1.1/DTD/svg11.dtd">
<svg width="100%" height="100%" viewBox="0 0 76 83" version="1.1" xmlns="http://www.w3.org/2000/svg" xmlns:xlink="http://www.w3.org/1999/xlink" xml:space="preserve" xmlns:serif="http://www.serif.com/" style="fill-rule:evenodd;clip-rule:evenodd;stroke-linejoin:round;stroke-miterlimit:2;">
    <g transform="matrix(1,0,0,1,-113.088403,-0.862977)">
        <path d="M180.169,67.499C176.957,68.863 173.248,69.732 168.703,69.765C168.501,69.374 169.31,68.796 169.77,68.298C173.079,64.713 175.775,60.08 176.969,54.034C177.906,49.281 176.995,43.882 176.035,39.634C176.148,39.609 176.162,39.685 176.17,39.766C178.125,42.31 181.158,45.72 182.302,50.033C183.772,55.578 183.118,63.965 180.169,67.499ZM129.238,74.965C128.27,73.391 127.574,71.951 126.838,71.098C124.694,68.611 122.174,66.995 120.705,64.432C118.418,60.441 117.259,54.749 118.171,49.633C118.769,46.283 120.676,43.107 121.639,39.766C122.662,36.221 123.924,32.882 125.905,30.7C124.116,35.568 121.259,41.859 121.639,48.699C122.002,55.27 123.361,62.144 126.438,66.565C129.291,70.662 132.825,73.904 137.505,75.764C136.553,76.247 133.863,78.68 132.172,78.431C131.252,78.296 129.912,76.06 129.238,74.965ZM178.836,36.301C176.109,32.968 172.56,31.184 170.436,27.634C170.457,26.061 169.516,25.781 168.703,24.967C167.563,23.827 166.714,22.472 164.971,22.167C164.207,20.753 163.053,19.728 162.036,18.569C162.443,15.718 160.132,15.583 157.77,15.501C157.477,13.435 157.404,12.292 157.77,10.302C159.924,9.53 159.371,7.58 159.503,4.836C159.542,4.034 159.741,3.354 159.636,2.703C157.343,0.969 153.229,0.659 149.237,0.969C145.778,1.238 141.672,1.893 139.904,3.501C139.951,6.478 139.778,9.671 142.039,10.435C142.06,12.708 142.482,13.78 142.438,16.034C141.396,16.238 140.001,16.087 139.104,16.434C138.337,17.36 138.827,18.613 138.438,19.502C138.259,19.909 137.715,20.137 137.237,20.568C135.404,22.227 132.329,22.861 130.572,24.434C124.128,23.893 122.926,28.556 120.573,32.568C119.212,34.889 118.026,36.91 116.972,39.101C115.835,41.464 114.516,43.496 113.906,46.033C112.007,53.929 113.556,62.346 117.106,67.232C118.079,68.571 118.94,70.073 119.906,71.231C121.837,73.549 124.489,75.39 127.106,77.631C129.463,79.653 131.84,82.266 134.972,83.365C137.603,84.287 140.224,82.882 142.571,81.897C144.305,81.171 146.151,80.109 147.904,79.632C149.199,79.277 150.742,79.266 152.17,79.097C157.77,78.439 164.777,78.541 169.903,77.498C171.35,77.203 172.882,77.208 174.169,76.832C178.399,75.595 181.515,72.701 183.768,69.498C185.835,66.563 187.988,62.615 188.301,58.966C188.822,52.914 186.669,48.978 184.436,44.966C182.761,41.96 180.853,38.767 178.836,36.301Z" style="fill:rgb(3,4,4);"/>
    </g>
    <g transform="matrix(1,0,0,1,-113.088403,-0.862977)">
        <path d="M156.836,3.236C153.692,5.198 146.81,5.684 143.104,4.036C143.694,3.131 145.644,2.931 147.104,2.703C150.315,2.202 154.208,2.378 156.836,3.236Z" style="fill:white;"/>
    </g>
    <g transform="matrix(1,0,0,1,-113.088403,-0.862977)">
        <path d="M141.503,5.102C141.827,5.268 142.152,5.432 142.571,5.502C142.519,6.664 142.652,7.643 142.97,8.435C141.377,8.961 141.742,6.377 141.503,5.102Z" style="fill:white;"/>
    </g>
    <g transform="matrix(1,0,0,1,-113.088403,-0.862977)">
        <path d="M157.77,5.102L157.77,8.035C157.07,8.224 156.561,8.603 156.036,8.968C155.634,8.081 155.679,6.749 155.503,5.635C156.433,5.631 156.921,5.186 157.77,5.102Z" style="fill:white;"/>
    </g>
    <g transform="matrix(1,0,0,1,-113.088403,-0.862977)">
        <path d="M143.237,5.768L143.504,5.768C144.202,6.316 143.769,7.992 144.171,8.835C143.341,8.332 143.395,6.945 143.237,5.768Z" style="fill:white;"/>
    </g>
    <g transform="matrix(1,0,0,1,-113.088403,-0.862977)">
        <path d="M154.438,5.903C154.409,7.218 154.517,8.4 154.704,9.502C153.899,9.675 153.064,9.817 152.037,9.768C152.007,8.554 151.697,7.619 151.771,6.302C152.487,5.996 153.613,6.1 154.438,5.903Z" style="fill:white;"/>
    </g>
    <g transform="matrix(1,0,0,1,-113.088403,-0.862977)">
        <path d="M144.705,6.168C145.167,6.062 145.217,6.368 145.637,6.302C145.541,7.42 145.783,8.202 145.77,9.236C144.683,8.945 145.027,7.223 144.705,6.168Z" style="fill:white;"/>
    </g>
    <g transform="matrix(1,0,0,1,-113.088403,-0.862977)">
        <path d="M150.837,6.302C150.846,7.12 150.839,8.794 151.104,9.768L150.304,9.768C149.977,8.852 149.886,7.697 149.905,6.436C150.325,6.501 150.375,6.195 150.837,6.302Z" style="fill:white;"/>
    </g>
    <g transform="matrix(1,0,0,1,-113.088403,-0.862977)">
        <path d="M146.437,6.436L147.637,6.436C148.055,7.172 147.803,8.581 148.038,9.502L146.971,9.502C146.836,8.437 146.663,7.409 146.437,6.436Z" style="fill:white;"/>
    </g>
    <g transform="matrix(1,0,0,1,-113.088403,-0.862977)">
        <path d="M148.705,6.436C149.085,7.05 149.287,9.205 148.97,9.636C148.659,9.218 148.669,7.152 148.705,6.436Z" style="fill:white;"/>
    </g>
    <g transform="matrix(1,0,0,1,-113.088403,-0.862977)">
        <path d="M143.237,10.702C146.468,11.18 150.061,11.942 153.636,11.635C150.687,12.707 146.852,11.716 143.237,11.902C143.302,11.424 143.454,11.131 143.237,10.702Z" style="fill:white;"/>
    </g>
    <g transform="matrix(1,0,0,1,-113.088403,-0.862977)">
        <path d="M156.171,12.969L156.171,15.368C151.961,15.426 147.844,15.575 143.904,15.901C144.024,14.993 143.714,13.915 143.904,13.369C148.112,13.784 152.463,13.883 156.171,12.969Z" style="fill:white;"/>
    </g>
    <g transform="matrix(1,0,0,1,-113.088403,-0.862977)">
        <path d="M160.037,18.035C155.087,18.952 148.726,18.457 143.504,19.101C143.561,18.493 143.369,17.633 143.637,17.234C147.128,17.304 151.569,16.934 155.37,17.102C157.077,17.177 158.892,17.209 160.037,18.035Z" style="fill:white;"/>
    </g>
    <g transform="matrix(1,0,0,1,-113.088403,-0.862977)">
        <path d="M140.837,17.368C141.166,17.351 141.48,17.348 141.638,17.5C141.739,18.225 141.426,18.535 141.503,19.234L140.704,19.234C140.909,18.773 140.822,18.019 140.837,17.368Z" style="fill:white;"/>
    </g>
    <g transform="matrix(1,0,0,1,-113.088403,-0.862977)">
        <path d="M142.304,17.368C142.812,17.261 142.474,17.998 142.571,18.301C142.189,18.282 142.326,17.745 142.304,17.368Z" style="fill:white;"/>
    </g>
    <g transform="matrix(1,0,0,1,-113.088403,-0.862977)">
        <path d="M162.569,21.767C155.722,23.055 146.197,23.33 138.971,22.167C138.41,22.019 139.744,21.66 139.638,21.101C142.771,20.918 146.031,20.94 149.37,20.701C153.241,20.424 157.354,19.59 160.836,20.035C161.702,20.145 162.219,20.655 162.569,21.767Z" style="fill:white;"/>
    </g>
    <g transform="matrix(1,0,0,1,-113.088403,-0.862977)">
        <path d="M142.837,24.434L142.837,27.501C139.126,27.653 135.031,27.284 132.305,26.035C133.675,24.739 135.559,23.956 137.104,22.835C138.528,23.856 140.558,24.269 142.837,24.434Z" style="fill:white;"/>
    </g>
    <g transform="matrix(1,0,0,1,-113.088403,-0.862977)">
        <path d="M165.77,25.502C163.148,26.257 160.472,26.957 157.77,27.634C157.904,26.37 157.456,25.042 157.637,24.168C159.763,24.027 161.846,23.845 163.638,23.368C164.397,23.953 165.705,24.658 165.77,25.502Z" style="fill:white;"/>
    </g>
    <g transform="matrix(1,0,0,1,-113.088403,-0.862977)">
        <path d="M146.437,42.567C145.393,43.64 146.493,49.174 146.837,50.433C148.909,50.728 152.227,50.362 154.303,50.299C154.86,48.09 154.551,44.578 154.303,42.301C152.633,41.691 147.646,41.325 146.437,42.567ZM154.704,41.633C155.434,41.642 155.383,40.189 154.837,40.034C154.496,40.243 154.463,41.263 154.704,41.633ZM154.571,36.834C154.328,37.218 154.38,38.442 154.571,38.833C155.448,38.962 155.263,36.31 154.571,36.834ZM146.171,36.834C146.65,36.484 146.34,35.693 146.304,35.1L145.77,35.1C145.82,35.762 145.57,36.723 146.171,36.834ZM154.837,35.901C155.246,35.519 155.304,33.824 154.571,33.767C154.483,34.376 153.845,35.78 154.837,35.901ZM146.037,33.634C146.294,33.309 146.166,32.518 146.037,32.167L145.637,32.167C145.403,32.566 145.359,33.724 146.037,33.634ZM154.704,32.701C155.509,32.65 155.438,30.4 154.837,30.167C154.679,30.84 154.384,31.981 154.704,32.701ZM145.77,31.234C146.213,31.014 146.061,29.439 145.503,29.368C145.337,29.774 145.136,31.201 145.77,31.234ZM154.97,28.834C155.504,28.613 155.357,27.711 155.37,26.968C155.187,26.973 155.077,26.905 154.97,26.834C154.627,27.083 154.493,28.61 154.97,28.834ZM145.238,28.434C146.174,28.36 145.584,27.153 145.503,26.568L145.103,26.568C144.862,27.114 144.958,28.016 145.238,28.434ZM155.771,52.032C152.625,51.466 148.792,51.151 145.503,51.766C145.188,42.55 145.388,33 144.171,24.434C145.004,24.445 144.235,26.059 145.103,26.035C145.939,26.117 145.217,24.696 145.503,24.568C148.682,24.191 152.73,24.682 155.903,24.301C156.158,33.275 155.655,43.176 155.771,52.032Z" style="fill:white;"/>
    </g>
    <g transform="matrix(1,0,0,1,-113.088403,-0.862977)">
        <path d="M168.436,27.501C168.171,28.393 167.076,28.451 166.57,29.101C166.188,28.726 166.188,27.971 165.77,27.634C166.66,27.189 167.916,26.158 168.436,27.501Z" style="fill:white;"/>
    </g>
    <g transform="matrix(1,0,0,1,-113.088403,-0.862977)">
        <path d="M130.304,26.968C130.843,27.275 131.29,27.671 131.905,27.9C131.431,28.937 131.05,30.068 131.105,31.634C130.153,31.341 129.558,30.692 128.838,30.167C128.983,28.758 129.782,27.999 130.304,26.968Z" style="fill:white;"/>
    </g>
    <g transform="matrix(1,0,0,1,-113.088403,-0.862977)">
        <path d="M164.436,27.9C164.708,28.427 164.893,29.044 165.104,29.634C164.865,30.284 164.133,30.442 163.502,30.7C163.257,29.702 162.546,29.169 162.303,28.168C163.192,28.257 163.645,27.909 164.436,27.9Z" style="fill:white;"/>
    </g>
    <g transform="matrix(1,0,0,1,-113.088403,-0.862977)">
        <path d="M132.705,28.301C133.526,28.592 134.281,28.947 135.504,28.834C135.561,29.751 134.795,31.665 135.237,32.967C134.208,33.195 133.125,32.325 132.172,32.034C132.132,30.572 132.49,29.507 132.705,28.301Z" style="fill:white;"/>
    </g>
    <g transform="matrix(1,0,0,1,-113.088403,-0.862977)">
        <path d="M161.104,28.434C161.448,29.468 161.891,30.402 162.436,31.234C162.042,31.685 161.435,31.922 160.704,32.034C160.713,30.469 159.845,29.782 159.503,28.567C160.186,28.672 160.472,28.38 161.104,28.434Z" style="fill:white;"/>
    </g>
    <g transform="matrix(1,0,0,1,-113.088403,-0.862977)">
        <path d="M159.503,32.701C158.84,32.792 158.456,33.164 157.77,33.234L157.77,28.834C157.982,28.824 158.278,28.898 158.303,28.701C159.12,29.618 159.477,30.995 159.503,32.701Z" style="fill:white;"/>
    </g>
    <g transform="matrix(1,0,0,1,-113.088403,-0.862977)">
        <path d="M136.438,29.101C136.875,29.241 137.529,29.165 137.904,29.368C137.625,30.688 137.67,32.332 137.505,33.767C136.972,33.766 136.705,33.501 136.172,33.5C135.83,32.057 136.159,30.346 136.438,29.101Z" style="fill:white;"/>
    </g>
    <g transform="matrix(1,0,0,1,-113.088403,-0.862977)">
        <path d="M138.837,29.368L141.104,29.368C141.098,31.184 140.733,32.641 140.571,34.3C139.917,34.243 139.328,34.122 138.705,34.034C138.923,32.653 138.813,30.943 138.837,29.368Z" style="fill:white;"/>
    </g>
    <g transform="matrix(1,0,0,1,-113.088403,-0.862977)">
        <path d="M142.97,29.368C142.867,31.248 143.167,32.727 143.104,34.567L141.77,34.567C141.973,32.903 141.978,31.042 142.17,29.368L142.97,29.368Z" style="fill:white;"/>
    </g>
    <g transform="matrix(1,0,0,1,-113.088403,-0.862977)">
        <path d="M170.436,60.566C171.8,60.451 172.417,58.919 172.17,57.632C171.137,58.156 170.678,59.252 170.436,60.566ZM128.171,60.832C127.849,59.555 127.687,58.117 126.571,57.632C126.298,58.908 127.161,60.841 128.171,60.832ZM172.702,55.232C174.339,54.037 174.567,50.663 174.436,47.766C174.357,46.019 174.275,44.214 173.769,42.967L173.368,42.967C173.384,46.691 172.967,51.792 172.702,55.232ZM172.969,38.833C172.283,37.623 171.57,39.638 172.57,39.9C172.739,39.581 173.056,39.41 172.969,38.833ZM126.838,35.901C126.647,35.975 126.513,36.108 126.438,36.301C125.399,38.244 124.883,42.593 124.705,46.167C124.53,49.7 124.939,53.581 126.305,55.5C126.401,53.132 125.501,50.701 125.639,48.034C125.856,43.82 126.769,39.48 127.106,35.901L126.838,35.901ZM127.24,31.634C128.408,32.038 129.328,32.832 130.572,33.367C134.18,34.921 138.742,35.843 143.237,36.567C142.937,42.562 143.101,49.23 144.705,53.766C145.629,53.989 146.574,53.68 147.637,53.633C150.972,53.486 154.811,54.2 157.37,53.499C157.525,48.115 157.627,41.601 157.637,35.633C162.39,34.43 166.849,32.225 169.903,29.768C172.04,33.783 174.938,39.252 175.503,45.1C175.791,48.087 175.327,51.942 174.835,54.832C173.629,61.928 169.221,65.998 164.835,69.765C157.227,69.419 150.401,70.595 144.437,72.698C142.909,73.237 141.172,74.515 140.038,74.565C138.098,74.652 135.038,72.192 133.638,70.965C132.352,69.838 130.875,68.176 129.638,66.565C128.274,64.789 126.404,62.915 125.772,61.099C124.371,57.076 123.33,51.191 123.639,45.766C123.936,40.543 125.837,35.58 127.24,31.634Z" style="fill:white;"/>
    </g>
    <g transform="matrix(1,0,0,1,-113.088403,-0.862977)">
        <path d="M148.705,44.699C148.387,45.183 148.034,46.836 148.17,47.367C148.99,50.547 155.079,46.419 151.637,44.033C150.502,43.812 149.284,43.814 148.705,44.699ZM153.238,43.367L153.238,48.566C151.609,48.938 149.284,48.613 147.77,49.099C147.441,47.386 147.327,45.454 147.104,43.633C149.159,43.554 150.98,43.243 153.238,43.367Z" style="fill:white;"/>
    </g>
    <g transform="matrix(1,0,0,1,-113.088403,-0.862977)">
        <path d="M150.171,45.5C150.767,45.435 150.838,45.899 150.837,46.433C150.335,46.491 150.272,46.988 149.77,46.7C149.986,46.384 150.067,45.929 150.171,45.5Z" style="fill:white;"/>
    </g>
    <g transform="matrix(1,0,0,1,-113.088403,-0.862977)">
        <path d="M180.169,70.298C180.562,70.458 178.723,72.121 178.169,72.431C176.689,73.257 174.094,73.718 171.77,74.164C164.993,75.469 155.686,74.158 149.636,76.298C155.491,75.564 163.492,75.751 170.303,75.232C161.731,77.016 151.863,75.752 144.171,78.564C140.638,79.856 137,83.663 133.638,81.098C140.623,79.348 145.795,74.386 154.571,73.632C163.381,72.873 173.685,73.623 180.169,70.298Z" style="fill:white;"/>
    </g>
    <g transform="matrix(1,0,0,1,-113.088403,-0.862977)">
        <path d="M128.571,26.035C128.929,26.695 127.925,26.865 127.639,27.101C126.383,28.126 124.616,29.934 123.639,31.367C121.717,34.185 120.975,38.164 119.639,41.901C118.564,44.905 116.758,47.723 116.439,50.833C116.188,53.276 116.653,55.983 116.972,58.165C117.682,63.034 120.094,66.387 122.705,69.365C123.854,70.674 125.502,71.663 126.571,73.097C127.645,74.539 128.223,76.432 129.371,77.631C122.579,72.587 115.259,65.749 114.572,54.699C114.385,51.705 114.79,47.141 116.039,44.166C116.725,42.535 118.088,40.822 118.972,38.967C119.905,37.01 120.642,34.953 121.772,32.967C123.459,30.004 124.67,26.635 128.571,26.035Z" style="fill:white;"/>
    </g>
    <g transform="matrix(1,0,0,1,-113.088403,-0.862977)">
        <path d="M173.502,33.101C177.194,35.939 180.349,40.392 183.102,45.367C184.798,48.432 186.501,51.795 186.834,55.232C187.202,59.018 186,64.084 183.501,65.232C185.771,57.429 184.493,49.198 181.102,43.766C180.195,42.314 179.119,41.134 178.036,39.9C176.267,37.884 174.515,35.843 173.502,33.101Z" style="fill:white;"/>
    </g>
    <g transform="matrix(1,0,0,1,-113.088403,-0.862977)">
        <path d="M181.501,68.432C174.505,73.668 161.472,71.345 151.371,73.231C148.252,73.814 145.493,74.864 142.837,76.298C140.779,77.41 138.919,78.592 136.304,79.498C135.017,79.945 133.451,80.805 132.172,80.164C136.568,79.395 139.253,76.464 143.237,74.831C150.5,71.854 159.99,71.525 168.97,71.498C173.647,71.485 178.103,70.621 181.501,68.432Z" style="fill:white;"/>
    </g>
</svg>
